<svg width="314" height="416" fill="none" xmlns="http://www.w3.org/2000/svg"><g clip-path="url(#clip0_28_817)"><path d="M9.446 139.986c-2.877 5.039-4.024 42.006 3.177 42.633 4.909.428 5.072-18.591 7.267-34.369 2.25-16.181-7.568-13.302-10.444-8.264z" fill="#FFD3D4"/><path d="M13.451 175.287c5.834 1.934 1.688 49.668-1.688 49.888-4.342.283-5.427-36.273-3.777-44.492 1.65-8.22 5.465-5.396 5.465-5.396z" fill="#FFD3D4"/><path d="M6.762 225.666c.042-2.146 1.357-5.502 4.714-6.162 3.485-.686 5.322 4.734 5.434 5.939.759 8.196-2.126 9.249-4.908 10.066-2.783.816-5.327-5.377-5.24-9.843z" fill="#FFD3D4"/><path d="M16.153 181.69s-21.755-12.821-14.77-20.932c5.988-6.954 3.3-31.95 22.99-31.95 2.064 0-2.18 48.554-8.22 52.882z" fill="#4282B8"/><path opacity=".1" d="M11.513 176.533c-3.353.484-2.405-29.071 1.253-28.135 3.657.936-.008 27.955-1.253 28.135z" fill="#000"/><path opacity=".05" d="M67.018 389.973c2.633-6.227-7.693-16.611-23.063-23.193-15.37-6.583-29.963-6.871-32.596-.645-2.633 6.227 7.693 16.611 23.062 23.194 15.37 6.582 29.964 6.871 32.597.644z" fill="#000"/><path d="M54.643 378.718c-.006.006-.008.014-.012.021l-4.664.407 3.252 1.205c-5.9 9.816-11.172 1.976-11.872 2.201-.72.232-2.721 5.572-1.089 9.954.354.95.312 1.068.91 1.654.03.339.096.702.226 1.017.377.911 3.053 2.356 5.628 2.356s7.42-4.283 7.42-4.283v-.97c2.283-1.506 4.562-2.893 5.58-2.949 2.004-.112 11.8-6.779 11.8-10.613 0-3.834-12.867-4.023-17.18 0z" fill="#4A4C56"/><path d="M53.655 380.297l-3.482-1.142c.013-.466.023-.933.041-1.39.13-3.276 1.514-8.486-1.49-8.557-3.005-.071-6.982-1.9-7.204 7.446 0 0-.136 5.83 0 6.675.135.844 1.485 2.554 6.412 2.554 1.177 0 2.697-.678 2.697-.678s3.357-1.256 4.558-3.499l-1.532-1.409z" fill="#FFD6D6"/><path d="M33.14 364.961c-.005.005-.007.014-.01.021l-4.665.407 3.252 1.205c-5.9 9.816-11.172 1.976-11.872 2.201-.72.232-2.721 5.572-1.089 9.953.354.951.312 1.069.91 1.655.03.339.096.702.226 1.017.377.911 3.053 2.356 5.628 2.356s7.42-4.283 7.42-4.283v-.97c2.284-1.506 4.562-2.893 5.58-2.949 2.004-.112 11.8-6.779 11.8-10.613 0-3.834-12.867-4.023-17.18 0z" fill="#4A4C56"/><path d="M32.153 366.54l-3.482-1.142c.013-.466.023-.933.041-1.39.13-3.277 1.514-8.486-1.49-8.557-3.006-.071-6.982-1.9-7.205 7.446 0 0-.135 5.83 0 6.675.136.844 1.486 2.554 6.413 2.554 1.177 0 2.697-.678 2.697-.678s3.357-1.256 4.558-3.499l-1.532-1.409z" fill="#FFD6D6"/><path d="M16.935 206.82c-6.64 6.691-5.695 16.941-2.969 26.569 2.726 9.628 29.489-16.331 29.489-16.331l-26.52-10.238z" fill="#4F5056"/><path d="M36.94 281.807s-2.664 44.987-2.388 78.083c.016 1.876-7.104 7.959-9.113 8.05-2.457.112-8.95-2.127-8.76-5.611 1.099-19.985-2.698-65.204-3.204-82.522-.87-29.779 23.466 2 23.466 2z" fill="#3C4358"/><path d="M13.143 217.251c-.222 46.476-3.182 85.517 11.992 86.421 19.49 1.16 12.032-56.84 14.068-77.129 2.771-27.62-26-21.801-26.06-9.292z" fill="#3C4358"/><path opacity=".1" d="M35.243 324.172l-7.556-78.948c-1.66-1.217-3.536-4.282-5.475-7.869 0 0 3.003 9.492 4.819 10.505 0 0-.101.631-.163 1.15-1.69 14.216 4.089 50.535 8.375 75.162z" fill="#1A1A1A"/><path d="M58.116 294.37s-2.664 46.784-2.388 79.88c.015 1.876-7.105 6.161-9.114 6.253-2.456.111-8.95-2.127-8.76-5.611 1.099-19.986-3.898-58.661-3.518-75.983.297-13.481 23.78-4.539 23.78-4.539z" fill="#3C4358"/><path d="M31.526 228.461c-.222 46.476-.39 86.87 14.784 87.773 19.49 1.161 9.24-58.192 11.276-78.481 2.771-27.619-26-21.801-26.06-9.292z" fill="#3C4358"/><path d="M58.539 203.231c-.612-6.501-2.267-15.314-4.56-23.435-2.875-10.176 2.5-21.318 1.495-32.342-.016-.18-.03-.36-.05-.541-1.237-11.2-14.218-13.837-14.218-13.837l-16.832-4.268s-9.847.032-11.536 6.225c-1.69 6.193-1.72 24.919-.979 32.667.741 7.749.724 43.245-1.082 55.843-.635 4.427 25.825 12.53 32.678 11.988 6.853-.543 16.092-5.655 17.95-8.51.774-1.188-2.43-19.153-2.866-23.79z" fill="#4282B8"/><path opacity=".1" d="M54.919 150.172c-6.201 2.935-12.92 8.335-12.537 17.901.5 12.486 8.072 29.467 15.947 38.076-.612-6.501-1.592-17.33-3.802-23.444-3.4-9.414.63-21.385.392-32.533z" fill="#000"/><path d="M51.312 157.79c-2.744 5.113-1.022 41.874 6.193 42.31 4.918.298 4.584-18.718 6.366-34.549 1.828-16.235-9.815-12.874-12.559-7.761z" fill="#FFD3D4"/><path d="M46.838 135.208c-.211-.583 12.608 6.755 15.135 11.341 2.186 3.967 7.072 17.616 7.783 29.499.335 5.587 2.67 7.775 2.376 11.078 0 0-11.429 12.089-23.932 6.868 0 0-.86-35.313-3.36-38.347 0 0 2.345-19.481 1.998-20.439z" fill="#4282B8"/><path d="M33.625 134.711c2.957.004 7.163-.669 8.927-1.114a4.967 4.967 0 01-.056-.585c-.122-3.039 3.897-12.247-.539-15.111-4.435-2.865-12.217-2.984-12.871 2.261-.578 4.634-2.718 9.633-3.02 10.182 1.214 1.535 3.906 4.362 7.559 4.367z" fill="#FCC"/><path d="M51.204 99.425c.832 1.211-.386 6.318.248 8.927 2.002 8.241 1.609 19.363-12.219 19.801-13.51.427-14.12-6.358-14.548-15.037-.428-8.679-3.96-12.665 5.047-17.681 9.007-5.017 17.995-1.07 21.472 3.99z" fill="#FFD2D2"/><path d="M53.427 100.437c.515-9.501-13.712-13.271-20.615-12.49-2.775.314-9.485 2.295-10.465 6.238-11.431 10.438 1.563 30.586 9.638 31.674 3.492.47 7.376-.185 9.327-2.301.276-.3 1.487-1.949 1.085-1.894-1.333.181-3.564-1.204-3.326-5.931.382-7.564 3.436-3.872 4.16-2.541.723 1.331 1.04 3.981 1.04 3.981l.917 1.502 1.146-4.333c2.285-2.823 3.45-4.894 4.177-7.694.941-2.804 2.456-3.638 2.916-6.211z" fill="#3D4356"/><path d="M26.654 129.56c-.406.161-1.255.432-1.102 1.048.153.616 3.771 4.146 6.93 4.457 3.158.311 10.186-.266 10.672-.919.738-.992-15.903-4.822-16.5-4.586z" fill="#FCC"/><path d="M131.157 171.145c2.385 0 4.317-1.945 4.317-4.345 0-2.4-1.932-4.345-4.317-4.345-2.384 0-4.317 1.945-4.317 4.345 0 2.4 1.933 4.345 4.317 4.345zm28.033-23.995c3.577 0 6.476-2.918 6.476-6.518 0-3.599-2.899-6.517-6.476-6.517-3.576 0-6.476 2.918-6.476 6.517 0 3.6 2.9 6.518 6.476 6.518zm36.171 12.423c5.988 0 10.842-4.885 10.842-10.911s-4.854-10.911-10.842-10.911c-5.987 0-10.841 4.885-10.841 10.911s4.854 10.911 10.841 10.911zm52.601-13.231c34.714 0 62.856-28.323 62.856-63.26 0-34.939-28.142-63.261-62.856-63.261-34.715 0-62.856 28.322-62.856 63.26s28.141 63.261 62.856 63.261z" fill="#EDE6EB"/><path opacity=".05" d="M250.228 134.137l-29.571-17.183 6.503-3.778 29.571 17.182-6.503 3.779z" fill="#000"/><path d="M221.258 111.885v5.417l.6-.349v-5.417l-.6.349zm14.485 8.418v5.417l.6-.349v-5.417l-.6.349z" fill="#D3C2A8"/><path opacity=".05" d="M170.037 84.566l47.329-27.501L314 113.215l-47.329 27.502-96.634-56.15z" fill="#000"/><path d="M266.67 136.133l-88.745-51.567 39.441-22.917 88.746 51.566-39.442 22.918z" fill="#EFEFEF"/><path d="M266.67 136.133l-88.745-51.567V38.732l88.745 51.566v45.836z" fill="#EFF6FA"/><path d="M197.279 84.212l-9.86-5.73v-13.75l9.86 5.73v13.75z" fill="#B9CCE3"/><path d="M250.228 128.032l-29.571-17.182 6.503-3.779 29.571 17.182-6.503 3.779z" fill="#D3CDC5"/><path d="M250.228 128.72v-.688l6.503-3.779v.688l-6.503 3.779z" fill="#D3C2A8"/><path d="M250.228 128.72l-29.571-17.183v-.687l29.571 17.182v.688z" fill="#D3C7B7"/><path d="M256.731 124.253l-29.571-17.182V82.164l29.571 17.182v24.907z" fill="#B9CCE3"/><path d="M306.112 113.215l-39.443 22.918V91.556l19.721-36.043 17.462 11.62 2.26 1.505v44.577z" fill="#DBEBF4"/><path d="M289.262 58.404l21.982 14.628 1.683-.978-23.665-15.75-23.665 43.252 1.684-.979 21.981-40.173z" fill="#4282B8"/><path opacity=".1" d="M289.262 58.404l21.982 14.628 1.683-.978-23.665-15.75-23.665 43.252 1.684-.979 21.981-40.173z" fill="#000"/><path d="M192.63.154l-23.666 43.251 47.331-27.502L192.63.153z" fill="#4282B8"/><path d="M285.282 113.768l-9.861 5.73v-13.751l9.861-5.729v13.75zm12.078-7.018l-9.861 5.73V98.73L297.36 93v13.75z" fill="#B9CCE3"/><path d="M219.325 108.59l-15.536-9.027v-29.95l15.536 9.028v29.949z" fill="#A38B7B"/><path d="M213.14 102.127l-3.165-1.839V76.121l3.165 1.84v24.166z" fill="#B9CCE3"/><path d="M206.028 94.095a.457.457 0 01-.456-.459v-.994a.891.891 0 01-.271-.305c-.437-.76-.534-2.924-.485-4.545.065-2.105.319-3.443.756-3.99v-1.18c0-.253.204-.459.456-.459.251 0 .455.206.455.459v1.374a.458.458 0 01-.227.397c-.598.573-.748 6.348-.213 7.412a.457.457 0 01.44.458v1.373a.457.457 0 01-.455.459z" fill="#D3CDC5"/><path d="M250.228 128.72v5.417l-.6-.349v-5.417l.6.349zm-14.485-8.417v5.417l-.6-.349v-5.417l.6.349z" fill="#D3C7B7"/><path d="M250.228 128.72v5.417l.601-.349v-5.417l-.601.349z" fill="#D3C2A8"/><path d="M221.258 111.885v5.417l-.601-.349v-5.417l.601.349z" fill="#D3C7B7"/><path d="M192.63.154l-16.49 30.138-7.176 13.113 96.633 56.15 7.175-13.114 16.49-30.137L192.63.154zM75.285 69.145c-2.183-2.192-4.597-2.286-5.391-.211.794-2.075-.331-5.534-2.514-7.726s-4.597-2.286-5.391-.211c-2.462 6.43 3.973 18.207 3.973 18.207s9.375 4.096 11.837-2.333c.794-2.075-.331-5.534-2.514-7.726zm21.992 26.052c-2.183-.346-3.308 1.805-2.514 4.804-.794-2.999-3.208-5.71-5.391-6.054-2.183-.345-3.308 1.805-2.514 4.804 2.462 9.29 11.837 16.089 11.837 16.089s6.435-4.3 3.973-13.59c-.794-2.998-3.208-5.708-5.391-6.053z" fill="#4282B8"/><path opacity=".05" d="M115.623 411.98c2.266-5.361-6.624-14.301-19.857-19.969-13.233-5.667-25.798-5.915-28.065-.554-2.266 5.361 6.624 14.301 19.857 19.969 13.233 5.667 25.798 5.915 28.065.554z" fill="#1A1A1A"/><path d="M60.764 164.98c-2.942 4.756-1.825 40.998 3.092 41.314 4.917.316 5.315-17.66 7.716-32.691 2.464-15.416-7.867-13.379-10.808-8.623z" fill="#FFD0D2"/><path d="M62.771 199.592c-5.775 2.022-.09 43.505 3.293 43.44 3.03-.058 4.216-30.65 2.327-38.45-1.888-7.8-5.62-4.99-5.62-4.99z" fill="#FFD0D2"/><path d="M70.053 240.865c-.201-2.035-1.703-5.122-4.941-5.494-3.363-.385-4.7 4.904-4.715 6.057-.103 7.844 2.716 8.624 5.42 9.187 2.706.564 4.656-5.513 4.236-9.75z" fill="#FFD0D2"/><path d="M71.467 158.163c-3.116.598-7.908 2.113-10.7 5.559-4.538 5.604-5.8 24.922-5.457 25.346.303.375 4.582 3.896 7.833 3.896 13.143.001 8.324-34.801 8.324-34.801z" fill="#4282B8"/><path opacity=".1" d="M69.73 169.71s-2.377 2.566-3.48 4.757c-2.905 5.776-5.148 14.254.717 16.811 5.864 2.558 2.763-21.568 2.763-21.568z" fill="#000"/><path d="M103.71 174.486c-.641-2.377-1.769-4.877-3.729-7.193-4.282-5.062-11.286-8.14-21.659-9.594-1.758-.246-7.743-.956-11.368 2.459-4.887 4.604-2.459 14.271-1.907 23.462.575 9.594 4.651 11.21 2.144 32.651-1.779 15.21 16.07 20.227 23.845 20.462 7.775.236 4.834-4.914 8.959-4.826 4.125.089 4.585-8.324 3.749-12.293a20.986 20.986 0 01-.362-2.51c-.06-.69 0-1.454.063-2.29.086-1.154.177-2.449-.04-3.91-1.751-11.805-2.249-13.482 2.126-25.109.136-.362.26-.734.382-1.106 1.091-3.331-1.478-7.513-2.203-10.203z" fill="#4282B8"/><path opacity=".1" d="M91.507 191.998c.603 6.866 8.017 18.873 11.938 22.816.086-1.154.177-2.449-.04-3.91-1.751-11.805-2.249-13.483 2.126-25.109.136-.362.26-.734.382-1.106-5.609-1.486-15.327-3.19-14.406 7.309z" fill="#000"/><path d="M77.992 152.479c-.613 2.809-2.193 5.826-.052 6.806 2.142.98 8.62 1.609 8.766-.25.114-1.458.634-7.438 0-8.025-.635-.588-8.714 1.469-8.714 1.469z" fill="#FFC5C8"/><path d="M68.112 202.955c.019.671-1.101 3.349-1.118 4.154-.017.805-.217 2.76.476 3.556.147.168 5.98 5.272 7.78 5.236.825-.017 17.375 5.871 18.321 2.279.439-1.665-24.952-14.274-25.038-14.695-.129-.633-.42-.53-.42-.53z" fill="#4282B8"/><path d="M71.87 393.06c.137 1.084 1.566 2.867 1.566 4.271s-.433 3.534.062 3.738c.28.116 1.045-.034 1.336-.443.29-.41-.762-4.402.953-5.835 1.715-1.434-3.917-1.731-3.917-1.731z" fill="#3B435A"/><path d="M72.717 384.543s-2.918 4.496-1.61 8.007c1.308 3.51 4.452 3.973 6.21 3.015 1.759-.958 6.382 1.803 11.598.219 2.885-.876 8.825-5.246 6.59-7.337-.838-.785-6.571-.261-10.537 1.558-2.137.981-5.062-1.544-7.59-3.155-2.529-1.611-4.661-2.307-4.661-2.307z" fill="#3B435A"/><path d="M66.608 343.298s8.039 35.989 5.357 42.632c-.386.956 2.035.072 5.395 2.191.977.616 1.88 3.071 4.83 3.19 4.471.181 8.069.364 5.559-.997-.694-.376-7.598-2.332-8.455-4.522-1.78-4.543 2.776-44.266 2.776-44.266l-15.462 1.772z" fill="#FFD6D6"/><path d="M90.553 402.976c.137 1.084 1.566 2.867 1.566 4.271 0 1.405-.432 3.534.062 3.739.28.115 1.045-.034 1.336-.444.29-.409-.762-4.401.953-5.835 1.715-1.433-3.917-1.731-3.917-1.731z" fill="#3B435A"/><path d="M91.4 394.459s-2.917 4.497-1.61 8.007c1.308 3.51 4.452 3.973 6.21 3.015 1.76-.957 6.382 1.804 11.598.22 2.885-.877 8.826-5.246 6.591-7.338-.839-.785-6.572-.261-10.537 1.559-2.138.98-5.063-1.545-7.591-3.156-2.529-1.61-4.661-2.307-4.661-2.307z" fill="#3B435A"/><path d="M85.29 353.215s8.04 35.988 5.358 42.632c-.386.956 2.035.072 5.395 2.191.977.616 1.88 3.071 4.83 3.19 4.471.181 8.069.364 5.559-.997-.694-.376-7.598-2.333-8.455-4.522-1.78-4.544 2.776-44.266 2.776-44.266l-15.462 1.772z" fill="#FFD6D6"/><path d="M76.007 157.538c-.303.074-.82.36-.693.804.126.444 2.445 2.664 5.456 2.902 2.114.167 8.448 1.367 8.89-.55.29-1.256-11.71-3.631-13.653-3.156z" fill="#FCC"/><path d="M75.213 156.522c12.922.237 22.124-3.145 19.609-18.621-1.007-6.205-4.043-13.685-14.147-14.199-21.376-1.083-16.794 32.614-5.462 32.82z" fill="#FFD0D2"/><path d="M64.496 144.29s-2.684 6.601-2.324 8.934c.36 2.333 1.678 4.616 3.889 5.474 0 0-2.441-3.927-2.736-5.709-.176-1.061.87-3.118 1.268-5.477.27-1.599-.097-3.222-.097-3.222z" fill="#434856"/><path d="M74.689 122.943c5.223-1.77 18.115.32 20.838 15.823 0 0 7.942 10.685 2.255 14.958 0 0-3.243 5.072-7.428 5.607 0 0-3.473 2.41-6.683 1.555 0 0 1.963-.188 1.837-.859 0 0-3.643.908-5.093.341 0 0 1.744 1.754 2.978 1.557 0 0-5.814.368-6.53-.155 0 0-5.505-.313-5.937-1.072 0 0-5.871-1.67-6.744-4.395-.873-2.725-.106-5.943-.423-8.865-.317-2.922-4.676-19.208 10.93-24.495z" fill="#3B435A"/><path d="M77.706 126.486s4.868.581 7.248 6.491c2.94 7.298 5.23 13.314 6.759 15.411 1.78 2.442 2.915 4.651 3.145 6.988.23 2.336-3.331 4.607-3.331 4.607s2.245-3.01 1.784-5.27c-.461-2.26-3.368-3.58-5.316-9.732-5.462-17.252-10.289-18.495-10.289-18.495zm-1.956.37c.158 1.03 2.393 18.535 2.418 21.059.025 2.523-1.716 5.232.39 10.079.753 1.732 3.102 1.86 3.102 1.86s-3.444 1.833-4.65-3.769c-1.208-5.603.182-5.499-.06-8.364-.231-2.755-1.46-9.943-1.471-13.937-.01-3.994.272-6.928.272-6.928zM74 125.803s-5.523 1.439-6.994 5.833c-1.471 4.395-.008 13.215-.868 16.061-.894 2.958.312 11.84 2.276 13.247 1.964 1.408 3.385 1.831 5.155 1.497 0 0-4.792-1.378-5.552-5.449-.76-4.072-1.534-5.552-.403-10.857.402-1.884-.433-12.766.788-14.938 1.645-2.924 5.598-5.394 5.598-5.394z" fill="#434856"/><path d="M79.976 125.132s5.045-.964 7.919 2.044c2.874 3.009 5.047 10.753 6.833 12.737 1.856 2.062 5.234 10.124 4.448 12.16-.765 1.982-2.53 3.116-4.098 3.528 0 0 3.948-2.271 3.012-5.878-.935-3.608-2.215-6.631-5.16-10.511-1.046-1.378-4.518-10.558-6.34-11.853-2.454-1.745-6.614-2.227-6.614-2.227z" fill="#434856"/><path d="M95.457 138.723s2.527.933 3.086 2.934c.56 2.002-.51 4.46-.51 4.46s.163-3.614-.044-4.222c-.206-.608-1.78-1.423-1.78-1.423l-.752-1.749zm17.794 195.732c-2.785-5.988-6.73-81.635-6.73-81.635s.036-30.207-2.395-30.859c0 0-.403-6.316-.683-6.598-.279-.281-5.94 3.359-13.287 3.517-12.893.277-22.34-9.206-22.887-9.207-1.04-.002-.657 5.317-1.229 7.071-3.718 11.406-3.513 22.335-2.378 29.594 1.136 7.259-6.757 94.857-10.44 98.935-3.86 4.272 8.153 11.081 18.648 9.075 11.372-2.174 14.536 4.129 21.674 3.935 7.139-.194 8.943-6.526 13.115-6.932 4.173-.407 9.224-11.238 6.592-16.896z" fill="#3B435A"/><path opacity=".05" d="M96.048 281.987s.427 64.872-.615 66.533c-1.042 1.662-2.879-34.047-2.1-46.449.78-12.402.648-19.947 2.715-20.084zm-29.44 72.645s12.456-49.882 12.456-61.088c0-11.205 4.975-17.404 4.975-17.404s-2.724 24.248-2.843 31.436c-.118 7.188-11.623 47.003-11.623 47.003-.802.118-1.828.115-2.965.053zm2.692-97.177c-.557 8.882.84 32.081 0 38.899-.84 6.818-5.638 25.851-5.638 25.851s8.186-15.34 8.186-25.756-2.547-38.994-2.547-38.994z" fill="#000"/><path d="M106.595 176.066c2.809 5.077.683 42.948-4.241 43.107-4.925.159-4.822-18.658-6.805-34.465-2.034-16.21 8.237-13.72 11.046-8.642z" fill="#FFD0D2"/><path d="M91.773 185.347c.995 2.037.189 14.125 4.247 15.769 5.275 2.137 13.498-3.589 13.498-3.589s-1.207-18.366-2.594-21.882c-1.257-3.185-8.817-10.781-10.506-11.659-1.689-.878-7.68 15.149-4.645 21.361z" fill="#4282B8"/><path d="M102.041 219.272c5.14 3.385 36.245-27.257 34.166-29.943-1.863-2.406-28.022 15.856-33.38 22.278-5.358 6.422-.786 7.665-.786 7.665z" fill="#FFD3D4"/><path d="M131.459 185.428c-1.553 1.296-1.688 4.569-.194 7.457 1.551 2.999 6.599 1.141 7.569.543 3.55-2.187 1.702-5.921.662-8.474-1.041-2.553-4.806-2.225-8.037.474z" fill="#FFD3D4"/><path d="M137.207 185.638c3.019-3.984 4.925-7.057 5.886-5.712.961 1.344-2.966 7.031-3.913 7.304-.946.273-1.973-1.592-1.973-1.592zm-82.256 12.529c-2.318 5.724 32.017 28.401 35.63 22.582 1.607-2.587-20.716-19.208-28.004-23.273-7.288-4.064-7.626.691-7.626.691z" fill="#FFD3D4"/><path d="M92.393 218.082c-2.11.311-7.305-1.658-7.536 1.776-.24 3.567 6.203 6.19 7.405 6.15 8.175-.267 7.981-4.746 8.438-7.627.457-2.88-3.915-.945-8.307-.299z" fill="#FFD3D4"/></g><defs><clipPath id="clip0_28_817"><path fill="#fff" d="M0 0h314v416H0z"/></clipPath></defs></svg>