<svg width="162" height="187" fill="none" xmlns="http://www.w3.org/2000/svg"><g clip-path="url(#clip0_34_2466)"><path opacity=".05" d="M.797 144.883l86.088-49.858 71 41.12a.655.655 0 010 1.133l-85.11 49.291c-.9.521-2.26.578-3.04.126L.579 146.644c-.78-.452-.682-1.24.218-1.761z" fill="#000"/><path d="M145.019 142.885l16.42-23.294c.554-.786.803-6.296-.028-6.777l-67.859-34.6a2.44 2.44 0 00-3.218.707l-16.165 22.932 70.85 41.032z" fill="#4282B8"/><path d="M140.785 140.433l-66.616-38.58-72.955 37.444c-1.141.654-.647 5.915.132 6.366l68.027 39.397c.78.452 2.141.395 3.041-.126l72.605-42.049v-4.904l-4.234 2.452z" fill="#4282B8"/><path d="M1.565 138.998l72.604-42.05 70.85 41.033-72.605 42.049c-.9.521-2.261.578-3.041.126L1.346 140.759c-.78-.452-.681-1.24.219-1.761z" fill="#4282B8"/><path opacity=".3" d="M1.565 138.998l72.604-42.05 70.85 41.033-72.605 42.049c-.9.521-2.261.578-3.041.126L1.346 140.759c-.78-.452-.681-1.24.219-1.761z" fill="#fff"/><path d="M93.75 160.084l-2.158.41-8.248-4.777c-.779-.451-2.14-.395-3.04.127l-17.446 10.103-3.89.738v2.058h.002c-.01.295.161.578.523.787l9.88 5.722c.78.451 2.14.395 3.04-.126L93.007 163.2c.49-.284.741-.648.742-.994h.002v-2.122zm51.269-22.103l16.42-23.295a1.637 1.637 0 00-.516-2.359l-67.37-39.018a2.44 2.44 0 00-3.22.708L74.17 96.949l70.85 41.032z" fill="#4282B8"/><path opacity=".2" d="M145.019 137.981l16.42-23.295a1.637 1.637 0 00-.516-2.359l-67.37-39.018a2.44 2.44 0 00-3.22.708L74.17 96.949l70.85 41.032z" fill="#fff"/><path d="M82.287 93.927L91.751 80.5a2.44 2.44 0 013.218-.708l58.868 34.093a1.637 1.637 0 01.515 2.359l-9.463 13.426a2.441 2.441 0 01-3.219.708L82.803 96.286a1.638 1.638 0 01-.516-2.36z" fill="#C6C6C6"/><path d="M30.028 139.383l-3.232-.232-7.173-4.154c-.78-.452-2.141-.395-3.041.126l-5.058 2.929-2.303-.165v2.03c-.015.3.155.588.523.801l9.879 5.722c.78.451 2.141.394 3.041-.127l6.62-3.834c.495-.286.746-.654.743-1.002l.001.001v-2.095zM44 131.291l-3.233-.232-7.172-4.154c-.78-.452-2.141-.395-3.041.126l-5.058 2.929-2.303-.165v2.03c-.016.3.155.588.522.801l9.88 5.722c.78.451 2.14.395 3.04-.127l6.62-3.833c.496-.287.746-.655.744-1.002H44v-2.095zm13.972-8.091l-3.233-.233-7.172-4.154c-.78-.451-2.142-.395-3.041.126l-5.058 2.93-2.304-.166v2.03c-.015.3.155.588.523.801l9.88 5.722c.78.451 2.14.395 3.04-.126l6.62-3.834c.496-.287.746-.654.744-1.002h.001V123.2zm13.972-8.092l-3.233-.233-7.173-4.154c-.78-.451-2.14-.395-3.04.127l-5.058 2.929-2.304-.166v2.03c-.015.3.155.589.523.802l9.88 5.721c.78.452 2.14.395 3.04-.126l6.62-3.834c.496-.287.746-.654.743-1.002h.002v-2.094zm13.972-8.092l-3.233-.232-7.173-4.155c-.78-.451-2.14-.394-3.04.127l-5.059 2.929-2.303-.166v2.031c-.015.299.155.588.523.801l9.88 5.721c.78.452 2.14.395 3.04-.126l6.62-3.834c.495-.286.746-.654.743-1.002h.002v-2.094z" fill="#4282B8"/><path opacity=".1" d="M30.028 139.383l-3.232-.232-7.173-4.154c-.78-.452-2.141-.395-3.041.126l-5.058 2.929-2.303-.165v2.03c-.015.3.155.588.523.801l9.879 5.722c.78.451 2.141.394 3.041-.127l6.62-3.834c.495-.286.746-.654.743-1.002l.001.001v-2.095zM44 131.291l-3.233-.232-7.172-4.154c-.78-.452-2.141-.395-3.041.126l-5.058 2.929-2.303-.165v2.03c-.016.3.155.588.522.801l9.88 5.722c.78.451 2.14.395 3.04-.127l6.62-3.833c.496-.287.746-.655.744-1.002H44v-2.095zm13.972-8.091l-3.233-.233-7.172-4.154c-.78-.451-2.142-.395-3.041.126l-5.058 2.93-2.304-.166v2.03c-.015.3.155.588.523.801l9.88 5.722c.78.451 2.14.395 3.04-.126l6.62-3.834c.496-.287.746-.654.744-1.002h.001V123.2zm13.972-8.092l-3.233-.233-7.173-4.154c-.78-.451-2.14-.395-3.04.127l-5.058 2.929-2.304-.166v2.03c-.015.3.155.589.523.802l9.88 5.721c.78.452 2.14.395 3.04-.126l6.62-3.834c.496-.287.746-.654.743-1.002h.002v-2.094zm13.972-8.092l-3.233-.232-7.173-4.155c-.78-.451-2.14-.394-3.04.127l-5.059 2.929-2.303-.166v2.031c-.015.299.155.588.523.801l9.88 5.721c.78.452 2.14.395 3.04-.126l6.62-3.834c.495-.286.746-.654.743-1.002h.002v-2.094z" fill="#000"/><path d="M75.51 111.947l-9.879-5.721c-.78-.452-.681-1.24.219-1.762l6.62-3.833c.9-.522 2.26-.578 3.04-.127l9.88 5.722c.78.451.681 1.24-.219 1.761l-6.62 3.834c-.9.521-2.26.578-3.04.126zm26.989 4.673l-3.233-.232-7.172-4.154c-.78-.452-2.141-.395-3.041.126l-5.058 2.929-2.303-.165v2.03c-.015.3.155.588.523.801l9.879 5.722c.78.451 2.14.394 3.04-.127l6.621-3.834c.495-.286.745-.654.743-1.002l.001.001v-2.095zm-13.972 8.092l-3.232-.233-7.173-4.154c-.78-.451-2.141-.394-3.041.127l-5.058 2.929-2.303-.166v2.031c-.015.299.155.588.523.801l9.879 5.721c.78.452 2.141.395 3.041-.126l6.62-3.834c.495-.287.745-.654.743-1.002h.001v-2.094zm-13.972 8.092l-3.232-.233-7.173-4.154c-.78-.451-2.141-.395-3.041.127l-5.058 2.929-2.303-.166v2.03c-.015.3.155.588.523.802l9.88 5.721c.779.452 2.14.395 3.04-.126l6.62-3.834c.495-.287.746-.654.743-1.002h.001v-2.094zm-13.972 8.092l-3.232-.233-7.173-4.154c-.78-.452-2.141-.395-3.041.126l-5.058 2.93-2.303-.166v2.03c-.015.3.155.588.523.801l9.88 5.722c.779.451 2.14.395 3.04-.126l6.62-3.834c.495-.287.746-.654.743-1.002h.001v-2.094zm-13.972 8.091l-3.232-.232-7.173-4.154c-.78-.452-2.141-.395-3.041.126l-5.058 2.929-2.303-.165v2.03c-.015.3.155.588.523.801l9.88 5.722c.779.451 2.14.395 3.04-.127l6.62-3.834c.495-.286.746-.654.743-1.001h.002v-2.095z" fill="#4282B8"/><path opacity=".1" d="M102.499 116.62l-3.233-.232-7.172-4.154c-.78-.452-2.141-.395-3.041.126l-5.058 2.929-2.303-.165v2.03c-.015.3.155.588.523.801l9.879 5.722c.78.451 2.14.394 3.04-.127l6.621-3.834c.495-.286.745-.654.743-1.002l.001.001v-2.095zm-13.972 8.092l-3.232-.233-7.173-4.154c-.78-.451-2.141-.394-3.041.127l-5.058 2.929-2.303-.166v2.031c-.015.299.155.588.523.801l9.879 5.721c.78.452 2.141.395 3.041-.126l6.62-3.834c.495-.287.745-.654.743-1.002h.001v-2.094zm-13.972 8.092l-3.232-.233-7.173-4.154c-.78-.451-2.141-.395-3.041.127l-5.058 2.929-2.303-.166v2.03c-.015.3.155.588.523.802l9.88 5.721c.779.452 2.14.395 3.04-.126l6.62-3.834c.495-.287.746-.654.743-1.002h.001v-2.094zm-13.972 8.092l-3.232-.233-7.173-4.154c-.78-.452-2.141-.395-3.041.126l-5.058 2.93-2.303-.166v2.03c-.015.3.155.588.523.801l9.88 5.722c.779.451 2.14.395 3.04-.126l6.62-3.834c.495-.287.746-.654.743-1.002h.001v-2.094zm-13.972 8.091l-3.232-.232-7.173-4.154c-.78-.452-2.141-.395-3.041.126l-5.058 2.929-2.303-.165v2.03c-.015.3.155.588.523.801l9.88 5.722c.779.451 2.14.395 3.04-.127l6.62-3.834c.495-.286.746-.654.743-1.001h.002v-2.095z" fill="#000"/><path d="M36.206 153.919l-9.88-5.722c-.779-.451-.68-1.24.22-1.761l6.619-3.834c.9-.521 2.262-.578 3.041-.127l9.88 5.722c.779.452.681 1.24-.219 1.761l-6.62 3.834c-.9.521-2.261.578-3.04.127zm82.876-27.695l-3.232-.232-7.173-4.154c-.78-.452-2.141-.395-3.041.126l-5.058 2.929-2.303-.165v2.03c-.015.3.155.588.523.801l9.879 5.722c.78.451 2.141.395 3.041-.127l6.62-3.833c.495-.287.746-.655.743-1.002h.001v-2.095zm-13.972 8.092l-3.232-.232-7.173-4.154c-.78-.452-2.141-.395-3.041.126l-5.058 2.929-2.303-.165v2.03c-.015.3.155.588.523.801l9.88 5.722c.779.451 2.14.394 3.04-.127l6.62-3.834c.495-.286.746-.654.743-1.002l.001.001v-2.095zm-13.971 8.092l-3.233-.233-7.173-4.154c-.78-.451-2.14-.395-3.04.127l-5.059 2.929-2.303-.166v2.031c-.015.299.155.588.523.801l9.88 5.721c.779.452 2.14.395 3.04-.126l6.62-3.834c.495-.287.746-.654.743-1.002h.002v-2.094zM77.167 150.5l-3.233-.233-7.173-4.154c-.78-.451-2.14-.395-3.04.126l-5.059 2.93-2.303-.166v2.03c-.015.3.155.588.523.801l9.88 5.722c.779.452 2.14.395 3.04-.126l6.62-3.834c.495-.287.746-.654.743-1.002h.002V150.5zm-13.972 8.091l-3.233-.232-7.173-4.154c-.78-.452-2.14-.395-3.04.126l-5.059 2.93-2.303-.166v2.03c-.015.3.155.588.523.801l9.88 5.722c.78.451 2.14.395 3.04-.127l6.62-3.833c.495-.287.746-.654.743-1.002h.002v-2.095z" fill="#4282B8"/><path opacity=".1" d="M119.082 126.224l-3.232-.232-7.173-4.154c-.78-.452-2.141-.395-3.041.126l-5.058 2.929-2.303-.165v2.03c-.015.3.155.588.523.801l9.879 5.722c.78.451 2.141.395 3.041-.127l6.62-3.833c.495-.287.746-.655.743-1.002h.001v-2.095zm-13.972 8.092l-3.232-.232-7.173-4.154c-.78-.452-2.141-.395-3.041.126l-5.058 2.929-2.303-.165v2.03c-.015.3.155.588.523.801l9.88 5.722c.779.451 2.14.394 3.04-.127l6.62-3.834c.495-.286.746-.654.743-1.002l.001.001v-2.095zm-13.971 8.092l-3.233-.233-7.173-4.154c-.78-.451-2.14-.395-3.04.127l-5.059 2.929-2.303-.166v2.031c-.015.299.155.588.523.801l9.88 5.721c.779.452 2.14.395 3.04-.126l6.62-3.834c.495-.287.746-.654.743-1.002h.002v-2.094zM77.167 150.5l-3.233-.233-7.173-4.154c-.78-.451-2.14-.395-3.04.126l-5.059 2.93-2.303-.166v2.03c-.015.3.155.588.523.801l9.88 5.722c.779.452 2.14.395 3.04-.126l6.62-3.834c.495-.287.746-.654.743-1.002h.002V150.5zm-13.972 8.091l-3.233-.232-7.173-4.154c-.78-.452-2.14-.395-3.04.126l-5.059 2.93-2.303-.166v2.03c-.015.3.155.588.523.801l9.88 5.722c.78.451 2.14.395 3.04-.127l6.62-3.833c.495-.287.746-.654.743-1.002h.002v-2.095z" fill="#000"/><path d="M52.79 163.523l-9.88-5.722c-.78-.451-.681-1.24.219-1.761l6.62-3.834c.9-.521 2.26-.578 3.04-.126l9.88 5.721c.78.452.681 1.24-.219 1.761l-6.62 3.834c-.9.522-2.26.578-3.04.127zm82.876-27.694l-3.233-.233-7.173-4.154c-.779-.452-2.141-.395-3.041.126l-5.058 2.93-2.303-.166v2.03c-.015.3.155.588.523.801l9.879 5.722c.78.451 2.141.395 3.041-.126l6.62-3.834c.495-.287.746-.654.743-1.002h.002v-2.094zm-13.972 8.091l-3.233-.232-7.173-4.154c-.779-.452-2.141-.395-3.041.126l-5.058 2.929-2.303-.165v2.03c-.015.3.155.588.523.801l9.88 5.722c.779.451 2.141.395 3.041-.127l6.619-3.834c.495-.286.746-.654.743-1.001h.002v-2.095zm-13.972 8.092l-3.233-.232-7.173-4.155c-.78-.451-2.14-.394-3.04.127l-5.059 2.929-2.303-.165v2.03c-.015.299.155.588.523.801l9.88 5.721c.78.452 2.14.395 3.041-.126l6.619-3.834c.495-.286.746-.654.743-1.002h.002v-2.094z" fill="#4282B8"/><path opacity=".1" d="M93.75 160.084l-2.158.41-8.248-4.777c-.779-.451-2.14-.395-3.04.127l-17.446 10.103-3.89.738v2.058h.002c-.01.295.161.578.523.787l9.88 5.722c.78.451 2.14.395 3.04-.126L93.007 163.2c.49-.284.741-.648.742-.994h.002v-2.122zm41.916-24.255l-3.233-.233-7.173-4.154c-.779-.452-2.141-.395-3.041.126l-5.058 2.93-2.303-.166v2.03c-.015.3.155.588.523.801l9.879 5.722c.78.451 2.141.395 3.041-.126l6.62-3.834c.495-.287.746-.654.743-1.002h.002v-2.094zm-13.972 8.091l-3.233-.232-7.173-4.154c-.779-.452-2.141-.395-3.041.126l-5.058 2.929-2.303-.165v2.03c-.015.3.155.588.523.801l9.88 5.722c.779.451 2.141.395 3.041-.127l6.619-3.834c.495-.286.746-.654.743-1.001h.002v-2.095zm-13.972 8.092l-3.233-.232-7.173-4.155c-.78-.451-2.14-.394-3.04.127l-5.059 2.929-2.303-.165v2.03c-.015.299.155.588.523.801l9.88 5.721c.78.452 2.14.395 3.041-.126l6.619-3.834c.495-.286.746-.654.743-1.002h.002v-2.094z" fill="#000"/><path d="M97.317 156.943l-9.88-5.721c-.78-.452-.681-1.24.219-1.761l6.62-3.834c.9-.522 2.26-.578 3.04-.127l9.88 5.722c.779.451.681 1.24-.219 1.761l-6.619 3.834c-.9.521-2.262.578-3.041.126zm-27.944 16.184l-9.88-5.722c-.779-.451-.681-1.24.219-1.761l20.591-11.926c.9-.521 2.262-.577 3.041-.126l9.88 5.722c.78.451.682 1.24-.218 1.761L72.414 173c-.9.522-2.262.578-3.041.127zm55.887-32.367l-9.879-5.722c-.779-.451-.682-1.24.218-1.761l6.62-3.834c.9-.521 2.262-.578 3.041-.126l9.88 5.721c.779.452.681 1.24-.219 1.762l-6.62 3.833c-.9.522-2.261.578-3.041.127zm-13.971 8.092l-9.88-5.722c-.779-.451-.682-1.24.218-1.761l6.62-3.834c.9-.521 2.262-.578 3.041-.127l9.88 5.722c.779.452.681 1.24-.219 1.761l-6.619 3.834c-.9.521-2.262.578-3.041.127zm-2.612-17.696l-9.88-5.722c-.779-.451-.68-1.24.22-1.761l6.619-3.834c.9-.521 2.261-.578 3.041-.126l9.879 5.721c.78.452.682 1.24-.218 1.761l-6.62 3.834c-.9.521-2.261.578-3.041.127zm-13.972 8.091l-9.88-5.721c-.779-.452-.68-1.24.22-1.761l6.619-3.834c.9-.521 2.261-.578 3.041-.127l9.879 5.722c.78.451.682 1.24-.218 1.761l-6.62 3.834c-.9.521-2.261.578-3.04.126zm-13.972 8.092l-9.879-5.721c-.78-.452-.682-1.24.218-1.762l6.62-3.833c.9-.522 2.262-.578 3.041-.127l9.88 5.722c.779.451.681 1.24-.219 1.761l-6.62 3.834c-.9.521-2.261.578-3.04.126zm-13.972 8.092l-9.879-5.722c-.78-.451-.682-1.24.218-1.761l6.62-3.834c.9-.521 2.262-.578 3.041-.126l9.88 5.722c.78.451.681 1.239-.219 1.761l-6.62 3.834c-.9.521-2.261.577-3.04.126zm25.333-33.88l-9.88-5.721c-.779-.452-.681-1.24.219-1.761l6.62-3.834c.9-.521 2.261-.578 3.04-.127l9.88 5.722c.779.451.682 1.24-.218 1.761l-6.62 3.834c-.9.521-2.262.578-3.041.126zm-13.972 8.092l-9.88-5.721c-.779-.452-.681-1.24.219-1.762l6.62-3.833c.9-.522 2.261-.578 3.04-.127l9.88 5.722c.78.451.682 1.24-.218 1.761l-6.62 3.834c-.9.521-2.262.578-3.041.126zm-13.972 8.092l-9.88-5.722c-.779-.451-.681-1.24.22-1.761l6.619-3.834c.9-.521 2.261-.577 3.04-.126l9.88 5.722c.78.451.682 1.24-.218 1.761l-6.62 3.834c-.9.521-2.261.577-3.04.126zm-13.972 8.092l-9.88-5.722c-.779-.451-.68-1.24.22-1.761l6.619-3.834c.9-.521 2.261-.578 3.04-.126l9.88 5.721c.78.452.682 1.24-.218 1.762l-6.62 3.833c-.9.522-2.261.578-3.04.127zm-30.555-1.513l-9.88-5.721c-.779-.452-.681-1.24.219-1.761l6.62-3.834c.9-.521 2.261-.578 3.04-.127l9.88 5.722c.78.451.682 1.24-.218 1.761l-6.62 3.834c-.9.521-2.262.578-3.041.126zm13.972-8.091l-9.88-5.722c-.779-.451-.681-1.24.219-1.761l6.62-3.834c.9-.521 2.261-.578 3.04-.126l9.88 5.721c.78.452.682 1.24-.218 1.761l-6.62 3.834c-.9.521-2.262.578-3.041.127zm13.972-8.092l-9.88-5.722c-.78-.451-.681-1.24.219-1.761l6.62-3.834c.9-.521 2.261-.578 3.04-.126l9.88 5.721c.78.452.682 1.24-.218 1.762l-6.62 3.833c-.9.522-2.262.578-3.041.127zm13.972-8.092l-9.88-5.722c-.78-.451-.681-1.239.219-1.761l6.62-3.834c.9-.521 2.261-.577 3.04-.126l9.88 5.722c.78.451.681 1.24-.219 1.761l-6.62 3.834c-.9.521-2.26.578-3.04.126z" fill="#4282B8"/><path opacity=".05" d="M83.662 158.489c-4.082 0-7.928-.926-10.83-2.607-3.003-1.739-4.657-4.087-4.657-6.611 0-2.523 1.654-4.871 4.657-6.61 2.902-1.681 6.748-2.607 10.829-2.607s7.927.926 10.83 2.607c3.003 1.739 4.657 4.087 4.657 6.611s-1.654 4.871-4.657 6.611c-2.902 1.68-6.748 2.606-10.83 2.606zm23.879-13.736c-4.081 0-7.927-.926-10.83-2.607-3.003-1.739-4.657-4.087-4.657-6.611s1.654-4.871 4.657-6.611c2.902-1.68 6.748-2.606 10.829-2.606 4.082 0 7.928.926 10.83 2.606 3.003 1.74 4.657 4.088 4.657 6.612 0 2.523-1.654 4.871-4.657 6.61-2.902 1.681-6.747 2.607-10.829 2.607z" fill="#000"/><path d="M92.641 132.222v2.701a5.318 5.318 0 00.521 2.284c.316.677.777 1.336 1.383 1.962.398.411.858.808 1.382 1.185.334.24.692.473 1.077.696.099.057.206.105.306.16.527.289 1.081.551 1.659.787.537.22 1.087.424 1.659.598.715.217 1.457.389 2.212.534.726.14 1.464.247 2.212.32.824.081 1.656.129 2.489.129s1.665-.048 2.489-.129c.748-.073 1.486-.18 2.212-.32a22.028 22.028 0 002.212-.534 19.134 19.134 0 001.659-.598 16.226 16.226 0 001.659-.787c.1-.055.207-.103.305-.16.385-.223.743-.456 1.078-.696a10.25 10.25 0 001.382-1.186c.606-.625 1.067-1.283 1.383-1.96a5.345 5.345 0 00.522-2.265v-2.76c.004-2.212-1.451-4.424-4.364-6.111-5.819-3.37-15.254-3.37-21.073 0-2.931 1.697-4.385 3.926-4.364 6.15zm10.199 8.141zm-5.53-1.918z" fill="#FFC444"/><path opacity=".1" d="M117.772 138.444v2.766c-.527.289-1.082.551-1.659.787v-2.766a16.017 16.017 0 001.659-.787zm-7.742 2.237v2.768c-.824.081-1.656.129-2.489.129v-2.774c.833 0 1.665-.043 2.489-.123zm4.424-.86v2.774c-.715.216-1.457.389-2.212.534v-2.766a21.774 21.774 0 002.212-.542zm6.083-3.422v2.769a10.2 10.2 0 01-1.383 1.186v-2.773c.524-.376.985-.771 1.383-1.182zm1.905-4.216v2.76a5.33 5.33 0 01-.522 2.265v-2.765c.346-.739.52-1.499.522-2.26zm-17.39 8.498v2.768a23.985 23.985 0 01-2.212-.32v-2.766c.725.139 1.465.245 2.212.318zM94.545 136.4v2.769c-.606-.626-1.067-1.285-1.383-1.962v-2.763c.317.675.778 1.332 1.383 1.956zm2.459 1.876c.1.058.204.113.306.169v2.765c-.1-.055-.208-.103-.306-.16a13.083 13.083 0 01-1.077-.696v-2.773c.334.24.692.473 1.077.695zm3.624 1.545v2.774a18.833 18.833 0 01-1.66-.598v-2.765c.537.218 1.09.416 1.66.589z" fill="#000"/><path opacity=".2" d="M107.541 140.804c8.229 0 14.901-3.864 14.901-8.63 0-4.766-6.672-8.63-14.901-8.63-8.23 0-14.9 3.864-14.9 8.63 0 4.766 6.67 8.63 14.9 8.63z" fill="#fff"/><path opacity=".05" d="M97.59 137.259c-2.437-1.411-3.779-3.217-3.779-5.085 0-1.867 1.342-3.673 3.78-5.084 2.638-1.529 6.173-2.371 9.95-2.371 3.778 0 7.312.842 9.951 2.37 2.436 1.412 3.778 3.217 3.778 5.085 0 1.868-1.342 3.673-3.779 5.085-2.639 1.528-6.173 2.37-9.951 2.37-3.777 0-7.311-.842-9.95-2.37zm.234-9.762c-2.285 1.323-3.544 2.985-3.544 4.677 0 1.693 1.259 3.354 3.544 4.678 2.569 1.488 6.02 2.307 9.716 2.307 3.697 0 7.148-.82 9.717-2.307 2.286-1.324 3.545-2.985 3.545-4.678s-1.259-3.354-3.544-4.678c-2.569-1.487-6.02-2.307-9.717-2.307-3.697 0-7.147.82-9.716 2.308z" fill="#000"/><path d="M92.641 129.448v2.702a5.317 5.317 0 00.521 2.283c.316.678.777 1.337 1.383 1.962.398.411.858.808 1.382 1.185.334.241.692.473 1.077.696.099.057.206.105.306.16.527.289 1.081.551 1.659.787.537.22 1.087.424 1.659.598a24.331 24.331 0 004.424.855c.824.08 1.656.128 2.489.128a25.781 25.781 0 004.701-.449 21.759 21.759 0 002.212-.534 18.808 18.808 0 003.318-1.385c.1-.055.207-.103.305-.16.385-.223.743-.456 1.078-.696.524-.377.983-.774 1.382-1.185.606-.625 1.067-1.284 1.383-1.961a5.345 5.345 0 00.522-2.265v-2.76c.004-2.211-1.451-4.424-4.364-6.111-5.819-3.37-15.254-3.37-21.073 0-2.931 1.697-4.385 3.926-4.364 6.15zm10.199 8.141zm-5.53-1.918z" fill="#FFC444"/><path d="M98.969 136.458v2.765a16.217 16.217 0 01-1.66-.787v-2.765m10.232 2.359v2.774c-.833 0-1.665-.048-2.489-.128v-2.769m7.19-.318v2.766c-.726.14-1.464.248-2.212.321v-2.769a24.329 24.329 0 002.212-.318zm-19.08-5.919v2.763a5.317 5.317 0 01-.52-2.283v-2.702a5.33 5.33 0 00.52 2.222zm2.765 3.138v2.772a10.204 10.204 0 01-1.382-1.185v-2.769c.398.41.859.806 1.382 1.182zm20.186 1.65v2.765c-.537.22-1.087.424-1.659.598v-2.774c.57-.173 1.123-.371 1.659-.589zm-13.273 1.131v2.767a21.76 21.76 0 01-2.212-.535v-2.773c.716.217 1.456.396 2.212.541zm15.237-2.087c.385-.222.744-.455 1.078-.695l-.001 2.773c-.334.24-.692.473-1.077.696-.098.057-.205.105-.305.16v-2.766c.102-.055.205-.11.305-.168zm3.843-3.833v2.765c-.316.677-.777 1.336-1.383 1.961v-2.769c.605-.624 1.066-1.281 1.383-1.957z" opacity=".1" fill="#000"/><path opacity=".2" d="M107.541 138.03c8.229 0 14.901-3.864 14.901-8.63 0-4.766-6.672-8.629-14.901-8.629-8.23 0-14.9 3.863-14.9 8.629s6.67 8.63 14.9 8.63z" fill="#fff"/><path opacity=".05" d="M97.59 134.485c-2.437-1.411-3.779-3.217-3.779-5.084 0-1.868 1.342-3.674 3.78-5.085 2.638-1.529 6.173-2.371 9.95-2.371 3.778 0 7.312.842 9.951 2.371 2.436 1.411 3.778 3.216 3.778 5.084 0 1.868-1.342 3.674-3.778 5.085-2.64 1.528-6.174 2.37-9.952 2.37-3.777 0-7.311-.842-9.95-2.37zm.234-9.762c-2.285 1.324-3.544 2.985-3.544 4.678 0 1.692 1.259 3.353 3.544 4.677 2.569 1.488 6.02 2.307 9.716 2.307 3.697 0 7.148-.819 9.717-2.307 2.286-1.324 3.545-2.985 3.545-4.678s-1.259-3.354-3.544-4.677c-2.569-1.488-6.02-2.307-9.717-2.307-3.697 0-7.147.819-9.716 2.307z" fill="#000"/><path d="M92.641 126.675v2.701a5.317 5.317 0 00.521 2.283c.316.678.777 1.337 1.383 1.962.398.412.858.809 1.382 1.186.334.24.692.473 1.077.696.099.056.206.104.306.159.527.29 1.081.552 1.659.788.537.219 1.087.424 1.659.597a24.331 24.331 0 004.424.855c.824.08 1.656.128 2.489.128a25.781 25.781 0 004.701-.448 21.76 21.76 0 002.212-.535 18.808 18.808 0 003.318-1.385c.1-.055.207-.103.305-.16.385-.223.743-.456 1.078-.696.524-.377.983-.774 1.382-1.185.606-.625 1.067-1.284 1.383-1.961a5.342 5.342 0 00.522-2.265v-2.76c.004-2.211-1.451-4.423-4.364-6.111-5.819-3.37-15.254-3.37-21.073 0-2.931 1.698-4.385 3.926-4.364 6.151zm10.199 8.14zm-5.53-1.918z" fill="#FFC444"/><path opacity=".1" d="M117.772 132.897v2.765c-.527.289-1.082.551-1.659.787v-2.765a16.226 16.226 0 001.659-.787zm-7.742 2.236v2.769c-.824.08-1.656.128-2.489.128v-2.774c.833 0 1.665-.042 2.489-.123zm4.424-.859v2.773a21.76 21.76 0 01-2.212.535v-2.767a21.772 21.772 0 002.212-.541zm6.083-3.422v2.769c-.399.411-.858.808-1.383 1.185v-2.772c.524-.376.985-.772 1.383-1.182zm1.905-4.217v2.76a5.33 5.33 0 01-.522 2.265v-2.764c.346-.739.52-1.5.522-2.261zm-17.39 8.498v2.769a24.331 24.331 0 01-2.212-.32v-2.767c.725.14 1.465.245 2.212.318zm-10.507-4.281v2.769c-.606-.625-1.067-1.284-1.383-1.962v-2.763c.317.676.778 1.333 1.383 1.956zm2.459 1.877c.1.058.204.112.306.168v2.765c-.1-.055-.208-.103-.306-.159a13.083 13.083 0 01-1.077-.696v-2.773c.334.24.692.472 1.077.695zm3.624 1.545v2.773a18.83 18.83 0 01-1.66-.597v-2.766c.537.219 1.09.417 1.66.59z" fill="#000"/><path opacity=".2" d="M107.541 135.256c8.229 0 14.901-3.863 14.901-8.629 0-4.767-6.672-8.63-14.901-8.63-8.23 0-14.9 3.863-14.9 8.63 0 4.766 6.67 8.629 14.9 8.629z" fill="#fff"/><path opacity=".05" d="M97.59 131.711c-2.437-1.411-3.779-3.217-3.779-5.084 0-1.868 1.342-3.674 3.78-5.085 2.638-1.528 6.173-2.37 9.95-2.37 3.778 0 7.312.841 9.951 2.37 2.436 1.411 3.778 3.217 3.778 5.084 0 1.868-1.342 3.674-3.779 5.085-2.639 1.529-6.173 2.37-9.951 2.37-3.777 0-7.311-.841-9.95-2.37zm.234-9.762c-2.285 1.324-3.544 2.985-3.544 4.678 0 1.692 1.259 3.353 3.544 4.677 2.569 1.488 6.02 2.307 9.716 2.307 3.697 0 7.148-.819 9.717-2.307 2.286-1.324 3.545-2.985 3.545-4.678 0-1.692-1.259-3.354-3.544-4.677-2.569-1.488-6.02-2.307-9.717-2.307-3.697 0-7.147.819-9.716 2.307z" fill="#000"/><path d="M92.641 123.901v2.701a5.318 5.318 0 00.521 2.284c.316.677.777 1.336 1.383 1.961.398.412.858.809 1.382 1.186.334.24.692.473 1.077.696.099.057.206.105.306.16.527.289 1.081.551 1.659.787.537.219 1.087.424 1.659.598a24.331 24.331 0 004.424.854c.824.081 1.656.128 2.489.128a25.465 25.465 0 004.701-.448 21.76 21.76 0 002.212-.535 18.493 18.493 0 001.659-.598 16.017 16.017 0 001.659-.787c.1-.055.207-.103.305-.159a13 13 0 001.078-.697c.524-.376.983-.774 1.382-1.185.606-.625 1.067-1.284 1.383-1.961.345-.74.522-1.502.522-2.264v-2.76c.004-2.212-1.451-4.424-4.364-6.112-5.819-3.37-15.254-3.37-21.073.001-2.931 1.697-4.385 3.925-4.364 6.15zm10.199 8.141zm-5.53-1.919z" fill="#FFC444"/><path d="M98.969 130.91v2.766a16.217 16.217 0 01-1.66-.787v-2.766m10.232 2.359v2.774c-.833 0-1.665-.047-2.489-.128v-2.768m7.19-.319v2.767c-.726.139-1.464.247-2.212.32v-2.769a23.983 23.983 0 002.212-.318zm-19.08-5.919v2.764a5.318 5.318 0 01-.52-2.284v-2.701c.006.748.18 1.495.52 2.221zm2.765 3.138v2.773a10.208 10.208 0 01-1.382-1.186v-2.769c.398.411.859.806 1.382 1.182zm20.186 1.65v2.765c-.537.22-1.087.425-1.659.598V131.5c.57-.173 1.123-.371 1.659-.59zm-13.273 1.132v2.766a22.028 22.028 0 01-2.212-.534V131.5c.716.217 1.456.396 2.212.542zm15.237-2.087c.385-.223.744-.455 1.078-.695l-.001 2.772a13.07 13.07 0 01-1.077.697c-.098.056-.205.104-.305.159v-2.765c.102-.056.205-.11.305-.168zm3.843-3.833v2.764c-.316.677-.777 1.336-1.383 1.961v-2.769a7.253 7.253 0 001.383-1.956z" opacity=".1" fill="#000"/><path opacity=".2" d="M107.541 132.483c8.229 0 14.901-3.864 14.901-8.63 0-4.766-6.672-8.63-14.901-8.63-8.23 0-14.9 3.864-14.9 8.63 0 4.766 6.67 8.63 14.9 8.63z" fill="#fff"/><path opacity=".05" d="M97.59 128.937c-2.437-1.411-3.779-3.217-3.779-5.084 0-1.868 1.342-3.674 3.78-5.085 2.638-1.528 6.173-2.37 9.95-2.37 3.778 0 7.312.842 9.951 2.37 2.436 1.411 3.778 3.217 3.778 5.085 0 1.867-1.342 3.673-3.778 5.084-2.64 1.529-6.174 2.371-9.952 2.371-3.777 0-7.311-.842-9.95-2.371zm.234-9.762c-2.285 1.324-3.544 2.985-3.544 4.678 0 1.692 1.259 3.354 3.544 4.677 2.569 1.488 6.02 2.307 9.716 2.307 3.697 0 7.148-.819 9.717-2.307 2.286-1.324 3.545-2.985 3.545-4.678 0-1.692-1.259-3.353-3.544-4.677-2.569-1.488-6.02-2.307-9.717-2.307-3.697 0-7.147.819-9.716 2.307z" fill="#000"/><path d="M92.641 121.127v2.701a5.318 5.318 0 00.521 2.284c.316.677.777 1.336 1.383 1.961.398.412.858.809 1.382 1.186.334.24.692.473 1.077.696.099.057.206.105.306.16.527.289 1.081.551 1.659.787.537.22 1.087.424 1.659.598.715.217 1.457.389 2.212.534a25.465 25.465 0 004.701.448 25.465 25.465 0 004.701-.448 21.76 21.76 0 002.212-.535 18.804 18.804 0 001.659-.597 16.226 16.226 0 001.659-.787c.1-.055.207-.103.305-.16.385-.223.743-.456 1.078-.696a10.25 10.25 0 001.382-1.186c.606-.625 1.067-1.283 1.383-1.961.345-.74.522-1.502.522-2.264v-2.76c.004-2.212-1.451-4.424-4.364-6.111-5.819-3.37-15.254-3.37-21.073 0-2.931 1.697-4.385 3.926-4.364 6.15zm10.199 8.141zm-5.53-1.919z" fill="#FFC444"/><path opacity=".1" d="M117.772 127.349v2.766c-.527.289-1.082.551-1.659.787v-2.766a16.226 16.226 0 001.659-.787zm-7.742 2.237v2.768c-.824.081-1.656.129-2.489.129v-2.774c.833 0 1.665-.043 2.489-.123zm4.424-.86v2.773a21.76 21.76 0 01-2.212.535v-2.766a22.044 22.044 0 002.212-.542zm6.083-3.422v2.769a10.2 10.2 0 01-1.383 1.186v-2.773c.524-.376.985-.771 1.383-1.182zm1.905-4.216v2.76a5.33 5.33 0 01-.522 2.265v-2.765c.346-.739.52-1.5.522-2.26zm-17.39 8.498v2.768a23.985 23.985 0 01-2.212-.32v-2.766c.725.139 1.465.245 2.212.318zm-10.507-4.281v2.769c-.606-.626-1.067-1.285-1.383-1.962v-2.763c.317.675.778 1.332 1.383 1.956zm2.459 1.876c.1.058.204.113.306.168v2.766c-.1-.055-.208-.103-.306-.16a13.083 13.083 0 01-1.077-.696v-2.773c.334.24.692.472 1.077.695zm3.624 1.545v2.774a18.833 18.833 0 01-1.66-.598v-2.765c.537.218 1.09.416 1.66.589z" fill="#000"/><path opacity=".2" d="M107.541 129.709c8.229 0 14.901-3.864 14.901-8.63 0-4.766-6.672-8.63-14.901-8.63-8.23 0-14.9 3.864-14.9 8.63 0 4.766 6.67 8.63 14.9 8.63z" fill="#fff"/><path opacity=".05" d="M97.59 126.164c-2.437-1.412-3.779-3.217-3.779-5.085 0-1.867 1.342-3.673 3.78-5.085 2.638-1.528 6.173-2.37 9.95-2.37 3.778 0 7.312.842 9.951 2.37 2.436 1.411 3.778 3.217 3.778 5.085 0 1.867-1.342 3.673-3.779 5.084-2.639 1.529-6.173 2.371-9.951 2.371-3.777 0-7.311-.842-9.95-2.37zm.234-9.763c-2.285 1.324-3.544 2.985-3.544 4.678s1.259 3.354 3.544 4.678c2.569 1.487 6.02 2.307 9.716 2.307 3.697 0 7.148-.82 9.717-2.308 2.286-1.323 3.545-2.985 3.545-4.677 0-1.693-1.259-3.354-3.544-4.678-2.569-1.487-6.02-2.307-9.717-2.307-3.697 0-7.147.82-9.716 2.307z" fill="#000"/><path d="M92.641 118.353v2.702a5.317 5.317 0 00.521 2.283c.316.677.777 1.337 1.383 1.962.398.411.858.808 1.382 1.185.334.241.692.473 1.077.696.099.057.206.105.306.16.527.289 1.081.551 1.659.787.537.22 1.087.424 1.659.598.715.217 1.457.389 2.212.534a25.781 25.781 0 004.701.449 25.781 25.781 0 004.701-.449 21.759 21.759 0 002.212-.534 18.808 18.808 0 003.318-1.385c.1-.055.207-.103.305-.16.385-.223.743-.456 1.078-.696a10.25 10.25 0 001.382-1.186c.606-.624 1.067-1.283 1.383-1.96a5.345 5.345 0 00.522-2.265v-2.76c.004-2.211-1.451-4.424-4.364-6.111-5.819-3.37-15.254-3.37-21.073 0-2.931 1.697-4.385 3.926-4.364 6.15zm10.199 8.141zm-5.53-1.918z" fill="#FFC444"/><path d="M98.969 125.363v2.765a16.217 16.217 0 01-1.66-.787v-2.765m10.232 2.359v2.774c-.833 0-1.665-.048-2.489-.128v-2.769m7.19-.318v2.766c-.726.14-1.464.247-2.212.321v-2.769a24.329 24.329 0 002.212-.318zm-19.08-5.919v2.763a5.317 5.317 0 01-.52-2.283v-2.702a5.33 5.33 0 00.52 2.222zm2.765 3.138v2.772a10.275 10.275 0 01-1.382-1.185v-2.769c.398.41.859.806 1.382 1.182zm20.186 1.649v2.766c-.537.22-1.087.424-1.659.598v-2.774c.57-.173 1.123-.371 1.659-.59zm-13.273 1.132v2.767a22.03 22.03 0 01-2.212-.535v-2.773c.716.217 1.456.396 2.212.541zm15.237-2.087c.385-.223.744-.455 1.078-.695l-.001 2.773c-.334.24-.692.473-1.077.696-.098.057-.205.105-.305.16v-2.766c.102-.056.205-.11.305-.168zm3.843-3.833v2.765c-.316.677-.777 1.336-1.383 1.96v-2.769c.605-.623 1.066-1.28 1.383-1.956z" opacity=".1" fill="#000"/><path opacity=".2" d="M107.541 126.935c8.229 0 14.901-3.864 14.901-8.63 0-4.766-6.672-8.63-14.901-8.63-8.23 0-14.9 3.864-14.9 8.63 0 4.766 6.67 8.63 14.9 8.63z" fill="#fff"/><path opacity=".05" d="M97.59 123.39c-2.437-1.411-3.779-3.217-3.779-5.085 0-1.867 1.342-3.673 3.78-5.084 2.638-1.529 6.173-2.371 9.95-2.371 3.778 0 7.312.842 9.951 2.37 2.436 1.412 3.778 3.217 3.778 5.085 0 1.868-1.342 3.673-3.778 5.085-2.64 1.528-6.174 2.37-9.952 2.37-3.777 0-7.311-.842-9.95-2.37zm.234-9.762c-2.285 1.324-3.544 2.985-3.544 4.677 0 1.693 1.259 3.354 3.544 4.678 2.569 1.488 6.02 2.307 9.716 2.307 3.697 0 7.148-.819 9.717-2.307 2.286-1.324 3.545-2.985 3.545-4.678s-1.259-3.354-3.544-4.678c-2.569-1.487-6.02-2.307-9.717-2.307-3.697 0-7.147.82-9.716 2.308z" fill="#000"/><path d="M92.641 115.58v2.701a5.317 5.317 0 00.521 2.283c.316.678.777 1.337 1.383 1.962.398.412.858.809 1.382 1.186.334.24.692.472 1.077.695.099.057.206.105.306.16.527.29 1.081.551 1.659.788.537.219 1.087.424 1.659.597a24.331 24.331 0 004.424.855c.824.08 1.656.128 2.489.128a25.781 25.781 0 004.701-.449 21.759 21.759 0 002.212-.534 18.808 18.808 0 003.318-1.385c.1-.055.207-.103.305-.16.385-.223.743-.456 1.078-.696.524-.377.983-.774 1.382-1.185.606-.625 1.067-1.284 1.383-1.961a5.345 5.345 0 00.522-2.265v-2.76c.004-2.211-1.451-4.423-4.364-6.111-5.819-3.37-15.254-3.37-21.073 0-2.931 1.698-4.385 3.926-4.364 6.151zm10.199 8.14zm-5.53-1.918z" fill="#FFC444"/><path opacity=".1" d="M117.772 121.802v2.765c-.527.289-1.082.551-1.659.787v-2.765a16.44 16.44 0 001.659-.787zm-7.742 2.236v2.769c-.824.08-1.656.128-2.489.128v-2.774c.833 0 1.665-.043 2.489-.123zm4.424-.859v2.773a22.03 22.03 0 01-2.212.535v-2.767a21.772 21.772 0 002.212-.541zm6.083-3.422v2.769c-.399.411-.858.808-1.383 1.185v-2.773a10.25 10.25 0 001.383-1.181zm1.905-4.217v2.76a5.33 5.33 0 01-.522 2.265V117.8c.346-.739.52-1.499.522-2.26zm-17.39 8.498v2.769a24.331 24.331 0 01-2.212-.32v-2.767c.725.139 1.465.245 2.212.318zm-10.507-4.281v2.769c-.606-.625-1.067-1.284-1.383-1.962v-2.763a7.253 7.253 0 001.383 1.956zm2.459 1.877c.1.058.204.112.306.168v2.765c-.1-.055-.208-.103-.306-.16a13.079 13.079 0 01-1.077-.695v-2.773c.334.24.692.472 1.077.695zm3.624 1.545v2.773a18.83 18.83 0 01-1.66-.597v-2.766c.537.219 1.09.417 1.66.59z" fill="#000"/><path opacity=".2" d="M107.541 124.161c8.229 0 14.901-3.863 14.901-8.63 0-4.766-6.672-8.629-14.901-8.629-8.23 0-14.9 3.863-14.9 8.629 0 4.767 6.67 8.63 14.9 8.63z" fill="#fff"/><path opacity=".05" d="M97.59 120.616c-2.437-1.411-3.779-3.217-3.779-5.084 0-1.868 1.342-3.674 3.78-5.085 2.638-1.529 6.173-2.37 9.95-2.37 3.778 0 7.312.841 9.951 2.37 2.436 1.411 3.778 3.217 3.778 5.084 0 1.868-1.342 3.674-3.779 5.085-2.639 1.528-6.173 2.37-9.951 2.37-3.777 0-7.311-.841-9.95-2.37zm.234-9.762c-2.285 1.324-3.544 2.985-3.544 4.678 0 1.692 1.259 3.353 3.544 4.677 2.569 1.488 6.02 2.307 9.716 2.307 3.697 0 7.148-.819 9.717-2.307 2.286-1.324 3.545-2.985 3.545-4.678s-1.259-3.354-3.544-4.677c-2.569-1.488-6.02-2.307-9.717-2.307-3.697 0-7.147.819-9.716 2.307z" fill="#000"/><path d="M92.641 112.806v2.701a5.313 5.313 0 00.521 2.283c.316.678.777 1.337 1.383 1.962.398.412.858.809 1.382 1.186.334.24.692.473 1.077.696.099.057.206.105.306.16.527.289 1.081.551 1.659.787.537.219 1.087.424 1.659.597a24.331 24.331 0 004.424.855c.824.081 1.656.128 2.489.128a25.781 25.781 0 004.701-.448 21.76 21.76 0 002.212-.535 18.493 18.493 0 001.659-.598 16.226 16.226 0 001.659-.787c.1-.055.207-.103.305-.16.385-.223.743-.455 1.078-.696.524-.377.983-.774 1.382-1.185.606-.625 1.067-1.284 1.383-1.961a5.342 5.342 0 00.522-2.265v-2.759c.004-2.212-1.451-4.424-4.364-6.112-5.819-3.37-15.254-3.37-21.073.001-2.931 1.697-4.385 3.925-4.364 6.15zm10.199 8.14zm-5.53-1.918z" fill="#FFC444"/><path d="M98.969 119.815v2.766a16.217 16.217 0 01-1.66-.787v-2.766m10.232 2.359v2.774c-.833 0-1.665-.048-2.489-.128v-2.769m7.19-.318v2.767c-.726.139-1.464.247-2.212.32v-2.769a23.983 23.983 0 002.212-.318zm-19.08-5.919v2.763a5.313 5.313 0 01-.52-2.283v-2.701c.006.747.18 1.495.52 2.221zm2.765 3.138v2.773a10.208 10.208 0 01-1.382-1.186v-2.769c.398.411.859.806 1.382 1.182zm20.186 1.65v2.765c-.537.22-1.087.425-1.659.598v-2.773c.57-.173 1.123-.371 1.659-.59zm-13.273 1.131v2.767a21.76 21.76 0 01-2.212-.535v-2.773c.716.217 1.456.396 2.212.541zm15.237-2.086c.385-.223.744-.455 1.078-.695l-.001 2.772a12.81 12.81 0 01-1.077.696c-.098.057-.205.105-.305.16v-2.765c.102-.056.205-.11.305-.168zm3.843-3.833v2.764c-.316.677-.777 1.336-1.383 1.961v-2.769a7.253 7.253 0 001.383-1.956z" opacity=".1" fill="#000"/><path opacity=".2" d="M107.541 121.387c8.229 0 14.901-3.863 14.901-8.629s-6.672-8.63-14.901-8.63c-8.23 0-14.9 3.864-14.9 8.63 0 4.766 6.67 8.629 14.9 8.629z" fill="#fff"/><path opacity=".05" d="M97.59 117.842c-2.437-1.411-3.779-3.217-3.779-5.084 0-1.868 1.342-3.674 3.78-5.085 2.638-1.528 6.173-2.37 9.95-2.37 3.778 0 7.312.842 9.951 2.37 2.436 1.411 3.778 3.217 3.778 5.084 0 1.868-1.342 3.674-3.778 5.085-2.64 1.529-6.174 2.37-9.952 2.37-3.777 0-7.311-.841-9.95-2.37zm.234-9.762c-2.285 1.324-3.544 2.985-3.544 4.678 0 1.692 1.259 3.354 3.544 4.677 2.569 1.488 6.02 2.307 9.716 2.307 3.697 0 7.148-.819 9.717-2.307 2.286-1.324 3.545-2.985 3.545-4.678 0-1.692-1.259-3.353-3.544-4.677-2.569-1.488-6.02-2.307-9.717-2.307-3.697 0-7.147.819-9.716 2.307z" fill="#000"/><path d="M92.641 110.032v2.701a5.318 5.318 0 00.521 2.284c.316.677.777 1.336 1.383 1.961.398.412.858.809 1.382 1.186.334.24.692.473 1.077.696.099.057.206.105.306.16.527.289 1.081.551 1.659.787.537.22 1.087.424 1.659.598.715.216 1.457.389 2.212.534a25.465 25.465 0 004.701.448 25.465 25.465 0 004.701-.448 21.76 21.76 0 002.212-.535 18.804 18.804 0 001.659-.597 16.022 16.022 0 001.659-.788c.1-.054.207-.103.305-.159.385-.223.743-.456 1.078-.696a10.25 10.25 0 001.382-1.186c.606-.625 1.067-1.283 1.383-1.961.345-.74.522-1.502.522-2.264v-2.76c.004-2.212-1.451-4.424-4.364-6.111-5.819-3.37-15.254-3.37-21.073 0-2.931 1.697-4.385 3.926-4.364 6.15zm10.199 8.141zm-5.53-1.919z" fill="#FFC444"/><path opacity=".1" d="M117.772 116.254v2.765c-.527.29-1.082.552-1.659.788v-2.766a16.226 16.226 0 001.659-.787zm-7.742 2.237v2.768c-.824.081-1.656.128-2.489.128v-2.773c.833 0 1.665-.043 2.489-.123zm4.424-.86v2.773a21.76 21.76 0 01-2.212.535v-2.767a21.772 21.772 0 002.212-.541zm6.083-3.422v2.769a10.2 10.2 0 01-1.383 1.186v-2.773c.524-.376.985-.772 1.383-1.182zm1.905-4.216v2.76c0 .762-.176 1.524-.522 2.264v-2.764c.346-.739.52-1.5.522-2.26zm-17.39 8.498v2.768a23.985 23.985 0 01-2.212-.32v-2.766c.725.139 1.465.245 2.212.318zm-10.507-4.281v2.768c-.606-.625-1.067-1.284-1.383-1.961v-2.764c.317.676.778 1.333 1.383 1.957zm2.459 1.876c.1.058.204.112.306.168v2.766c-.1-.055-.208-.103-.306-.16a13.083 13.083 0 01-1.077-.696v-2.773c.334.24.692.472 1.077.695zm3.624 1.545v2.774a18.833 18.833 0 01-1.66-.598v-2.766c.537.219 1.09.417 1.66.59z" fill="#000"/><path opacity=".2" d="M107.541 118.614c8.229 0 14.901-3.864 14.901-8.63 0-4.766-6.672-8.63-14.901-8.63-8.23 0-14.9 3.864-14.9 8.63 0 4.766 6.67 8.63 14.9 8.63z" fill="#fff"/><path opacity=".05" d="M97.59 115.069c-2.437-1.412-3.779-3.217-3.779-5.085 0-1.868 1.342-3.673 3.78-5.085 2.638-1.528 6.173-2.37 9.95-2.37 3.778 0 7.312.842 9.951 2.37 2.436 1.411 3.778 3.217 3.778 5.085 0 1.867-1.342 3.673-3.779 5.084-2.639 1.529-6.173 2.371-9.951 2.371-3.777 0-7.311-.842-9.95-2.37zm.234-9.763c-2.285 1.324-3.544 2.985-3.544 4.678s1.259 3.354 3.544 4.678c2.569 1.487 6.02 2.307 9.716 2.307 3.697 0 7.148-.82 9.717-2.308 2.286-1.323 3.545-2.985 3.545-4.677 0-1.693-1.259-3.354-3.544-4.678-2.569-1.488-6.02-2.307-9.717-2.307-3.697 0-7.147.819-9.716 2.307z" fill="#000"/><path d="M92.641 107.258v2.701a5.318 5.318 0 00.521 2.284c.316.677.777 1.336 1.383 1.962.398.411.858.808 1.382 1.185.334.24.692.473 1.077.696.099.057.206.105.306.16.527.289 1.081.551 1.659.787.537.22 1.087.424 1.659.598.715.217 1.457.389 2.212.534.726.14 1.464.248 2.212.32.824.081 1.656.129 2.489.129s1.665-.048 2.489-.129c.748-.073 1.486-.18 2.212-.32a22.028 22.028 0 002.212-.534 19.134 19.134 0 001.659-.598 16.226 16.226 0 001.659-.787c.1-.055.207-.103.305-.16.385-.223.743-.456 1.078-.696a10.25 10.25 0 001.382-1.186c.606-.624 1.067-1.283 1.383-1.96a5.345 5.345 0 00.522-2.265v-2.76c.004-2.212-1.451-4.424-4.364-6.111-5.819-3.37-15.254-3.37-21.073 0-2.931 1.697-4.385 3.926-4.364 6.15zm10.199 8.141zm-5.53-1.918z" fill="#FFC444"/><path d="M98.969 114.268v2.765a16.217 16.217 0 01-1.66-.787v-2.765m10.232 2.359v2.774c-.833 0-1.665-.048-2.489-.128v-2.769m7.19-.318v2.766c-.726.14-1.464.247-2.212.32v-2.768a24.329 24.329 0 002.212-.318zm-19.08-5.919v2.763a5.318 5.318 0 01-.52-2.284v-2.701a5.33 5.33 0 00.52 2.222zm2.765 3.138v2.772a10.275 10.275 0 01-1.382-1.185v-2.769c.398.41.859.806 1.382 1.182zm20.186 1.649v2.766c-.537.219-1.087.424-1.659.598v-2.774c.57-.173 1.123-.371 1.659-.59zm-13.273 1.132v2.766a21.759 21.759 0 01-2.212-.534v-2.774c.716.218 1.456.397 2.212.542zm15.237-2.087c.385-.223.744-.455 1.078-.695l-.001 2.773c-.334.24-.692.473-1.077.696-.098.057-.205.105-.305.16v-2.766c.102-.056.205-.11.305-.168zm3.843-3.833v2.765c-.316.677-.777 1.336-1.383 1.96v-2.769c.605-.623 1.066-1.28 1.383-1.956z" opacity=".1" fill="#000"/><path opacity=".2" d="M107.541 115.84c8.229 0 14.901-3.864 14.901-8.63 0-4.766-6.672-8.63-14.901-8.63-8.23 0-14.9 3.864-14.9 8.63 0 4.766 6.67 8.63 14.9 8.63z" fill="#fff"/><path opacity=".05" d="M97.59 112.295c-2.437-1.411-3.779-3.217-3.779-5.085 0-1.867 1.342-3.673 3.78-5.084 2.638-1.529 6.173-2.37 9.95-2.37 3.778 0 7.312.841 9.951 2.369 2.436 1.412 3.778 3.217 3.778 5.085 0 1.868-1.342 3.673-3.778 5.085-2.64 1.528-6.174 2.37-9.952 2.37-3.777 0-7.311-.842-9.95-2.37zm.234-9.762c-2.285 1.323-3.544 2.985-3.544 4.677 0 1.693 1.259 3.354 3.544 4.678 2.569 1.488 6.02 2.307 9.716 2.307 3.697 0 7.148-.82 9.717-2.307 2.286-1.324 3.545-2.985 3.545-4.678s-1.259-3.354-3.544-4.678c-2.569-1.487-6.02-2.307-9.717-2.307-3.697 0-7.147.82-9.716 2.308z" fill="#000"/><path d="M94.198 139.808c-5.82-3.37-15.254-3.37-21.073 0-2.914 1.687-4.368 3.9-4.364 6.111v2.76c0 .762.176 1.524.522 2.265.316.677.777 1.336 1.382 1.961.4.411.858.808 1.383 1.185.334.24.692.473 1.077.696.098.057.205.105.305.16.528.289 1.082.551 1.66.787.537.22 1.087.424 1.659.598a21.76 21.76 0 002.212.534 25.769 25.769 0 004.7.449 25.767 25.767 0 004.701-.448 21.764 21.764 0 002.212-.535 18.827 18.827 0 001.66-.597 16.222 16.222 0 001.659-.788c.1-.055.207-.103.305-.16.385-.223.743-.455 1.077-.695.525-.377.984-.775 1.383-1.186.605-.625 1.066-1.284 1.382-1.962a5.315 5.315 0 00.521-2.283v-2.701c.021-2.225-1.433-4.453-4.363-6.151zm-22.15 11.509zm16.314 2.782z" fill="#FFC444"/><path opacity=".1" d="M73.43 152.181v2.765c.528.289 1.082.551 1.66.787v-2.765a16.44 16.44 0 01-1.66-.787zm7.743 2.236v2.769c.824.08 1.655.128 2.488.128v-2.774c-.832 0-1.665-.043-2.488-.123zm-4.424-.86v2.774c.714.217 1.457.389 2.212.535v-2.767a21.503 21.503 0 01-2.212-.542zm-6.084-3.421v2.769c.4.411.858.808 1.383 1.185v-2.773a10.307 10.307 0 01-1.383-1.181zm-1.905-4.217v2.76c0 .762.177 1.524.523 2.265v-2.765a5.318 5.318 0 01-.522-2.26zm17.39 8.498v2.769a24.298 24.298 0 002.212-.32v-2.767a24.3 24.3 0 01-2.212.318zm10.508-4.281v2.769c.605-.625 1.066-1.284 1.382-1.962v-2.763c-.317.675-.778 1.333-1.382 1.956zm-2.46 1.877c-.1.058-.203.112-.305.168v2.765c.1-.055.207-.103.305-.16.385-.223.743-.455 1.077-.695v-2.773c-.334.24-.692.472-1.077.695zm-3.624 1.545v2.773a18.518 18.518 0 001.66-.598v-2.765c-.536.219-1.09.417-1.66.59z" fill="#000"/><path opacity=".2" d="M83.661 154.54c8.23 0 14.901-3.864 14.901-8.63 0-4.766-6.671-8.629-14.9-8.629-8.23 0-14.901 3.863-14.901 8.629s6.67 8.63 14.9 8.63z" fill="#fff"/><path opacity=".05" d="M83.662 153.365c-3.778 0-7.312-.842-9.951-2.37-2.437-1.411-3.78-3.217-3.78-5.085 0-1.867 1.343-3.673 3.78-5.084 2.638-1.529 6.172-2.37 9.95-2.37 3.778 0 7.312.841 9.951 2.37 2.437 1.411 3.779 3.217 3.779 5.085 0 1.867-1.342 3.673-3.779 5.084-2.639 1.528-6.172 2.37-9.95 2.37zm-.001-14.439c-3.697 0-7.147.819-9.716 2.307-2.286 1.323-3.544 2.985-3.544 4.677 0 1.693 1.258 3.354 3.544 4.678 2.57 1.488 6.02 2.307 9.717 2.307 3.697 0 7.147-.819 9.716-2.307 2.286-1.324 3.544-2.985 3.544-4.677 0-1.693-1.258-3.354-3.544-4.678-2.57-1.488-6.02-2.307-9.717-2.307z" fill="#000"/><path d="M94.198 137.035c-5.82-3.371-15.254-3.371-21.073-.001-2.914 1.688-4.368 3.9-4.364 6.111v2.76c0 .763.176 1.524.522 2.265.316.677.777 1.336 1.382 1.961.4.411.858.808 1.383 1.185.334.241.692.473 1.077.696.098.057.205.105.305.16.528.289 1.082.551 1.66.787.537.22 1.087.425 1.659.598a24.303 24.303 0 004.424.855c.824.08 1.655.128 2.489.128a25.767 25.767 0 004.7-.448 21.764 21.764 0 002.212-.535 18.827 18.827 0 001.66-.597 16.217 16.217 0 001.659-.787c.1-.055.207-.104.305-.16.385-.223.743-.456 1.077-.696a10.22 10.22 0 001.383-1.186c.605-.625 1.066-1.284 1.382-1.962a5.312 5.312 0 00.521-2.283v-2.701c.021-2.225-1.433-4.453-4.363-6.15zm-5.836 14.29zm5.53-1.918z" fill="#FFC444"/><path d="M92.233 150.194v2.766a16.217 16.217 0 001.66-.787v-2.766m-10.232 2.359v2.774c.834 0 1.665-.048 2.489-.128v-2.769m-7.19-.318v2.767a24.3 24.3 0 002.213.32v-2.769a24.303 24.303 0 01-2.212-.318zm19.08-5.919v2.763a5.312 5.312 0 00.521-2.283v-2.701a5.325 5.325 0 01-.52 2.221zm-2.765 3.138v2.773a10.2 10.2 0 001.383-1.186v-2.769c-.399.411-.86.806-1.383 1.182zm-20.185 1.65v2.765c.537.22 1.086.425 1.659.598v-2.773a18.836 18.836 0 01-1.66-.59zm13.272 1.131v2.767a21.758 21.758 0 002.212-.535v-2.773c-.715.217-1.456.396-2.212.541zm-15.237-2.086a13.087 13.087 0 01-1.077-.695v2.772c.334.241.692.473 1.077.696.098.057.205.105.305.16v-2.765c-.102-.056-.205-.11-.305-.168zm-3.842-3.833v2.764c.316.677.776 1.336 1.382 1.961v-2.769c-.605-.623-1.066-1.281-1.382-1.956z" opacity=".1" fill="#000"/><path opacity=".2" d="M83.661 151.766c8.23 0 14.901-3.863 14.901-8.629s-6.671-8.63-14.9-8.63c-8.23 0-14.901 3.864-14.901 8.63 0 4.766 6.67 8.629 14.9 8.629z" fill="#fff"/><path opacity=".05" d="M83.662 150.591c-3.778 0-7.312-.841-9.951-2.37-2.437-1.411-3.78-3.217-3.78-5.085 0-1.867 1.343-3.673 3.78-5.084 2.638-1.528 6.172-2.37 9.95-2.37 3.778 0 7.312.842 9.951 2.37 2.437 1.411 3.779 3.217 3.779 5.085 0 1.867-1.342 3.673-3.779 5.084-2.639 1.529-6.172 2.37-9.95 2.37zm-.001-14.439c-3.697 0-7.147.819-9.716 2.307-2.286 1.324-3.544 2.985-3.544 4.677 0 1.693 1.258 3.354 3.544 4.678 2.57 1.488 6.02 2.307 9.717 2.307 3.697 0 7.147-.819 9.716-2.307 2.286-1.323 3.544-2.985 3.544-4.677 0-1.693-1.258-3.354-3.544-4.678-2.57-1.488-6.02-2.307-9.717-2.307z" fill="#000"/><path d="M94.198 134.261c-5.82-3.37-15.254-3.37-21.073 0-2.914 1.687-4.368 3.899-4.364 6.111v2.76c0 .762.176 1.524.522 2.264.316.678.777 1.336 1.382 1.961.4.412.858.809 1.383 1.186.334.24.692.473 1.077.696.098.056.205.105.305.159.528.29 1.082.552 1.66.788.537.219 1.087.424 1.659.597a24.303 24.303 0 004.424.855 25.45 25.45 0 002.489.128 25.45 25.45 0 004.7-.448 22.032 22.032 0 002.212-.534 18.831 18.831 0 003.319-1.385c.1-.055.207-.103.305-.16.385-.223.743-.456 1.077-.696a10.22 10.22 0 001.383-1.186c.605-.625 1.066-1.284 1.382-1.961a5.316 5.316 0 00.521-2.284v-2.701c.021-2.225-1.433-4.453-4.363-6.15zm-5.836 14.291z" fill="#FFC444"/><path opacity=".1" d="M73.43 146.633v2.765c.528.29 1.082.552 1.66.788v-2.766a16.226 16.226 0 01-1.66-.787zm7.743 2.237v2.768a25.45 25.45 0 002.488.128v-2.773c-.832 0-1.665-.043-2.488-.123zm-4.424-.86v2.773c.714.217 1.457.39 2.212.535v-2.767a21.763 21.763 0 01-2.212-.541zm-6.084-3.422v2.769c.4.412.858.809 1.383 1.186v-2.773a10.312 10.312 0 01-1.383-1.182zm-1.905-4.216v2.76c0 .762.177 1.524.523 2.264v-2.764a5.322 5.322 0 01-.522-2.26zm17.39 8.498v2.768c.748-.073 1.486-.18 2.212-.32v-2.766a24.3 24.3 0 01-2.212.318zm10.508-4.282v2.769c.605-.625 1.066-1.284 1.382-1.961v-2.764c-.317.676-.778 1.333-1.382 1.956zm-2.46 1.877c-.1.058-.203.112-.305.168v2.766c.1-.055.207-.103.305-.16.385-.223.743-.456 1.077-.696v-2.773c-.334.24-.692.472-1.077.695zm-3.624 1.545v2.774a18.833 18.833 0 001.66-.598v-2.766c-.536.219-1.09.417-1.66.59z" fill="#000"/><path opacity=".2" d="M83.661 148.993c8.23 0 14.901-3.864 14.901-8.63 0-4.766-6.671-8.63-14.9-8.63-8.23 0-14.901 3.864-14.901 8.63 0 4.766 6.67 8.63 14.9 8.63z" fill="#fff"/><path opacity=".05" d="M83.662 147.818c-3.778 0-7.312-.842-9.951-2.371-2.437-1.411-3.78-3.217-3.78-5.084 0-1.868 1.343-3.674 3.78-5.085 2.638-1.528 6.172-2.37 9.95-2.37 3.778 0 7.312.842 9.951 2.37 2.437 1.412 3.779 3.217 3.779 5.085 0 1.868-1.342 3.673-3.779 5.085-2.639 1.528-6.172 2.37-9.95 2.37zm-.001-14.44c-3.697 0-7.147.819-9.716 2.307-2.286 1.324-3.544 2.985-3.544 4.678 0 1.692 1.258 3.354 3.544 4.677 2.57 1.488 6.02 2.308 9.717 2.308 3.697 0 7.147-.82 9.716-2.307 2.286-1.324 3.544-2.985 3.544-4.678s-1.258-3.354-3.544-4.678c-2.57-1.488-6.02-2.307-9.717-2.307z" fill="#000"/><path d="M94.198 131.487c-5.82-3.37-15.254-3.37-21.073 0-2.914 1.687-4.368 3.899-4.364 6.111v2.76c0 .762.176 1.524.522 2.265.316.677.777 1.336 1.382 1.96.4.412.858.809 1.383 1.186.334.24.692.473 1.077.696.098.057.205.105.305.16.528.289 1.082.551 1.66.787.537.219 1.087.424 1.659.598a22.03 22.03 0 002.212.534c.725.14 1.463.247 2.212.32a25.45 25.45 0 002.489.129 25.767 25.767 0 004.7-.449 21.763 21.763 0 002.212-.534 18.831 18.831 0 003.319-1.385c.1-.055.207-.103.305-.16.385-.223.743-.456 1.077-.696.525-.377.984-.774 1.383-1.185.605-.626 1.066-1.285 1.382-1.962a5.315 5.315 0 00.521-2.283v-2.702c.021-2.224-1.433-4.453-4.363-6.15zm-5.836 14.291zm5.53-1.918z" fill="#FFC444"/><path d="M92.233 144.647v2.765a16.217 16.217 0 001.66-.787v-2.765m-10.232 2.359v2.774c.834 0 1.665-.048 2.489-.129v-2.768m-7.19-.318v2.766c.726.14 1.464.247 2.213.32v-2.768a24.303 24.303 0 01-2.212-.318zm19.08-5.919v2.763a5.316 5.316 0 00.521-2.284v-2.701a5.33 5.33 0 01-.52 2.222zm-2.765 3.137v2.773c.525-.377.984-.774 1.383-1.185v-2.769c-.399.41-.86.805-1.383 1.181zm-20.185 1.65v2.766a19.16 19.16 0 001.659.598v-2.774a18.836 18.836 0 01-1.66-.59zm13.272 1.132v2.766a21.756 21.756 0 002.212-.534v-2.774c-.715.218-1.456.397-2.212.542zm-15.237-2.087a13.087 13.087 0 01-1.077-.695v2.773c.334.24.692.473 1.077.696.098.057.205.105.305.16v-2.766c-.102-.056-.205-.11-.305-.168zm-3.842-3.833v2.765c.316.677.776 1.335 1.382 1.96v-2.769c-.605-.623-1.066-1.28-1.382-1.956z" opacity=".1" fill="#000"/><path opacity=".2" d="M83.661 146.219c8.23 0 14.901-3.864 14.901-8.63 0-4.766-6.671-8.63-14.9-8.63-8.23 0-14.901 3.864-14.901 8.63 0 4.766 6.67 8.63 14.9 8.63z" fill="#fff"/><path opacity=".05" d="M83.662 145.044c-3.778 0-7.312-.842-9.951-2.37-2.437-1.412-3.78-3.217-3.78-5.085 0-1.868 1.343-3.674 3.78-5.085 2.638-1.528 6.172-2.37 9.95-2.37 3.778 0 7.312.842 9.951 2.371 2.437 1.411 3.779 3.217 3.779 5.084 0 1.868-1.342 3.674-3.779 5.085-2.639 1.528-6.172 2.37-9.95 2.37zm-.001-14.44c-3.697 0-7.147.82-9.716 2.307-2.286 1.324-3.544 2.985-3.544 4.678s1.258 3.354 3.544 4.678c2.57 1.487 6.02 2.307 9.717 2.307 3.697 0 7.147-.819 9.716-2.307 2.286-1.324 3.544-2.985 3.544-4.678 0-1.692-1.258-3.354-3.544-4.677-2.57-1.488-6.02-2.308-9.717-2.308z" fill="#000"/><path d="M94.198 128.713c-5.82-3.37-15.254-3.37-21.073 0-2.914 1.687-4.368 3.9-4.364 6.111v2.76c0 .762.176 1.524.522 2.265.316.677.777 1.336 1.382 1.961.4.411.858.808 1.383 1.185.334.24.692.473 1.077.696.098.057.205.105.305.16.528.289 1.082.551 1.66.787.537.22 1.087.424 1.659.598a21.76 21.76 0 002.212.534 25.769 25.769 0 004.7.449 25.767 25.767 0 004.701-.448 21.764 21.764 0 002.212-.535 18.831 18.831 0 003.319-1.385c.1-.055.207-.103.305-.16.385-.223.743-.455 1.077-.695.525-.377.984-.775 1.383-1.186.605-.625 1.066-1.284 1.382-1.962a5.315 5.315 0 00.521-2.283v-2.702c.021-2.224-1.433-4.452-4.363-6.15zm-5.836 14.291z" fill="#FFC444"/><path opacity=".1" d="M73.43 141.085v2.766c.528.289 1.082.551 1.66.787v-2.765a16.23 16.23 0 01-1.66-.788zm7.743 2.237v2.769c.824.08 1.655.128 2.488.128v-2.774c-.832 0-1.665-.043-2.488-.123zm-4.424-.86v2.774c.714.217 1.457.389 2.212.534v-2.766a21.503 21.503 0 01-2.212-.542zm-6.084-3.422v2.77c.4.411.858.808 1.383 1.185v-2.773a10.24 10.24 0 01-1.383-1.182zm-1.905-4.216v2.76c0 .762.177 1.524.523 2.265v-2.765a5.318 5.318 0 01-.522-2.26zm17.39 8.498v2.769a24.298 24.298 0 002.212-.32v-2.767a24.3 24.3 0 01-2.212.318zm10.508-4.281v2.769c.605-.625 1.066-1.284 1.382-1.962v-2.763c-.317.675-.778 1.333-1.382 1.956zm-2.46 1.877c-.1.057-.203.112-.305.168v2.765c.1-.055.207-.103.305-.16a12.81 12.81 0 001.077-.696v-2.772c-.334.24-.692.472-1.077.695zm-3.624 1.545v2.773a18.833 18.833 0 001.66-.598v-2.765c-.536.219-1.09.417-1.66.59z" fill="#000"/><path opacity=".2" d="M83.661 143.445c8.23 0 14.901-3.864 14.901-8.63 0-4.766-6.671-8.629-14.9-8.629-8.23 0-14.901 3.863-14.901 8.629s6.67 8.63 14.9 8.63z" fill="#fff"/><path opacity=".05" d="M83.662 142.27c-3.778 0-7.312-.842-9.951-2.37-2.437-1.411-3.78-3.217-3.78-5.085 0-1.867 1.343-3.673 3.78-5.084 2.638-1.529 6.172-2.37 9.95-2.37 3.778 0 7.312.841 9.951 2.37 2.437 1.411 3.779 3.217 3.779 5.085 0 1.867-1.342 3.673-3.779 5.084-2.639 1.528-6.172 2.37-9.95 2.37zm-.001-14.439c-3.697 0-7.147.819-9.716 2.307-2.286 1.323-3.544 2.985-3.544 4.677 0 1.693 1.258 3.354 3.544 4.678 2.57 1.488 6.02 2.307 9.717 2.307 3.697 0 7.147-.819 9.716-2.307 2.286-1.324 3.544-2.985 3.544-4.677 0-1.693-1.258-3.354-3.544-4.678-2.57-1.488-6.02-2.307-9.717-2.307z" fill="#000"/><path d="M94.198 125.939c-5.82-3.37-15.254-3.37-21.073 0-2.914 1.688-4.368 3.9-4.364 6.111v2.76c0 .763.176 1.524.522 2.265.316.677.777 1.336 1.382 1.961.4.411.858.808 1.383 1.185.334.241.692.473 1.077.696.098.057.205.105.305.16.528.289 1.082.551 1.66.787.537.22 1.087.424 1.659.598a24.303 24.303 0 004.424.855c.824.08 1.655.128 2.489.128a25.767 25.767 0 004.7-.448 21.764 21.764 0 002.212-.535 18.827 18.827 0 001.66-.597 16.014 16.014 0 001.659-.788c.1-.054.207-.103.305-.159.385-.223.743-.456 1.077-.696a10.22 10.22 0 001.383-1.186c.605-.625 1.066-1.284 1.382-1.962a5.312 5.312 0 00.521-2.283v-2.701c.021-2.225-1.433-4.453-4.363-6.151zm-5.836 14.291zm5.53-1.918z" fill="#FFC444"/><path d="M92.233 139.099v2.766a16.014 16.014 0 001.66-.788v-2.765m-10.232 2.359v2.774c.834 0 1.665-.048 2.489-.128v-2.769m-7.19-.318v2.767a24.3 24.3 0 002.213.32v-2.769a24.303 24.303 0 01-2.212-.318zm19.08-5.919v2.763a5.315 5.315 0 00.521-2.283v-2.701a5.325 5.325 0 01-.52 2.221zm-2.765 3.138v2.773a10.2 10.2 0 001.383-1.186v-2.769c-.399.411-.86.806-1.383 1.182zm-20.185 1.65v2.765c.537.22 1.086.424 1.659.598v-2.773a18.836 18.836 0 01-1.66-.59zm13.272 1.131v2.767a21.758 21.758 0 002.212-.535v-2.773c-.715.217-1.456.396-2.212.541zm-15.237-2.086a13.091 13.091 0 01-1.077-.696v2.773c.334.241.692.473 1.077.696.098.057.205.105.305.16v-2.765c-.102-.056-.205-.111-.305-.168zm-3.842-3.833v2.764c.316.677.776 1.336 1.382 1.961v-2.769c-.605-.624-1.066-1.281-1.382-1.956z" opacity=".1" fill="#000"/><path opacity=".2" d="M83.661 140.671c8.23 0 14.901-3.863 14.901-8.629 0-4.767-6.671-8.63-14.9-8.63-8.23 0-14.901 3.863-14.901 8.63 0 4.766 6.67 8.629 14.9 8.629z" fill="#fff"/><path opacity=".05" d="M83.662 139.496c-3.778 0-7.312-.841-9.951-2.37-2.437-1.411-3.78-3.217-3.78-5.085 0-1.867 1.343-3.673 3.78-5.084 2.638-1.529 6.172-2.37 9.95-2.37 3.778 0 7.312.842 9.951 2.37 2.437 1.411 3.779 3.217 3.779 5.085 0 1.867-1.342 3.673-3.779 5.084-2.639 1.529-6.172 2.37-9.95 2.37zm-.001-14.439c-3.697 0-7.147.819-9.716 2.307-2.286 1.323-3.544 2.985-3.544 4.677 0 1.693 1.258 3.354 3.544 4.678 2.57 1.488 6.02 2.307 9.717 2.307 3.697 0 7.147-.819 9.716-2.307 2.286-1.324 3.544-2.985 3.544-4.677 0-1.693-1.258-3.354-3.544-4.678-2.57-1.488-6.02-2.307-9.717-2.307z" fill="#000"/><path d="M94.198 123.166c-5.82-3.371-15.254-3.371-21.073-.001-2.914 1.688-4.368 3.9-4.364 6.112v2.76c0 .762.176 1.524.522 2.264.316.677.777 1.336 1.382 1.961.4.411.858.809 1.383 1.185.334.241.692.474 1.077.697.098.056.205.104.305.159.528.29 1.082.551 1.66.787.537.22 1.087.425 1.659.598a24.303 24.303 0 004.424.855 25.45 25.45 0 002.489.128 25.45 25.45 0 004.7-.448 22.032 22.032 0 002.212-.534 19.158 19.158 0 001.66-.598 16.217 16.217 0 001.659-.787c.1-.055.207-.103.305-.16.385-.223.743-.456 1.077-.696a10.22 10.22 0 001.383-1.186c.605-.625 1.066-1.284 1.382-1.961a5.316 5.316 0 00.521-2.284v-2.701c.021-2.225-1.433-4.453-4.363-6.15zm-5.836 14.291zm5.53-1.919z" fill="#FFC444"/><path opacity=".1" d="M73.43 135.538v2.765c.528.29 1.082.551 1.66.787v-2.765a16.226 16.226 0 01-1.66-.787zm7.743 2.236v2.769a25.45 25.45 0 002.488.128v-2.773a25.45 25.45 0 01-2.488-.124zm-4.424-.859v2.773c.714.217 1.457.39 2.212.535v-2.767a21.763 21.763 0 01-2.212-.541zm-6.084-3.422v2.769c.4.411.858.809 1.383 1.185v-2.772a10.312 10.312 0 01-1.383-1.182zm-1.905-4.216v2.759c0 .763.177 1.524.523 2.265v-2.764a5.322 5.322 0 01-.522-2.26zm17.39 8.498v2.768a24.298 24.298 0 002.212-.32v-2.766a24.3 24.3 0 01-2.212.318zm10.508-4.282v2.769c.605-.625 1.066-1.284 1.382-1.961v-2.764c-.317.676-.778 1.333-1.382 1.956zm-2.46 1.877c-.1.058-.203.112-.305.168v2.766c.1-.055.207-.103.305-.16.385-.223.743-.456 1.077-.696v-2.773c-.334.24-.692.472-1.077.695zm-3.624 1.545v2.774a19.16 19.16 0 001.66-.598v-2.766c-.536.219-1.09.417-1.66.59z" fill="#000"/><path opacity=".2" d="M83.661 137.898c8.23 0 14.901-3.864 14.901-8.63 0-4.766-6.671-8.63-14.9-8.63-8.23 0-14.901 3.864-14.901 8.63 0 4.766 6.67 8.63 14.9 8.63z" fill="#fff"/><path opacity=".05" d="M83.662 136.723c-3.778 0-7.312-.842-9.951-2.371-2.437-1.411-3.78-3.217-3.78-5.084 0-1.868 1.343-3.674 3.78-5.085 2.638-1.528 6.172-2.37 9.95-2.37 3.778 0 7.312.842 9.951 2.37 2.437 1.412 3.779 3.217 3.779 5.085 0 1.868-1.342 3.673-3.779 5.084-2.639 1.529-6.172 2.371-9.95 2.371zm-.001-14.44c-3.697 0-7.147.819-9.716 2.307-2.286 1.324-3.544 2.985-3.544 4.678 0 1.692 1.258 3.353 3.544 4.677 2.57 1.488 6.02 2.308 9.717 2.308 3.697 0 7.147-.82 9.716-2.308 2.286-1.323 3.544-2.984 3.544-4.677 0-1.693-1.258-3.354-3.544-4.678-2.57-1.488-6.02-2.307-9.717-2.307z" fill="#000"/><path d="M94.198 120.392c-5.82-3.37-15.254-3.37-21.073 0-2.914 1.687-4.368 3.899-4.364 6.111v2.76c0 .762.176 1.524.522 2.265.316.677.777 1.335 1.382 1.96.4.412.858.809 1.383 1.186.334.24.692.473 1.077.696.098.057.205.105.305.16.528.289 1.082.551 1.66.787.537.219 1.087.424 1.659.598a22.03 22.03 0 002.212.534c.725.14 1.463.247 2.212.32a25.45 25.45 0 002.489.129c.833 0 1.664-.048 2.488-.129.748-.073 1.486-.18 2.212-.32a21.763 21.763 0 002.212-.534 18.831 18.831 0 003.319-1.385c.1-.055.207-.103.305-.16.385-.223.743-.456 1.077-.696.525-.377.984-.774 1.383-1.185.605-.626 1.066-1.285 1.382-1.962a5.316 5.316 0 00.521-2.284v-2.701c.021-2.224-1.433-4.453-4.363-6.15zm-5.836 14.291z" fill="#FFC444"/><path d="M92.233 133.552v2.765a16.217 16.217 0 001.66-.787v-2.766m-10.232 2.36v2.773c.834 0 1.665-.047 2.489-.128v-2.768m-7.19-.318v2.766c.726.14 1.464.247 2.213.32v-2.768a24.303 24.303 0 01-2.212-.318zm19.08-5.919v2.763a5.316 5.316 0 00.521-2.284v-2.701a5.33 5.33 0 01-.52 2.222zm-2.765 3.137v2.773a10.2 10.2 0 001.383-1.186v-2.768c-.399.41-.86.805-1.383 1.181zm-20.185 1.65v2.766a19.16 19.16 0 001.659.598v-2.774a18.836 18.836 0 01-1.66-.59zm13.272 1.132v2.766a21.756 21.756 0 002.212-.534v-2.774a21.71 21.71 0 01-2.212.542zm-15.237-2.087a13.087 13.087 0 01-1.077-.695v2.773c.334.24.692.473 1.077.696.098.057.205.105.305.16v-2.766c-.102-.056-.205-.11-.305-.168zm-3.842-3.833v2.765c.316.677.776 1.335 1.382 1.96v-2.769c-.605-.623-1.066-1.281-1.382-1.956z" opacity=".1" fill="#000"/><path opacity=".2" d="M83.661 135.124c8.23 0 14.901-3.864 14.901-8.63 0-4.766-6.671-8.63-14.9-8.63-8.23 0-14.901 3.864-14.901 8.63 0 4.766 6.67 8.63 14.9 8.63z" fill="#fff"/><path opacity=".05" d="M83.662 133.949c-3.778 0-7.312-.842-9.951-2.371-2.437-1.411-3.78-3.217-3.78-5.084 0-1.868 1.343-3.674 3.78-5.085 2.638-1.528 6.172-2.37 9.95-2.37 3.778 0 7.312.842 9.951 2.37 2.437 1.412 3.779 3.218 3.779 5.085 0 1.868-1.342 3.673-3.779 5.085-2.639 1.528-6.172 2.37-9.95 2.37zm-.001-14.44c-3.697 0-7.147.82-9.716 2.307-2.286 1.324-3.544 2.985-3.544 4.678 0 1.692 1.258 3.354 3.544 4.677 2.57 1.488 6.02 2.308 9.717 2.308 3.697 0 7.147-.82 9.716-2.307 2.286-1.324 3.544-2.985 3.544-4.678s-1.258-3.354-3.544-4.678c-2.57-1.487-6.02-2.307-9.717-2.307z" fill="#000"/><path d="M94.198 117.618c-5.82-3.37-15.254-3.37-21.073 0-2.914 1.687-4.368 3.9-4.364 6.111v2.76c0 .762.176 1.524.522 2.265.316.677.777 1.336 1.382 1.96.4.412.858.809 1.383 1.186.334.24.692.473 1.077.696.098.057.205.105.305.16.528.289 1.082.551 1.66.787.537.22 1.087.424 1.659.598a21.76 21.76 0 002.212.534 25.769 25.769 0 004.7.449 25.767 25.767 0 004.701-.449 21.763 21.763 0 002.212-.534 18.831 18.831 0 003.319-1.385c.1-.055.207-.103.305-.16a12.81 12.81 0 001.077-.696c.525-.377.984-.774 1.383-1.185.605-.625 1.066-1.285 1.382-1.962a5.315 5.315 0 00.521-2.283v-2.702c.021-2.224-1.433-4.453-4.363-6.15zm-5.836 14.291zm5.53-1.918z" fill="#FFC444"/><path opacity=".1" d="M73.43 129.99v2.766c.528.289 1.082.551 1.66.787v-2.766a16.017 16.017 0 01-1.66-.787zm7.743 2.237v2.769c.824.08 1.655.128 2.488.128v-2.774c-.832 0-1.665-.043-2.488-.123zm-4.424-.86v2.774c.714.217 1.457.389 2.212.534v-2.766a21.765 21.765 0 01-2.212-.542zm-6.084-3.422v2.769c.4.412.858.809 1.383 1.186v-2.773a10.24 10.24 0 01-1.383-1.182zm-1.905-4.216v2.76c0 .762.177 1.524.523 2.265v-2.765a5.318 5.318 0 01-.522-2.26zm17.39 8.498v2.769a24.298 24.298 0 002.212-.32v-2.767a24.3 24.3 0 01-2.212.318zm10.508-4.281v2.769c.605-.625 1.066-1.284 1.382-1.962v-2.763c-.317.675-.778 1.333-1.382 1.956zm-2.46 1.876c-.1.058-.203.113-.305.169v2.765c.1-.055.207-.103.305-.16a12.81 12.81 0 001.077-.696v-2.772c-.334.239-.692.472-1.077.694zm-3.624 1.546v2.773a18.833 18.833 0 001.66-.598v-2.765c-.536.218-1.09.417-1.66.59z" fill="#000"/><path opacity=".2" d="M83.661 132.35c8.23 0 14.901-3.864 14.901-8.63 0-4.766-6.671-8.63-14.9-8.63-8.23 0-14.901 3.864-14.901 8.63 0 4.766 6.67 8.63 14.9 8.63z" fill="#fff"/><path opacity=".05" d="M83.662 131.175c-3.778 0-7.312-.842-9.951-2.37-2.437-1.412-3.78-3.217-3.78-5.085 0-1.868 1.343-3.673 3.78-5.085 2.638-1.528 6.172-2.37 9.95-2.37 3.778 0 7.312.842 9.951 2.371 2.437 1.411 3.779 3.217 3.779 5.084 0 1.868-1.342 3.674-3.779 5.085-2.639 1.528-6.172 2.37-9.95 2.37zm-.001-14.44c-3.697 0-7.147.82-9.716 2.307-2.286 1.324-3.544 2.985-3.544 4.678s1.258 3.354 3.544 4.678c2.57 1.488 6.02 2.307 9.717 2.307 3.697 0 7.147-.819 9.716-2.307 2.286-1.324 3.544-2.985 3.544-4.678 0-1.692-1.258-3.353-3.544-4.677-2.57-1.488-6.02-2.308-9.717-2.308z" fill="#000"/><path d="M94.198 114.844c-5.82-3.37-15.254-3.37-21.073 0-2.914 1.688-4.368 3.9-4.364 6.111v2.76c0 .762.176 1.524.522 2.265.316.677.777 1.336 1.382 1.961.4.411.858.808 1.383 1.185.334.24.692.473 1.077.696.098.057.205.105.305.16.528.289 1.082.551 1.66.787.537.22 1.087.424 1.659.598a24.303 24.303 0 004.424.855c.824.08 1.655.128 2.489.128a25.767 25.767 0 004.7-.448 21.764 21.764 0 002.212-.535 18.827 18.827 0 001.66-.597 16.222 16.222 0 001.659-.788c.1-.055.207-.103.305-.16.385-.223.743-.455 1.077-.695a10.22 10.22 0 001.383-1.186c.605-.625 1.066-1.284 1.382-1.962a5.315 5.315 0 00.521-2.283v-2.701c.021-2.225-1.433-4.453-4.363-6.151zm-5.836 14.291zm5.53-1.918z" fill="#FFC444"/><path d="M92.233 128.004v2.766a16.222 16.222 0 001.66-.788v-2.765m-10.232 2.359v2.774c.834 0 1.665-.048 2.489-.128v-2.769m-7.19-.318v2.767a24.3 24.3 0 002.213.32v-2.769a24.303 24.303 0 01-2.212-.318zm19.08-5.919v2.763a5.315 5.315 0 00.521-2.283v-2.701a5.325 5.325 0 01-.52 2.221zm-2.765 3.138v2.773a10.2 10.2 0 001.383-1.186v-2.769c-.399.41-.86.806-1.383 1.182zm-20.185 1.65v2.765c.537.22 1.086.424 1.659.598v-2.774a19.16 19.16 0 01-1.66-.589zm13.272 1.131v2.767a21.758 21.758 0 002.212-.535v-2.773c-.715.217-1.456.396-2.212.541zm-15.237-2.086a13.091 13.091 0 01-1.077-.696v2.773c.334.24.692.473 1.077.696.098.057.205.105.305.16v-2.765c-.102-.056-.205-.111-.305-.168zm-3.842-3.834v2.765c.316.677.776 1.336 1.382 1.961v-2.769c-.605-.624-1.066-1.281-1.382-1.957z" opacity=".1" fill="#000"/><path opacity=".2" d="M83.661 129.576c8.23 0 14.901-3.863 14.901-8.63 0-4.766-6.671-8.629-14.9-8.629-8.23 0-14.901 3.863-14.901 8.629 0 4.767 6.67 8.63 14.9 8.63z" fill="#fff"/><path opacity=".05" d="M83.662 128.401c-3.778 0-7.312-.842-9.951-2.37-2.437-1.411-3.78-3.217-3.78-5.085 0-1.867 1.343-3.673 3.78-5.084 2.638-1.529 6.172-2.37 9.95-2.37 3.778 0 7.312.841 9.951 2.37 2.437 1.411 3.779 3.217 3.779 5.085 0 1.867-1.342 3.673-3.779 5.084-2.639 1.529-6.172 2.37-9.95 2.37zm-.001-14.439c-3.697 0-7.147.819-9.716 2.307-2.286 1.323-3.544 2.985-3.544 4.677 0 1.693 1.258 3.354 3.544 4.678 2.57 1.488 6.02 2.307 9.717 2.307 3.697 0 7.147-.819 9.716-2.307 2.286-1.324 3.544-2.985 3.544-4.677 0-1.693-1.258-3.354-3.544-4.678-2.57-1.488-6.02-2.307-9.717-2.307z" fill="#000"/><path d="M38.32 20.689c-1.944 2.222-1.28 21.472 1.203 21.614 2.484.142 2.86-12.154 4.022-19.726 1.191-7.766-3.472-3.895-5.226-1.888z" fill="#1F385C"/><path opacity=".1" d="M41.032 24.036s-2.501 1.645-2.795 4.478c-.332 3.207.886 12.266 2.226 13.229 1.34.962.569-17.707.569-17.707z" fill="#000"/><path d="M29.626 17.804c-.804-2.847-.564-3.67-1.57-2.896-.721.556-.474 4.772.636 5.084 1.11.312.934-2.188.934-2.188zM36.9 41.215c-2.344-.122-6.357-20.943-4.713-21.407 1.473-.416 6.485 14.146 6.704 18.18.22 4.034-1.992 3.227-1.992 3.227z" fill="#FFD0D2"/><path d="M34.773 20.42c.198 1.01.398 2.72-2.028 2.693-1.71-.018-2.983-1.673-3.158-2.226-1.188-3.764 1.031-5.288 2.256-5.956 1.226-.667 2.518 3.387 2.93 5.49z" fill="#FFD0D2"/><path d="M33.508 15.268a.24.24 0 01.11.189l-.023 7.87c0 .07-.05.098-.11.063l-5.258-3.045a.24.24 0 01-.108-.19l.022-7.87c0-.07.049-.097.11-.062l5.257 3.045z" fill="#4F5056"/><path d="M34.16 15.136l-.001-.005v-.005l-.001-.006-.001-.005v-.006l-.002-.006v-.002l-.001-.003-.002-.006-.001-.004v-.001l-.002-.006-.002-.006v-.001l-.001-.001-.001-.004-.003-.005-.001-.004v-.001l-.003-.005-.003-.006v-.001l-.001-.001-.002-.005-.003-.005-.002-.003v-.001l-.004-.005-.004-.007v-.001l-.008-.01-.005-.007-.004-.005-.004-.005-.004-.004v-.001h-.002l-.003-.004-.004-.005h-.002v-.002l-.003-.002-.005-.004-.002-.002-.001-.001-.002-.001-.005-.004-.003-.002-.001-.001-.005-.003-.005-.003-5.259-3.046-.003-.002-.005-.002-.003-.002h-.001l-.005-.002-.004-.002h-.001l-.003-.002h-.005l-.002-.001h-.002l-.005-.002h-.016l-.006.001h-.001l-.007.002-.008.004-.542.316.008-.004.007-.002h.001l.008-.001h.011l.01.002.01.002.01.005h.002l.01.006 5.258 3.045.011.007h.001l.01.008h.001l.01.009.01.01.01.011.008.012.008.01.005.008.003.006.002.003.005.01.007.014.005.013.005.014.003.013v.001l.003.013.002.013v.014l-.022 7.87v.013l-.002.01v.002l-.003.01-.003.009-.005.008-.008.01-.002.002-.009.007.542-.316.01-.007.001-.002.008-.01.004-.007v-.001l.003-.005v-.003l.001-.002v-.001l.002-.006v-.003l.001-.002v-.005l.001-.003v-.013l.023-7.87v-.006z" fill="#545456"/><path d="M33.174 15.35a.24.24 0 01.109.19l-.003.928c0 .07-.049.098-.11.063l-4.608-2.67a.24.24 0 01-.11-.189l.004-.928c0-.07.049-.097.109-.062l4.61 2.669z" fill="#E6E6E6"/><path d="M29.206 19.859l-.764-.442c-.06-.035-.109-.007-.109.062l-.002.63c0 .069.049.153.109.188l.764.442c.06.035.109.007.11-.062v-.63a.24.24 0 00-.108-.188zm.004-1.245l-.764-.442c-.06-.035-.11-.007-.11.063l-.001.628c0 .07.048.154.109.19l.763.441c.06.035.11.007.11-.062l.002-.629a.24.24 0 00-.11-.189zm.003-1.244l-.764-.443c-.06-.035-.109-.007-.109.063l-.002.628c0 .07.049.154.109.19l.764.442c.06.035.109.006.11-.063v-.629a.24.24 0 00-.108-.189zm.004-1.246l-.764-.442c-.06-.035-.11-.007-.11.063l-.001.629c0 .069.048.154.109.188l.763.443c.06.035.11.007.11-.063l.001-.629a.24.24 0 00-.108-.189zm.003-1.244l-.763-.443c-.06-.035-.11-.006-.11.063l-.002.629c0 .07.049.154.11.189l.763.442c.06.035.109.007.11-.063v-.628a.24.24 0 00-.108-.19zm1.268 5.721l-.764-.442c-.06-.035-.109-.007-.11.063v.628a.241.241 0 00.108.19l.763.442c.06.035.11.006.11-.063l.002-.629a.24.24 0 00-.109-.189zm.003-1.244l-.763-.443c-.06-.035-.11-.007-.11.063l-.001.629c0 .07.048.154.108.188l.764.443c.06.035.11.007.11-.063l.001-.628a.24.24 0 00-.109-.19zm.004-1.245l-.764-.443c-.06-.035-.109-.006-.109.063l-.002.629c0 .07.049.154.109.189l.764.442c.06.035.109.007.109-.063l.002-.628a.24.24 0 00-.109-.19zm.003-1.245l-.763-.442c-.06-.035-.11-.007-.11.062l-.001.629c0 .07.048.154.108.189l.764.442c.06.035.11.007.11-.063l.001-.628a.24.24 0 00-.108-.19zm.004-1.245l-.764-.442c-.06-.035-.109-.007-.109.062l-.002.629c0 .07.049.154.109.189l.764.442c.06.035.109.007.11-.062v-.63a.24.24 0 00-.108-.188zm1.268 5.722l-.764-.443c-.06-.034-.11-.006-.11.063l-.001.629c0 .07.049.154.109.189l.763.442c.06.035.11.007.11-.063l.002-.628a.24.24 0 00-.11-.19zm.003-1.245l-.763-.442c-.06-.035-.11-.007-.11.062l-.002.629c0 .07.049.154.11.189l.763.442c.06.035.11.007.11-.062l.001-.63a.24.24 0 00-.109-.188zm.004-1.245l-.764-.442c-.06-.035-.109-.007-.11.062l-.001.63c0 .069.049.153.109.188l.763.442c.06.035.11.007.11-.062l.002-.63a.24.24 0 00-.11-.188zm.003-1.244l-.763-.443c-.06-.035-.11-.007-.11.062l-.002.63a.24.24 0 00.11.188l.763.442c.06.035.11.007.11-.062l.001-.629a.24.24 0 00-.109-.189zm.004-1.246l-.764-.442c-.06-.035-.109-.007-.11.063l-.001.628c0 .07.049.154.109.19l.763.442c.06.034.11.006.11-.063l.002-.629a.24.24 0 00-.11-.189zm1.271 4.477l-.764-.442c-.06-.035-.109-.007-.109.063l-.005 1.873c0 .07.048.154.108.19l.764.441c.06.035.11.007.11-.062l.005-1.874a.24.24 0 00-.109-.189zm.004-1.245l-.764-.442c-.06-.035-.11-.007-.11.063l-.001.629c0 .069.048.154.108.188l.764.443c.06.035.11.006.11-.063l.001-.629a.241.241 0 00-.108-.189zm.003-1.244l-.763-.443c-.06-.035-.11-.006-.11.063l-.002.629c0 .069.049.154.11.189l.763.442c.06.035.109.007.11-.063l.001-.628a.24.24 0 00-.109-.19zm.004-1.245l-.764-.443c-.06-.035-.11-.006-.11.063l-.001.629c0 .07.048.154.109.189l.763.442c.06.035.11.007.11-.063l.002-.628a.24.24 0 00-.11-.19z" fill="#C4D2E3"/><path d="M29.423 19.974v-.005l-.001-.005v-.006l-.002-.005v-.006l-.001-.002v-.001l-.001-.003-.002-.005-.001-.005v-.001l-.002-.006-.002-.005v-.002l-.002-.004-.002-.005-.002-.004v-.001l-.003-.006-.003-.005v-.002l-.003-.005-.003-.006-.002-.002v-.002l-.003-.004-.005-.007v-.002l-.007-.009-.005-.007-.004-.005-.005-.005-.004-.005-.001-.001-.003-.003-.005-.005-.002-.001v-.001l-.003-.002-.005-.005-.002-.001-.001-.001-.002-.002-.004-.003-.004-.003h-.001l-.005-.004-.004-.002-.001-.001-.764-.442-.003-.002-.005-.003-.003-.001h-.001l-.005-.003-.004-.001h-.002l-.003-.002-.004-.001h-.003l-.002-.001h-.004l-.003-.001h-.019l-.002.001-.006.002-.009.004-.108.063.008-.004.007-.002h.001l.008-.001h.011l.01.002.01.002.011.005.011.006.764.442.011.007.01.008h.002l.01.009v.001l.01.01.01.01.008.012.008.01.004.008.004.006.001.003.006.01v.001l.006.013.006.013.004.014.004.013v.001l.003.013.001.013v.643l-.001.012-.002.011v.001l-.003.01v.001l-.003.008-.005.009-.007.009-.002.002-.01.007.109-.063.009-.007.002-.002.008-.01.004-.007v-.001l.002-.005.001-.003v-.002l.001-.001.002-.006v-.005l.002-.005v-.016l.002-.63v-.01zm.004-1.244v-.006l-.002-.005v-.006l-.001-.005-.001-.006V18.7l-.001-.001v-.002l-.002-.006-.001-.005v-.001l-.003-.006-.002-.005v-.002l-.002-.004-.002-.005-.001-.004-.001-.001-.002-.006-.003-.005v-.001l-.001-.001-.003-.005-.003-.005-.001-.003-.001-.001-.003-.005-.004-.007-.001-.001-.007-.01-.005-.007-.004-.005-.004-.005-.005-.005v-.001l-.004-.003-.005-.005-.001-.001-.001-.001-.002-.002-.005-.004-.002-.002-.001-.001-.002-.001-.005-.004-.003-.003h-.001l-.005-.003-.005-.003v-.001l-.764-.442-.004-.002-.004-.002-.003-.002h-.001l-.005-.003-.005-.001h-.001l-.003-.002h-.005l-.002-.001h-.002l-.005-.002h-.022l-.001.001-.006.002-.01.004-.107.063.008-.004.006-.002h.01l.002-.001h.009l.009.002h.001l.01.003.01.004h.001l.011.006.764.442.01.007h.001l.01.008.001.001.01.008v.001l.01.01.01.01.009.012.007.01.005.008.003.006.002.003.005.01.001.001.006.013.005.013.005.014.004.013v.001l.002.013.002.013v.014l-.001.629v.012h-.001l-.002.011v.001l-.002.01v.001l-.004.008-.004.009-.008.01-.002.001-.01.007.11-.063.009-.007.002-.002.007-.01.004-.007v-.001l.003-.005v-.003l.001-.002v-.001l.002-.006v-.003l.001-.002.001-.005v-.011l.001-.005.002-.63v-.009zm.003-1.245v-.005l-.001-.006v-.005l-.002-.006v-.006l-.001-.002-.001-.003-.002-.006-.001-.004v-.001l-.002-.007-.002-.005v-.002l-.002-.003-.002-.006-.002-.004v-.001l-.003-.005-.003-.006V17.4l-.003-.005-.003-.005-.002-.003v-.001l-.003-.005-.005-.007v-.001l-.007-.01-.005-.006-.004-.005-.005-.006-.004-.004v-.001h-.001l-.004-.004-.004-.005h-.002v-.002l-.003-.002-.005-.004-.002-.002-.001-.001-.002-.001-.004-.004-.004-.002-.001-.001-.005-.003-.004-.003h-.001l-.764-.443-.003-.002-.005-.002-.003-.002h-.001l-.005-.002-.004-.002h-.002l-.003-.001-.004-.002h-.005l-.004-.002h-.016l-.006.001h-.002l-.006.002-.009.004-.108.063.008-.003.007-.002h.001l.008-.002h.011l.01.002.01.003.011.004.012.006.763.442.011.007.01.008.002.001.01.008v.001l.01.01.01.01.008.012.008.011.004.007.004.006.001.003.006.01v.001l.006.013.006.013v.001l.004.013.004.013v.002l.003.013.001.013v.642l-.001.012v.001l-.002.01v.002l-.003.009v.001l-.003.008-.005.009-.007.01-.003.001-.009.007.109-.063.009-.007.002-.002.008-.01.004-.007v-.001l.002-.005.001-.003v-.002l.001-.001.002-.005v-.006l.002-.005v-.016l.002-.629v-.01zm.004-1.245v-.005l-.002-.006v-.005l-.001-.006-.001-.005v-.002l-.001-.002v-.002l-.002-.006-.001-.004v-.001l-.003-.006-.002-.006v-.001l-.002-.004-.002-.006-.001-.003v-.001h-.001l-.002-.006-.003-.006-.001-.002-.003-.005-.003-.005-.001-.003v-.001l-.004-.005-.004-.007-.001-.001-.007-.01-.005-.006-.004-.005-.004-.005-.005-.005v-.002l-.004-.003-.005-.005-.002-.002-.002-.002-.005-.004-.002-.002h-.001l-.002-.002-.005-.004-.003-.002-.002-.001-.004-.003-.005-.003-.765-.443-.003-.002-.005-.002-.002-.002h-.001l-.005-.002-.005-.002h-.001l-.003-.001-.005-.002h-.004l-.005-.001h-.005l-.005-.001h-.005l-.007.001-.006.002-.01.004-.108.064.009-.004.006-.002h.002l.008-.002h.011l.009.002h.001l.01.003.01.004h.001l.011.006.764.442.01.007h.001l.01.008.001.001.01.008v.001l.01.01.01.01.009.012.007.011.005.007.003.006.002.003.005.01.001.001.006.013.005.013v.001l.005.013v.001l.003.012v.002l.003.013.002.013v.013l-.001.63v.011l-.001.001-.002.01v.002l-.002.009v.001l-.004.008v.001l-.004.008-.008.01-.002.001-.01.007.11-.063.009-.007.002-.002.007-.01.004-.007v-.001l.003-.005v-.003l.001-.001v-.002l.002-.005v-.004l.001-.002.001-.005v-.005l.001-.005v-.006l.002-.629v-.01zm.003-1.245v-.011l-.002-.005v-.006l-.002-.005v-.004l-.001-.002-.002-.006v-.004h-.001v-.002l-.002-.005-.002-.006v-.002l-.002-.003-.002-.005-.002-.004v-.001l-.003-.006-.003-.006v-.002l-.003-.004-.003-.006-.002-.003v-.001l-.003-.005-.005-.007v-.001l-.007-.01-.005-.006-.004-.005-.005-.005-.004-.005-.001-.002-.003-.003-.005-.004-.001-.002h-.002l-.002-.003-.005-.004-.002-.002-.002-.002-.005-.004-.004-.002-.001-.001-.005-.003-.004-.003h-.001l-.764-.443-.003-.002-.005-.002-.003-.002h-.001l-.005-.002-.004-.002h-.002l-.003-.001-.004-.001h-.002l-.001-.001h-.001l-.005-.001h-.024l-.006.002-.009.005-.108.063.008-.004.007-.002h.001l.009-.002h.011l.009.002.01.003.011.004.012.006.763.443.011.007.01.008h.002l.01.008v.002l.01.009.01.01v.001l.008.011.008.011.004.008.004.005.002.003.005.01v.002l.007.012.005.014.005.013v.001l.003.013.003.014.001.013.001.014-.002.628v.013l-.002.01v.002l-.002.009-.001.002-.003.007v.001l-.005.008-.007.01-.002.001-.01.007.109-.063.009-.007.002-.002.008-.01.004-.007.002-.006.001-.003v-.001l.001-.002.002-.005v-.006l.002-.005v-.016l.002-.629v-.01zm1.268 5.722v-.005l-.001-.006-.001-.005v-.006l-.002-.005v-.003l-.001-.003-.002-.006-.001-.004v-.001l-.002-.006-.002-.006v-.001h-.001l-.001-.004-.002-.006-.002-.003v-.001l-.003-.006-.003-.006-.001-.002-.002-.005-.003-.005-.002-.003v-.001l-.004-.005-.004-.007v-.001l-.008-.01-.005-.006-.004-.005-.004-.006-.004-.004v-.001h-.002l-.003-.004-.004-.005h-.002v-.002l-.003-.002-.005-.004-.002-.002h-.001l-.002-.002-.005-.004-.003-.002-.001-.001-.005-.003-.005-.003-.764-.443-.004-.002-.004-.002-.003-.002h-.002l-.004-.002-.004-.002h-.001l-.004-.001-.004-.002h-.005l-.004-.001h-.005l-.005-.001h-.006l-.006.001h-.002l-.006.002-.009.004-.108.063.008-.003.007-.002h.001l.008-.002h.011l.01.002.01.003.01.004h.002l.01.006.764.442.01.007h.002l.01.008v.001l.01.008v.001l.01.01.01.01.017.023.004.007.004.006.001.003.006.01v.001l.006.013.006.013v.001l.004.013.004.014.003.014.001.013v.013l-.001.63v.012l-.002.01v.002l-.003.009v.001l-.003.008v.001l-.005.008-.008.01-.002.001-.009.007.109-.063.009-.007.002-.002.007-.01.005-.007v-.001l.002-.005.001-.003v-.001l.001-.002.002-.006v-.005l.001-.005v-.005l.001-.006v-.005l.002-.629v-.01zm.003-1.245v-.011l-.001-.005-.001-.006-.002-.005v-.006l-.002-.006-.002-.004v-.002l-.002-.005-.002-.006v-.002l-.002-.003-.002-.006-.002-.003V19.4l-.003-.006-.002-.006-.001-.002-.003-.004-.003-.006-.002-.003v-.001l-.003-.005-.004-.007-.001-.001-.007-.01-.005-.006-.004-.005-.004-.005-.005-.005-.001-.002-.003-.003-.005-.004-.001-.002h-.001l-.003-.003-.004-.004-.003-.002-.002-.002-.005-.004-.003-.002h-.001l-.005-.003-.005-.003H30.6l-.764-.443-.003-.002-.005-.002-.002-.002h-.002l-.004-.002-.005-.002h-.001l-.003-.001-.005-.001h-.002v-.001h-.002l-.005-.001h-.023l-.006.002-.01.005-.108.063.009-.004.006-.002h.002l.008-.002h.01l.01.002.01.003h.001l.01.004h.001l.01.006.764.442.011.007h.001l.01.008.001.001.01.008v.002l.01.008v.001l.01.01.016.023.005.008.003.005.002.003.005.01v.002l.007.012.005.014.005.013v.001l.003.013.003.014.002.013v.014l-.002.628v.013l-.002.01v.002l-.002.009v.002l-.004.007v.001l-.005.008-.007.01-.002.001-.01.007.11-.063.008-.007.002-.002.008-.01.004-.007.003-.006v-.003l.001-.001v-.002l.002-.005v-.004l.001-.002v-.005l.001-.003v-.013l.003-.629v-.01zm.004-1.245v-.005l-.001-.005v-.006h-.001v-.005l-.002-.006v-.003l-.001-.003-.002-.006-.001-.004v-.001l-.002-.006-.002-.006-.001-.002-.001-.003-.003-.005-.001-.004v-.002l-.003-.005-.003-.006v-.002l-.003-.004-.003-.006-.002-.003-.004-.006-.004-.007-.008-.01-.005-.007-.004-.005-.004-.005-.004-.005-.002-.002-.003-.003-.004-.004-.002-.002-.003-.003-.005-.004-.002-.002h-.001l-.002-.002-.005-.004-.003-.002-.001-.001-.005-.003-.005-.003-.764-.443-.004-.002-.004-.002-.003-.001-.002-.001-.004-.002-.004-.002h-.001l-.004-.001-.004-.001h-.002l-.001-.001h-.002l-.004-.001h-.024l-.006.003-.009.004-.108.063.008-.004.007-.002h.001l.008-.001h.011l.01.001.01.003.01.005h.002l.01.005.764.443.01.007h.002l.01.008.01.009.01.01.01.01v.001l.009.012.008.01.004.008.004.005.001.003.006.01v.002l.006.012.006.014.004.014.004.013v.001l.003.013.001.013v.013l-.001.628v.014l-.002.01v.002l-.003.009v.002l-.003.007v.001l-.005.008-.008.01-.002.002-.009.007.109-.064.009-.007.002-.002.007-.01.005-.007.002-.006.001-.003V18.9l.001-.002.002-.005v-.006l.001-.005v-.003l.001-.002v-.011l.002-.629v-.01zm.003-1.245v-.01l-.001-.006-.001-.005-.002-.006v-.006l-.002-.006-.002-.004v-.001l-.002-.006-.002-.006v-.002l-.002-.003-.002-.005-.002-.004v-.001l-.003-.006-.002-.006-.001-.002-.003-.004-.003-.006-.002-.003-.003-.006-.005-.007-.007-.01-.005-.007-.004-.005-.004-.005-.005-.005-.001-.001-.003-.004-.005-.004-.001-.002h-.001l-.002-.003-.005-.004-.003-.002-.002-.002-.005-.003-.003-.003h-.001l-.005-.004-.005-.003h-.001l-.764-.443-.003-.002-.005-.002-.003-.001-.001-.001-.004-.002-.005-.002h-.004l-.005-.002h-.002l-.002-.001-.005-.001h-.022l-.001.001-.006.002-.01.004-.108.063.009-.004.006-.002h.002l.008-.001h.01l.01.001.01.003h.001l.01.005h.001l.01.006.764.442.011.007h.001l.01.008h.001l.01.009.01.01.01.011.009.012.007.01.005.008.003.006.002.002.005.01v.002l.007.012v.001l.005.013.005.014.003.013v.001l.003.013.002.013v.014l-.001.628-.001.012v.002l-.002.01v.001l-.002.01-.004.009-.005.008-.007.01-.002.002-.01.007.11-.063.008-.008.002-.002.008-.009.004-.008.003-.006v-.002l.001-.002v-.002l.002-.005v-.003l.001-.003v-.005l.001-.003v-.012l.003-.63v-.01zm.004-1.244v-.006l-.001-.005v-.006l-.002-.005v-.006l-.001-.002v-.001l-.001-.003-.002-.005-.001-.005v-.001l-.002-.006-.002-.005v-.002l-.002-.004-.002-.005-.002-.004v-.001l-.003-.006-.003-.005v-.002l-.003-.005-.003-.006-.002-.002v-.002l-.004-.004-.004-.007v-.002l-.007-.01-.005-.006-.005-.005-.004-.005-.004-.005-.002-.001-.003-.003-.004-.005-.002-.001v-.001l-.003-.002-.005-.005-.002-.001-.001-.001-.002-.002-.005-.003-.003-.003h-.001l-.005-.004-.005-.003-.764-.442-.004-.002-.004-.003-.003-.001h-.002l-.004-.003-.004-.001h-.001l-.004-.002-.004-.001h-.003l-.002-.001h-.004l-.003-.001h-.019l-.002.001-.006.002-.009.004-.108.063.008-.004.007-.002h.001l.008-.001h.011l.01.002.01.002.011.005.011.006.764.442.011.007.01.008h.002l.009.009h.001l.009.01.01.011.017.023.004.007.004.006.001.003.006.01.006.014.006.013.004.014.004.013v.001l.003.013.001.013v.643l-.002.012-.001.01v.002l-.003.01-.003.009-.005.008-.008.01-.002.002-.009.007.109-.063.009-.007.002-.002.008-.01.004-.007v-.002l.002-.005.001-.002v-.002l.001-.001.002-.006v-.005l.002-.006v-.015l.002-.63v-.008zm1.268 5.722v-.006l-.001-.005-.001-.006-.001-.005-.001-.006v-.002l-.001-.001v-.003l-.002-.006-.001-.004v-.002l-.003-.005-.002-.006V21.4l-.002-.003-.002-.005-.001-.004v-.002l-.003-.005-.003-.006-.001-.002-.003-.004-.003-.006-.001-.003-.004-.006-.004-.007h-.001l-.007-.01-.005-.007-.004-.005-.004-.005-.004-.005h-.001v-.001l-.004-.004-.004-.004-.002-.002-.003-.003-.005-.004-.002-.002H31.9l-.002-.002-.005-.003-.003-.003h-.002l-.004-.004-.005-.003-.764-.443-.004-.002-.004-.002-.003-.001-.002-.001-.004-.002-.005-.002h-.001l-.003-.001-.004-.001h-.003l-.002-.001-.005-.001h-.021l-.002.001-.006.002-.009.004-.108.063.008-.004.006-.002h.002l.008-.001h.011l.01.001.01.003.01.005h.001l.011.005.764.443.01.007h.001l.01.008h.001l.01.009.01.01.01.011.009.012.007.01.005.008.003.005.002.003.006.01v.002l.006.012v.001l.005.013.005.014.004.013v.001l.002.013.002.013v.015l-.001.628v.014l-.002.01v.001l-.003.01-.003.008v.001l-.005.008-.008.01-.002.002-.009.007.108-.064.01-.007.002-.002.007-.009.004-.008.003-.006v-.002l.001-.002v-.002l.002-.005v-.002l.001-.002v-.002l.001-.005v-.005l.001-.005v-.005l.002-.63v-.01zm.003-1.246v-.01l-.002-.006v-.005l-.002-.006v-.003l-.001-.003-.002-.006v-.004h-.001v-.001l-.002-.006-.002-.006v-.001l-.002-.004-.002-.005-.002-.004v-.002l-.003-.005-.003-.006v-.002l-.003-.004-.003-.006-.002-.003-.003-.006-.005-.006v-.002l-.007-.009-.005-.007-.004-.005-.005-.005-.004-.005-.001-.001-.003-.003-.005-.005-.001-.001-.002-.001-.002-.002-.005-.005-.002-.002-.002-.002-.005-.003-.004-.003h-.001l-.005-.004-.004-.003h-.001l-.764-.443-.003-.002-.005-.002-.003-.001h-.001l-.005-.003-.004-.001h-.002l-.002-.002-.005-.001h-.003l-.001-.001h-.005l-.003-.001h-.019l-.002.001-.006.002-.009.004-.108.063.008-.004.007-.002h.001l.009-.001h.01l.01.001.01.003.011.005.012.006.763.442.011.007.01.008h.002l.01.009.01.01.01.011.008.012.008.01.004.008.004.006.002.003.005.01.006.013v.001l.006.013.005.014.003.013v.001l.003.013.001.013v.001l.001.013-.002.629v.012l-.002.01v.002l-.003.01-.003.009-.005.008-.007.01-.002.002-.01.007.109-.063.009-.008.002-.001.008-.01.004-.007v-.002l.003-.005v-.004l.001-.001.002-.006v-.005l.002-.006v-.015l.002-.63v-.01zm.004-1.244v-.006l-.001-.005-.001-.006-.001-.005-.001-.006v-.002l-.001-.001v-.003l-.002-.005-.001-.005v-.001l-.003-.006-.002-.005v-.002l-.002-.004-.002-.005-.001-.004v-.001l-.003-.006-.003-.005v-.001l-.001-.001-.003-.005-.003-.005-.001-.003v-.002l-.004-.004-.004-.007-.001-.002-.006-.009-.006-.007-.004-.005-.004-.005-.004-.005h-.001v-.001l-.004-.003-.004-.005-.002-.001v-.001l-.003-.002-.005-.005-.002-.001-.001-.001-.002-.002-.005-.003-.003-.003h-.001l-.005-.004-.005-.003-.764-.442-.004-.002-.004-.003-.003-.001h-.002l-.004-.003-.005-.001-.004-.002h-.004l-.002-.001h-.002l-.006-.002h-.021l-.002.001-.006.002-.009.004-.108.063.008-.004.007-.002h.001l.008-.001h.011l.01.002.01.002.01.005h.001l.011.006.764.442.01.007h.002l.01.008.01.009v.001l.01.01.01.01.009.012.007.01.005.008.003.006.002.003.005.01.001.001.006.013.005.013.005.014.004.013v.001l.002.013.002.013v.014l-.001.629v.012l-.002.01v.002l-.003.01v.001l-.004.008-.004.009-.008.009-.002.002-.009.007.108-.063.01-.007.002-.002.007-.01.004-.007v-.001l.003-.006v-.002l.001-.002v-.001l.002-.006v-.002l.001-.001v-.002l.001-.005v-.005l.001-.006v-.005l.002-.63v-.01zm.003-1.245v-.011l-.002-.005v-.006l-.002-.006v-.002l-.001-.003-.002-.006v-.005h-.001v-.001l-.002-.006-.002-.005v-.002l-.002-.004-.002-.005-.002-.004v-.001l-.003-.005-.003-.006v-.002l-.003-.005-.003-.005-.002-.003v-.001l-.003-.005-.005-.007v-.001l-.007-.01-.005-.007-.004-.005-.005-.005-.004-.005-.001-.001-.003-.003-.005-.005-.001-.001-.001-.001-.003-.002-.005-.004-.002-.002v-.001l-.002-.001-.005-.004-.004-.003-.005-.004-.005-.002-.001-.001-.764-.442-.003-.002-.005-.003h-.003v-.001h-.001l-.005-.002-.004-.002h-.001l-.003-.002h-.005l-.002-.001h-.002l-.005-.002h-.022l-.002.001-.006.002-.009.004-.108.063.009-.004.006-.002h.01l.001-.001h.009l.01.002.01.003.011.004.012.006.763.442.011.007h.001l.01.008v.001l.01.008.001.001.01.01.01.01.008.012.008.01.004.008.004.006.002.003.005.01v.001l.007.013.005.013.005.014.003.013v.002l.003.012.002.013v.014l-.002.629v.012l-.002.011v.001l-.002.01-.001.001-.003.008-.005.009-.007.009-.002.002-.01.007.109-.063.01-.007.001-.002.008-.01.004-.007v-.001l.003-.005v-.003l.001-.002v-.001l.002-.006v-.005l.002-.005v-.016l.002-.63v-.008zM32 16.48v-.011l-.001-.005-.001-.006-.001-.006v-.002h-.001v-.003l-.002-.006-.001-.004v-.001l-.003-.007-.002-.005v-.002l-.002-.003-.002-.006-.001-.004v-.001l-.003-.005-.003-.006v-.001l-.001-.001-.002-.005-.004-.005-.001-.003v-.001l-.004-.005-.004-.007-.001-.001-.007-.01-.005-.006-.004-.005-.004-.006-.004-.004-.001-.001-.004-.004-.004-.005h-.002v-.002l-.003-.002-.005-.004-.002-.002-.001-.001-.002-.001-.005-.004-.003-.003h-.001l-.005-.003-.005-.003-.764-.443-.004-.002-.004-.002-.003-.002h-.002l-.004-.002-.004-.002h-.001l-.004-.001-.004-.002h-.005l-.005-.002h-.015l-.007.001h-.001l-.006.002-.009.004-.108.063.008-.003.007-.002h.001l.008-.002h.011l.01.002.01.003.01.004h.001l.011.006.764.442.01.007h.001l.01.008.001.001.01.008v.001l.01.01.01.01.009.012.007.011.005.007.003.006.002.003.006.01v.001l.006.013.005.013v.001l.005.013.004.013v.002l.002.012.002.014v.013l-.001.629v.013l-.002.01v.002l-.003.009v.001l-.003.008-.005.009-.008.01-.002.001-.009.007.108-.063.01-.007.002-.002.007-.01.004-.007v-.001l.003-.005v-.003l.001-.002v-.001l.002-.006v-.002l.001-.001v-.002l.001-.005v-.005l.001-.006v-.005l.002-.629v-.01zm1.272 4.477v-.006l-.001-.005v-.005l-.002-.006v-.006l-.001-.002-.001-.003-.002-.006-.001-.004v-.001l-.002-.006-.002-.006v-.002l-.002-.004-.002-.005-.002-.004v-.001l-.003-.005-.003-.006v-.002l-.003-.005-.003-.005-.002-.003v-.001l-.004-.005-.004-.007v-.001l-.007-.01-.005-.007-.004-.005-.005-.005-.004-.004v-.001h-.002l-.003-.004-.004-.005-.002-.001v-.001l-.003-.002-.005-.004-.002-.002-.001-.001-.002-.001-.004-.004-.004-.003h-.001l-.005-.003-.004-.003h-.001l-.764-.443-.004-.002-.004-.002-.003-.002h-.001l-.005-.002-.004-.002h-.001l-.004-.002h-.004l-.002-.001h-.003l-.004-.002h-.016l-.006.001h-.002l-.006.002-.009.004-.108.063.008-.003.007-.002h.001l.008-.002h.011l.01.002.01.003.011.004.011.006.764.442.011.007.01.008.002.001.009.008.001.001.01.01.01.01.008.012.008.011.004.007.004.006.001.003.006.01v.001l.006.013.006.013v.001l.004.013.004.013v.002l.003.012.001.014v.013l-.004 1.874-.001.012-.002.011v.001l-.002.01v.001l-.004.008-.004.009-.008.009-.002.002-.01.007.11-.063.008-.007.002-.002.008-.01.004-.007v-.001l.003-.006v-.002l.001-.002v-.001l.002-.006v-.003l.001-.002.001-.005v-.011l.001-.005.005-1.874v-.01zm.004-1.245v-.005l-.002-.006v-.005l-.001-.006-.001-.005v-.002l-.001-.002v-.002l-.002-.006-.002-.004v-.001l-.002-.006-.002-.006v-.001l-.002-.004-.002-.006-.002-.003v-.001l-.002-.006-.003-.006-.001-.002-.003-.005-.003-.005-.001-.003-.001-.001-.003-.005-.004-.007-.001-.001-.007-.01-.005-.006-.004-.005-.004-.006-.005-.004v-.001h-.001l-.003-.004-.005-.005H33.2l-.001-.002-.002-.002-.005-.004-.002-.002h-.001l-.002-.002-.005-.004-.003-.002h-.001v-.001l-.005-.003-.005-.003-.764-.443-.004-.002-.005-.002-.002-.002h-.001l-.005-.002-.005-.002h-.001l-.003-.001-.005-.002h-.004l-.005-.001h-.005l-.005-.001h-.005l-.007.001h-.001l-.006.002-.01.004-.108.064.009-.004.007-.002.009-.002h.011l.009.002.01.003h.001l.01.004h.001l.011.006.764.442.01.007h.001l.01.008.001.001.01.008v.001l.01.01.01.01.009.012.007.011.005.007.003.006.002.003.005.01v.001l.007.013.005.013v.001l.005.013.004.013v.002l.002.013.002.013v.013l-.001.63v.011l-.001.001-.002.01v.002l-.002.009v.001l-.004.008-.004.009-.008.01-.002.001-.01.007.11-.063.008-.007.003-.002.007-.01.004-.007v-.001l.003-.005v-.003l.001-.002.002-.006v-.003l.001-.003.001-.005v-.01l.001-.006.002-.629v-.01zm.003-1.245v-.005l-.001-.006v-.005l-.002-.006v-.005l-.001-.002v-.002l-.001-.002-.002-.006-.001-.004v-.002l-.002-.005-.002-.006v-.002l-.002-.003-.002-.005-.002-.004v-.001l-.003-.006-.003-.006v-.002l-.003-.004-.003-.006-.002-.003v-.001l-.003-.005-.005-.007v-.001l-.007-.01-.005-.006-.004-.005-.005-.005-.004-.005-.001-.002-.004-.003-.004-.004-.002-.002-.003-.003-.005-.004-.002-.002h-.001l-.002-.002-.004-.004-.004-.002-.001-.001-.005-.003-.004-.003h-.001l-.764-.443-.003-.002-.005-.002-.003-.002h-.001l-.005-.002-.004-.002h-.002l-.002-.001-.005-.001h-.002l-.001-.001h-.002l-.004-.001h-.024l-.006.002-.009.005-.108.063.008-.004.007-.002h.001l.008-.002h.011l.01.002.01.003.011.004.012.006.763.443.011.006v.001l.01.007.002.001.009.008.001.002.01.009.01.01v.001l.008.011.008.011.004.008.004.005.001.003.006.01v.002l.006.012.006.013v.001l.004.013v.001l.004.013.003.014.001.013v.642l-.001.012v.001l-.002.01v.002l-.003.009v.002l-.003.007v.001l-.005.008-.007.01-.002.001-.01.007.109-.063.009-.007.002-.002.008-.01.004-.007.002-.006.001-.003v-.001l.001-.002.002-.005v-.006l.002-.005v-.016l.002-.629v-.01zm.004-1.24v-.01l-.002-.005v-.006l-.001-.005-.001-.006v-.002l-.001-.001v-.003l-.002-.006-.001-.004v-.002l-.003-.005-.002-.006v-.002l-.002-.003-.002-.005-.001-.004-.001-.002-.002-.005-.003-.006-.001-.002-.003-.004-.003-.006-.001-.003h-.001l-.003-.006-.004-.007h-.001l-.007-.01-.005-.007-.004-.005-.004-.005-.005-.005v-.002l-.004-.003-.005-.004-.001-.002h-.001l-.002-.003-.005-.004-.002-.002h-.002l-.001-.002-.005-.004-.003-.002h-.001v-.001l-.005-.003-.005-.003-.764-.443-.004-.002-.004-.002-.003-.001h-.001v-.001l-.005-.002-.005-.002h-.001l-.003-.001-.005-.001h-.002v-.001h-.002l-.005-.001h-.023l-.006.003-.01.004-.108.063.009-.004.007-.002.009-.001h.011l.009.001h.001l.01.003.01.005h.001l.011.005.764.443.01.007h.001l.01.008h.001l.01.009.01.01.01.01v.001l.009.011.007.011.005.008.003.005.002.003.005.01.001.002.006.012.005.014.005.013v.001l.004.013v.001l.002.013.002.013v.014l-.001.628v.012l-.001.001-.002.01v.002l-.002.009v.002l-.004.007v.001l-.004.008-.008.01-.002.002-.01.006.11-.063.008-.007.002-.002.008-.01.004-.007.003-.006v-.003l.001-.001v-.002l.002-.005v-.004l.001-.002.001-.005v-.005l.001-.005v-.006l.002-.629v-.005z" fill="#B9CCE3"/><path d="M37.523 43.035s2.186.448 2.94-1.292-3.498-15.98-4.38-15.242c-2.533 2.122-4.024.246-4.066 1.31-.041 1.064 3.25 13.875 5.506 15.224z" fill="#1F385C"/><path d="M34.881 20.193c-1.108-2.743-.958-3.587-1.874-2.708-.657.63.045 4.794 1.182 4.984 1.136.19.692-2.276.692-2.276z" fill="#FFD0D2"/><path opacity=".05" d="M60.743 145.414c1.18-2.782-3.448-7.421-10.337-10.362-6.89-2.941-13.431-3.069-14.612-.288-1.18 2.782 3.449 7.422 10.338 10.362 6.89 2.941 13.431 3.07 14.611.288z" fill="#1A1A1A"/><path d="M40.087 137.058c-.825.616-3.612 3.058-2.755 4.021.857.963 4.394.268 6.35-.491 1.955-.759 3.718-6.221 3.718-6.221s-.184 2.382.15 2.612c.335.231.598-.273.598-.537 0-.263-.065-2.829.063-3.15.128-.321.057-1.549-.33-1.914-.388-.365-.91-.922-2.096-.905-1.187.017-3.84 5.198-5.698 6.585z" fill="#3B435A"/><path d="M47.354 122.033c1.557 2.4-1.313 6.911.267 9.06.524.712-1.161 4.229-2.196 5.451-.673.797-3.016 2.822-4.498 1.575-.948-.797 2.294-6.015 3.26-6.856.617-.538-.45-7.689-.732-8.375-.282-.686 3.227-1.892 3.9-.855z" fill="#FFD0D2"/><path d="M50.438 91.103s-2.105 15.462-1.966 32.116c.008.945-2.49 2.033-3.503 2.079-1.238.056-3.42-1.071-3.324-2.824.553-10.057-2.233-19.919-2.457-33.78-.11-6.785 11.25 2.409 11.25 2.409z" fill="#2E405A"/><path d="M39.676 57.58c-.584 24.004-.799 34.535.258 41.45.222 1.457 4.193 3.376 5.438 2.938 7.736-2.72 5.414-28.024 6.61-38.196 1.18-10.014-12.153-12.481-12.306-6.191z" fill="#2E405A"/><path opacity=".1" d="M48.523 66.193c-4.582-.004-1.593 31.137.804 45.735l-.804-45.735z" fill="#1A1A1A"/><path d="M48.644 141.796c-.826.616-3.612 3.058-2.755 4.021.856.963 4.393.268 6.349-.491 1.955-.759 3.719-6.221 3.719-6.221s-.184 2.382.15 2.612c.335.231.598-.273.598-.537 0-.263-.065-2.829.063-3.15.127-.321.057-1.549-.33-1.914-.389-.365-.91-.922-2.096-.905-1.187.017-3.84 5.198-5.698 6.585z" fill="#3B435A"/><path d="M55.91 126.771c1.557 2.4-1.313 6.911.268 9.06.524.712-1.162 4.228-2.196 5.451-.674.797-3.017 2.822-4.498 1.575-.948-.797 2.294-6.015 3.26-6.856.616-.538-.451-7.689-.733-8.375-.282-.686 3.227-1.892 3.9-.855z" fill="#FFD0D2"/><path d="M59.341 96.282c-.234 9.466-1.59 15.35-1.452 32.004.008.944-2.49 2.033-3.502 2.078-1.238.057-3.421-1.07-3.325-2.823.554-10.057-2.663-21.903-2.543-30.47.095-6.785 10.983-7.316 10.822-.789z" fill="#2E405A"/><path d="M47.356 63.469c-.243 18.414 1.001 31.073 1.563 38.844.154 2.121 9.967 3.435 10.422-6.495.195-4.258-.573-16.746.917-26.878 2.027-13.794-12.818-11.762-12.902-5.471z" fill="#2E405A"/><path d="M39.676 57.58s.594-9.113 1.241-9.88c.598-.708.095-3.558.62-3.557.277 0 4.61 4.773 11.12 4.633 3.709-.08 5.75-.793 5.891-.651.141.142.565 2.408.565 2.408 1.227.329 3.66 15.07.16 18.905-3.42 3.747-19.597-11.858-19.597-11.858z" fill="#2E405A"/><path d="M59.335 30.443c.102-1.93.043-3.498-.364-5.003a9.265 9.265 0 00-1.882-3.62c-2.163-2.547-4.357-3.752-9.593-4.483-.888-.125-2.99-.55-4.82 1.169-2.468 2.317-3.36 8.45-3.36 13.084s4.421 6.27 1.746 15.873C38.994 54.885 44.05 58.328 53.1 57.76c3.92-.247 2.441-2.473 4.524-2.429 2.082.045.236-5.432-.187-7.43-.077-.365-.14-.782-.182-1.263-.072-.825-.082-1.841.011-3.12.201-2.756 2.023-12.215 2.069-13.075z" fill="#4282B8"/><path d="M51.577 17.683s-2.433-.714-5.29-.766l-.213.53 5.596 1.059-.093-.823z" fill="#545456"/><path d="M46.151 17.377c-.42.128-1.545.476-1.72 1.48-.176 1.004-.606 5.485 1.527 6.127 3.336 1.004 4.333-1.993 5.42-3.629 1.544-2.324.355-3.023-.788-3.737-1.143-.713-4.064-.354-4.439-.24z" fill="#FFC5C8"/><path d="M42.804 41.859a19.74 19.74 0 00-.134-1.993c-.728-14.151 3.616-22.949 3.616-22.949l-.747-.116-.392.234c-1.045.116-2.305.707-3.28 1.339 0 0-3.172 7.532-3.275 11.564-.09 3.505 1.781 8.667 1.871 11.354.014.435-.036 1.124-.13 1.98-.064-.015-.116-.015-.15.005-.268.16-.854 1.793-.668 2.081.055.085.244.269.486.477-.668 4.65-1.822 10.988-1.837 12.11-.022 1.612 1.272 2.866 2.299 2.804 1.027-.061 2.14-13.962 2.329-17.959a15.094 15.094 0 00.014-.9l-.002-.031z" fill="#1F385C"/><path opacity=".05" d="M41.57 46.77c.4-.982.636-1.917.405-2.265-.232-.349-1.526-1.388-1.793-1.228-.267.16-.853 1.793-.667 2.081.187.289 1.926 1.728 2.054 1.413zm4.716-29.853s-4.762 9.641-3.48 24.974c0 0-3.09-19.072-1.697-21.118l2.007-.569-1.079-1.318L45.54 16.8l.747.116z" fill="#fff"/><path d="M46.515 15.363c-.31 1.413-1.081 3.007 0 3.5 1.081.493 3.595.235 4.454-.357.86-.592.265-3.587-.055-3.883-.32-.295-4.4.74-4.4.74z" fill="#FFC5C8"/><path d="M45.538 6.935C45.404 8 43.34 9.787 42.776 10.298c-1.753 1.59-1.984 3.484.67 3.449 0 0-4.57.555-1.543-3.578 3.026-4.133.784-5.568.784-5.568l2.851 2.334zm9.037.853s4.412 4.614 2.438 6.933c-1.974 2.32-4.187-.454-4.187-.454l1.749-6.479z" fill="#3B435A"/><path d="M42.39 6.608c-1.068 4.501-.034 9.346 3.652 10.432 4.426 1.303 9.52-2.188 10.587-6.69 1.067-4.502-.836-7.923-5.323-8.994-4.488-1.07-7.849.75-8.916 5.252z" fill="#FFD0D2"/><path d="M41.921 9.304c-.01.387.71-2.904 1.227-3.338.22 1.037 1.549 1.484 2.571 2.56 2.242 2.36 6.977 2.639 7.376 2.17 0 0 1.22-2.691 2.049-2 .724.605.185 4.062-.26 4.326-.446.265-.462-.082-.572.106-.982 1.676-.617 1.914-.617 1.914s2.549-1.303 3.783-6.608c1.99-8.556-15.167-14.006-15.557.87z" fill="#3B435A"/><path d="M43.324 6.406s2.633 4.691 6.283 4.91c0 0-2.532-.99-3.046-3.143-.207-.865-3.237-1.767-3.237-1.767zm6.283 2.9c.004 1.075 1.839 3.097 2.337 3.673 1.547 1.79 1.549 3.7-1.08 3.343 0 0 4.467 1.105 1.962-3.365-2.506-4.47-.108-5.622-.108-5.622l-3.111 1.97z" fill="#3B435A"/><path d="M60.595 53.201c-.855-3.174-1.9-7.019-1.825-9.92.078-2.997.59-9.858.72-14.767.077-2.875.024-5.081-.323-5.45-1.843-1.965-4.922-4.197-5.92-4.44l-1.67-.94s-5.378 21.293-4.524 25.594v-.002c-.087.784-.131 1.447-.121 1.95.101 5.12.881 18.63 2.756 19.794 1.875 1.163 12.094-4.27 11.97-6.982-.048-1.056-.517-2.81-1.063-4.837z" fill="#1F385C"/><path d="M48.194 44.804c.32.113.578.454.577.76 0 .306-.26.462-.58.349-.32-.114-.578-.453-.577-.759 0-.306.26-.463.58-.35z" fill="#000" opacity=".05"/><path opacity=".05" d="M50.561 47.488c-.187.576-.068 1.746.372 1.837.44.09 5.382-1.239 5.907-1.853.526-.614-.138-2.155-.539-2.113-.4.043-5.588 1.663-5.74 2.129z" fill="#fff"/><path opacity=".1" d="M60.595 53.2c-.855-3.173-1.9-7.018-1.825-9.918.078-2.998.59-9.859.72-14.768-1.732 1.997-4.699 6.045-4.62 10.262.1 5.448 1.994 12.808 5.725 14.425z" fill="#000"/><path opacity=".05" d="M53.247 18.624l-1.67-.94s-5.378 21.292-4.524 25.593c0 0 7.391-17.845 6.915-19.277l-1.666-1.871 1.688-.836-.743-2.67z" fill="#fff"/><path d="M61.15 24.771c1.547 2.035 1.775 19.35-.027 23.111-.257.537-2.793.284-3.103.293-1.918.05-1.467-8.606-2.575-16.546-1.136-8.142 1.592-12.27 5.705-6.858z" fill="#1F385C"/><path d="M59.697 48.775c-2.47 1.88-19.204-12.408-18.25-13.83.854-1.273 14.665 6.975 17.587 10.01 2.923 3.036.663 3.82.663 3.82z" fill="#FFD0D2"/><path d="M42.93 33.033c.827.596 1.782 2.021 1.13 3.524-.677 1.56-3.293.82-3.794.538-3.407-1.915-3.037-3.337-2.602-4.655.436-1.318 3.545-.648 5.266.593z" fill="#FFD0D2"/><path d="M42.762 34.065c-.175-2.105-.765-3.092.219-2.917.984.176 1.248 3.223 1.225 3.793-.023.57-1.444-.876-1.444-.876z" fill="#FFD0D2"/><path d="M61.307 47.105s-.24 2.225-2.122 2.416c-1.882.19-13.731-7.367-13.333-8.449.398-1.08 1.526-4.075 2.549-3.791 1.023.284 12.312 7.257 12.906 9.824z" fill="#1F385C"/></g><defs><clipPath id="clip0_34_2466"><path fill="#fff" d="M0 0h162v187H0z"/></clipPath></defs></svg>