<svg width="256" height="252" fill="none" xmlns="http://www.w3.org/2000/svg"><g clip-path="url(#clip0_28_932)"><path d="M211.991 175.36a.83.83 0 01-.83-.83v-43.825a.83.83 0 011.66 0v43.825a.83.83 0 01-.83.83zm-22.06-11.319l-.041-.001a.83.83 0 01-.789-.869l1.807-43.774a.835.835 0 01.869-.789.831.831 0 01.789.87l-1.806 43.774a.83.83 0 01-.829.789zm45.781 0a.83.83 0 01-.829-.789l-1.806-43.774a.831.831 0 01.789-.87.835.835 0 01.869.789l1.807 43.774a.83.83 0 01-.789.869l-.041.001zm-25.713-11.592a.83.83 0 01-.83-.83v-43.825a.83.83 0 011.66 0v43.825a.83.83 0 01-.83.83z" fill="#BBB4B4"/><path d="M234.57 119.747l-20.675-14.818c-1.229-.71-3.896 1.848-3.896.209 1.222-11.547 3.079-39.115 1.67-50.134 0-1.639.997-2.392 2.226-1.682l21.427 12.37c1.23.71 2.227 2.614 2.227 4.254 1.828 10.378 1.347 33.688 0 45.67 0 1.639-1.749 4.841-2.979 4.131z" fill="#BBB4B4"/><path d="M208.368 130.552l-17.305-9.99c-2.368-1.367-2.071-3.755.663-5.334l15.978-9.224c2.735-1.578 6.87-1.75 9.238-.383l17.306 9.991c2.368 1.367 2.071 3.755-.664 5.333l-15.978 9.224c-2.734 1.579-6.87 1.75-9.238.383z" fill="#BBB4B4"/><path d="M204.209 91.084c1.994 1.034 15.978 11.112 12.439 14.343-3.539 3.231-27.716 24.575-38.332 24.252 0 0-11.446-12.564-10.33-14.683 1.259-2.393 21.292-11.55 36.444-13.198 0 0-2.215-11.748-.221-10.714z" fill="#3C4358"/><path d="M174.066 178.447s-1.203-.335-1.315-.596c-.113-.262.944-.651.944-.651l.412.541-.041.706z" fill="#998E82"/><path d="M179 174.196c.598-1.985.766-4.081-.524-5.991-2.156-3.193-6.192-2.137-8.415-1.099-2.223 1.038-3.015 3.298-9.148 6.402-1.55.784-9.429 4.194-7.242 7.378 1.574 2.291 6.861 1.901 11.964 1.166 4.359-.628 7.205-4.685 8.224-4.364.146.082-.076.607.207.759.622.334 4.903-1.624 5.041-2.481.122-.755.181-1.01-.107-1.77z" fill="#4A4C57"/><path d="M176.018 154.217c2.47 3.797-.374 10.811 1.33 13.169 2.174 3.011-3.363 5.654-4.657 5.4-.304-.059.237-.896.404-1.554.19-.747-4.248-2.609-5.024-2.085-.443.299 1.294-.996 2.311-1.567.411-.231.917-.58 1.052-.741.834-.992-1.692-10.471-2.139-11.556-.447-1.086 5.657-2.706 6.723-1.066z" fill="#314058"/><path d="M185.877 118.908s-5.446 25.691-5.233 50.981c.012 1.434-5.464 3.086-7.009 3.156-1.89.085-6.885-1.626-6.737-4.288.844-15.271-3.184-38.396-.004-51.348 2.566-10.445 18.983 1.499 18.983 1.499z" fill="#3C4358"/><path opacity=".05" d="M181.912 143.643c-1.387-.754-4.618-18.594-1.736-24.259 1.275-2.505 25.352-15.52 29.125-12.463l-26.517 14.743-.872 21.979z" fill="#1A1A1A"/><path d="M233.054 102.062s1.662 8.3-.895 12.406c-3.627 5.824-27.868 23.096-43.175 22.168 0 0-5.935-4.254-7.327-14.922-.31-2.379 26.325-17.207 41.739-18.855 8.771-.938 9.658-.797 9.658-.797z" fill="#3C4358"/><path d="M193.093 187.744s-1.228-.225-1.364-.475c-.135-.251.882-.734.882-.734l.459.502.023.707z" fill="#998E82"/><path d="M197.637 183.09c.417-2.031.395-4.134-1.061-5.92-2.434-2.985-6.359-1.571-8.479-.337-2.121 1.233-2.707 3.555-8.536 7.198-1.473.921-8.601 5.68-6.137 8.654 1.774 2.14 7.004 1.276 12.02.085 4.285-1.018 6.343-5.968 7.386-5.74.154.069-.021.611.275.737.65.277 4.737-2.058 4.798-2.924.054-.763.089-1.022-.266-1.753z" fill="#4A4C57"/><path d="M194.476 164.037c2.469 3.796-.375 10.81 1.329 13.169 2.174 3.011-3.362 5.654-4.656 5.4-.304-.06.236-.896.404-1.554.19-.747-4.249-2.609-5.024-2.086-.444.3 1.294-.995 2.31-1.566.411-.231.917-.58 1.052-.741.834-.993-1.691-10.471-2.138-11.557-.447-1.085 5.656-2.705 6.723-1.065z" fill="#314058"/><path d="M199.436 118.089s-1.436 36.11-1.224 61.399c.012 1.434-5.464 3.087-7.009 3.156-1.89.086-6.884-1.625-6.737-4.287.844-15.272-3.802-38.868-4.1-52.104-.278-12.374 19.07-8.164 19.07-8.164z" fill="#3C4358"/><path d="M191.153 49.31c-3.091 4.209-11.415 35.76-7.008 35.63 4.407-.13 15.63-19.6 16.525-33.107.918-13.852-6.726-6.323-9.517-2.523z" fill="#363E58"/><path opacity=".1" d="M197.319 57.516s-4.789.259-4.36 5.273c.436 5.098 4.459 18.639 4.459 18.639l-.099-23.912z" fill="#000"/><path d="M203.237 104.998s-1.039-11.977.841-14.904c.762-1.186-.323-5.397.474-5.464.42-.036 8.284 6.556 18.145 5.488 5.619-.608 6.688-3.493 6.921-3.297.232.196.958 4.977.958 4.977 1.906.335 4.664 14.954-2.554 28.143-3.704 6.766-24.785-14.943-24.785-14.943z" fill="#3C4358"/><path d="M200.656 49.277l.095-1.051-.095 1.05z" fill="#CDCDD5"/><path d="M204.107 43.036l.247-1.766 2.394 2.752-2.631 2.572-.01-3.558z" fill="#ECF5FA"/><path d="M209.165 48.098l-2.417-4.076 7.014-3.297.344 1.264-.22 1.377-4.721 4.732z" fill="#ECF5FA"/><path opacity=".5" d="M204.107 43.036l.247-1.766 2.394 2.752-2.631 2.572-.01-3.558z" fill="#fff"/><path opacity=".5" d="M209.165 48.098l-2.417-4.076 7.014-3.297.344 1.264-.22 1.377-4.721 4.732z" fill="#fff"/><path d="M209.897 104.893c.175.04.328.202.343.363l.251 2.771c.015.158-.115.254-.29.214l-4.585-1.062c-.176-.041-.329-.203-.343-.361l-.251-2.771c-.015-.161.114-.257.29-.216l4.585 1.062z" fill="#BEBEBE"/><path d="M209.875 107.636l-.206-2.267-4.032-.934.206 2.267 4.032.934z" fill="#4A4C57"/><path d="M229.754 63.263c-.114-3.414-.458-6.166-1.407-8.752-.754-2.056-1.952-4.184-3.876-6.084-2.881-2.844-5.693-4.576-10.183-5.542l-.182-.896s-4.404-.884-9.459-.538l-.157.516c-1.787.117-4.052.69-5.978 2.833-4.003 4.456-2.121 13.71-1.414 21.866.707 8.156 5.091 2.235 3.782 19.805-1.56 20.948 5.962 16.75 21.323 17.629 6.95.397 8.379 1.604 8.095-1.675-.319-3.678-.179-4.688-1.229-8.14a18.485 18.485 0 01-.516-2.196c-.253-1.442-.425-3.23-.455-5.493-.067-4.884 1.706-21.814 1.656-23.333z" fill="#ECF5FA"/><path d="M207.513 47.808c.395-.623.456-1.727.456-1.727l-1.221-2.059-1.502 1.468s-.178 1.423.294 2.122c.083.124.196.231.339.315l-2.644 50.197 4.382 4.56 5.8-3.157-6.014-51.595a.573.573 0 00.11-.124z" fill="#4282B8"/><path d="M204.643 41.402l-1.333-.042-.658.472c-1.828.365-3.962 1.599-5.588 2.86 0 0-4.053 5.574-2.75 20.607.536 6.173 3.202 15.235 3.77 19.95.092.763.074 3.505.074 3.505l-.197 4.564-.116 2.161c-.165-.04-.298-.044-.372.01-.447.323-1.233 3.286-.86 3.765.115.147.503.461.992.81-.358 6.932-4.834 7.685-4.742 8.959.207 2.84 2.391 6.543 4.195 6.277 1.434-.211 9.184-12.386 10.192-22.18.261-2.534.607-5.806.472-7.644-.18-2.446-.507-2.407-1.365-3.319a9.03 9.03 0 01-.959-1.216c-2.562-3.824-1.837-39.62-.755-39.539z" fill="#363E58"/><path opacity=".05" d="M204.643 41.402l-1.333-.042-.658.472-2.245 2.432 1.289 1.283-3.084.628s.03 34.984 7.745 35.982a9.024 9.024 0 01-.959-1.216c-2.562-3.824-1.837-39.621-.755-39.539zm-5.481 59.249c.559-1.791.831-3.473.37-4.051-.462-.578-1.676-1.322-2.059-1.111-.483.266-1.283 3.33-.86 3.765.45.464 2.37 1.971 2.549 1.397z" fill="#fff"/><path d="M205.325 83.292c.495.158.934.725.979 1.263.045.539-.319.847-.815.689-.495-.158-.933-.722-.979-1.26-.045-.538.319-.85.815-.692zm-.533 10.38c.496.158.934.725.979 1.263.046.539-.319.847-.814.69-.496-.159-.934-.722-.979-1.26-.046-.54.319-.85.814-.693z" fill="#000" opacity=".05"/><path d="M204.813 38.68c-.331 2.535-1.154 4.34.83 5.042 1.985.702 6.821.751 7.951-.43.893-.934-.515-6.116-1.125-6.588-.611-.471-7.656 1.976-7.656 1.976z" fill="#FFC9CA"/><path d="M233.393 98.284c-1.995-5.456-2.368-7.219-2.677-12.336-.319-5.288-.464-17.443-.982-26.106-.303-5.072-.734-8.947-1.402-9.544-3.556-3.177-9.333-6.634-11.132-6.909l-3.094-1.4S211.307 77 206.414 82.218c0 0 .859 11.505.954 12.389.961 8.998 6.854 25.929 10.343 27.689 3.489 1.761 19.216-7.599 18.584-12.352-.247-1.853-1.629-8.176-2.902-11.66z" fill="#363E58"/><path opacity=".05" d="M215.908 64.201l5.109.83-.137-1.575-4.515-.85c-.149.528-.301 1.06-.457 1.595z" fill="#fff"/><path opacity=".05" d="M219.636 49.108l-3.426-1.375 2.139-1.033-1.149-3.31v-.001l-3.094-1.4S211.307 77 206.413 82.218c6.77-.783 13.223-33.11 13.223-33.11zm-2.199 52.117c-.244 1.044.145 3.085.936 3.177.791.092 9.315-3.004 10.149-4.166.835-1.162-.573-3.773-1.274-3.637-.7.136-9.615 3.783-9.811 4.626z" fill="#fff"/><path opacity=".1" d="M233.52 98.78c-1.995-5.456-2.821-12.204-3.13-17.32-.319-5.289-.464-17.444-.982-26.107-2.753 3.782-7.376 11.362-6.594 18.773 1.01 9.574 3.869 22.38 10.706 24.654z" fill="#000"/><path d="M231.106 54.795c3.752 8.695-7.518 33.935-12.643 37.657-.853.619-8.481-3.839-8.016-4.134.451-.287 6.054-12.871 9.189-23.287 4.186-13.912 6.705-21.276 11.47-10.236z" fill="#363E58"/><path d="M197.15 21.505s-.164 3.75.597 4.573l1.771-6.245-2.368 1.672z" fill="#434856"/><path d="M198.464 20.126c-2.215 3.123.178 10.43.178 10.43s-.461 8.841 7.602 11.218c6.41 1.89 11.575-5.024 11.575-5.024s8.717-17.036-3.206-21.04c-10.99-3.689-13.934 1.292-16.149 4.416z" fill="#FFD3D4"/><path d="M222.713 22.361c1.04 6.194-4.894 14.388-4.894 14.388s-1.443-2.065-.293-1.923c1.455.18 3.251-4.598 1.642-6.321-1.61-1.723-2.897 2.161-2.897 2.161l-1.085 1.72-1.251-5.99s8.038-8.442 8.778-4.035z" fill="#434856"/><path d="M203.219 22.558c.72-.808 5.06-2.274 9.205 3.988 2.737 4.134 6.287.96 6.021.888-1.44-.391-1.756-2.126-1.756-2.126s5.504 1.224 4.775.553c-1.306-1.201-.846-1.85-.846-1.85s3.681.576 3.47.076c-1.107-2.624-2.778-5.836-3.385-7.743-.595-1.867-7.27-5.5-10.031-3.803 0 0-4.115-2.103-7.512-.957-2.363.797-5.674 1.9-6.214 6.382-.524 4.345-2.378 7.347-1.278 7.19 1.099-.156 2.957-3.593 4.697-3.744 1.74-.151 2.854 1.146 2.854 1.146z" fill="#3D4356"/><path opacity=".05" d="M255.961 203.858L83.427 104.252.04 152.394l37.05 21.39-23.608 13.63 25.88 14.941 23.608-13.63 38.826 22.414-25.024 14.447 25.88 14.941 25.024-14.447L172.572 252l83.389-48.142zm-16.808-40.955l-25.88-14.941-25.879 14.941 25.88 14.941 25.879-14.941z" fill="#1A1A1A"/><path d="M244.904 205.382l2.431-1.403v-81.232l-2.431 1.403v81.232z" fill="#B9CCE3"/><path d="M242.474 203.979l2.43 1.403V124.15l-2.43-1.403v81.232z" fill="#C4D2E3"/><path d="M172.572 247.152l2.431-1.403v-81.231l-2.431 1.403v81.231z" fill="#B9CCE3"/><path d="M170.142 245.749l2.43 1.403v-81.231l-2.43-1.403v81.231z" fill="#C4D2E3"/><path d="M83.401 112.166l2.43-1.403V29.532l-2.43 1.403v81.231z" fill="#B9CCE3"/><path d="M80.971 110.763l2.43 1.403V30.935l-2.43-1.403v81.231z" fill="#C4D2E3"/><path d="M11.157 153.917l2.43-1.403V71.283l-2.43 1.403v81.231z" fill="#B9CCE3"/><path d="M8.727 152.514l2.43 1.403V72.686l-2.43-1.403v81.231z" fill="#C4D2E3"/><path d="M129.365 192.747c-.005.004-.006.01-.009.016l-3.588.311 2.501.921c-4.537 7.5-8.592 1.51-9.131 1.682-.554.177-2.092 4.258-.837 7.606.273.726.24.816.7 1.264.023.259.074.536.174.777.289.696 2.348 1.801 4.328 1.801 1.98 0 5.708-3.273 5.708-3.273v-.742c1.755-1.151 3.508-2.21 4.291-2.253 1.541-.085 9.075-5.18 9.075-8.11 0-2.929-9.896-3.074-13.212 0z" fill="#4A4C56"/><path d="M128.605 193.953l-2.678-.872c.009-.356.017-.713.031-1.062.1-2.504 1.165-6.485-1.146-6.539-2.311-.054-5.369-1.452-5.541 5.69 0 0-.104 4.455 0 5.1.105.645 1.143 1.952 4.932 1.952.906 0 2.074-.518 2.074-.518s2.583-.96 3.506-2.674l-1.178-1.077z" fill="#FFD6D6"/><path d="M129.675 141.407c1.087 3.936.563 22.175.775 47.465.012 1.434-5.464 6.082-7.009 6.152-1.889.085-6.884-1.626-6.737-4.288.845-15.272-5.815-29.896-6.205-43.129-.669-22.756 18.088-10.135 19.176-6.2z" fill="#3C4358"/><path d="M120.569 142.042c-3.102-.718-.327-6.693 3.199-6.66 3.526.033 3.983-.425 4.865 1.045.881 1.469-2.775 6.464-4.996 6.855-2.22.392-3.068-1.24-3.068-1.24z" fill="#FFD3D4"/><path d="M146.77 203.089c-.005.005-.006.011-.009.016l-3.588.311 2.502.921c-4.538 7.501-8.593 1.51-9.131 1.682-.554.177-2.093 4.258-.838 7.606.273.726.24.817.7 1.264.023.26.074.537.174.778.29.695 2.348 1.8 4.328 1.8 1.981 0 5.708-3.273 5.708-3.273v-.741c1.756-1.151 3.508-2.211 4.292-2.254 1.54-.085 9.074-5.18 9.074-8.11 0-2.929-9.895-3.074-13.212 0z" fill="#4A4C56"/><path d="M146.01 204.296l-2.678-.872c.01-.357.017-.713.031-1.063.101-2.504 1.165-6.484-1.146-6.539-2.311-.054-5.369-1.451-5.54 5.69 0 0-.105 4.455 0 5.101.104.645 1.142 1.951 4.931 1.951.906 0 2.075-.518 2.075-.518s2.582-.959 3.505-2.674l-1.178-1.076z" fill="#FFD6D6"/><path d="M146.829 151.028c1.558 3.818.563 23.357.775 48.647.012 1.434-5.464 4.708-7.009 4.778-1.89.085-6.884-1.625-6.737-4.288.844-15.271-5.611-32.623-5.318-45.859.228-10.301 16.73-7.095 18.289-3.278z" fill="#3C4358"/><path d="M101.978 236.861a.83.83 0 01-.83-.83v-43.825a.83.83 0 011.66 0v43.825a.83.83 0 01-.83.83zm-22.06-11.319l-.04-.001a.83.83 0 01-.79-.869l1.807-43.774a.835.835 0 01.869-.789.83.83 0 01.789.87l-1.807 43.773a.83.83 0 01-.828.79zm45.781 0a.83.83 0 01-.829-.79l-1.806-43.773a.83.83 0 011.658-.081l1.807 43.774a.83.83 0 01-.789.869l-.041.001zM99.986 213.95a.83.83 0 01-.83-.83v-43.825a.83.83 0 111.66 0v43.825a.83.83 0 01-.83.83z" fill="#BBB4B4"/><path d="M98.355 192.053l-17.305-9.991c-2.368-1.367-2.07-3.754.663-5.333l15.978-9.224c2.734-1.579 6.87-1.75 9.238-.383l17.306 9.991c2.368 1.367 2.071 3.754-.664 5.333l-15.978 9.224c-2.734 1.579-6.87 1.75-9.238.383z" fill="#BBB4B4"/><path d="M84.245 169.182s-6.967 6.636 12.403 14.215c22.911 8.964 50.821-28.25 50.821-28.25s.826-13.451-13.817-8.534c-12.018 4.035-49.407 22.569-49.407 22.569z" fill="#3C4358"/><path d="M135.78 150.305c-3.102-.718-.327-6.692 3.199-6.66 3.526.033 3.746-.253 4.865 1.045 2.312 2.683-2.775 6.464-4.995 6.856-2.22.392-3.069-1.241-3.069-1.241z" fill="#FFD3D4"/><path d="M54.303 161.895c.105.829 1.204 2.191 1.204 3.264s-.332 2.701.048 2.857c.215.088.804-.026 1.027-.339.224-.313-.585-3.364.734-4.459 1.319-1.095-3.013-1.323-3.013-1.323z" fill="#3B435A"/><path d="M54.954 155.387s-2.244 3.436-1.238 6.118c1.006 2.683 3.424 3.037 4.776 2.305 1.353-.732 4.909 1.378 8.92.167 2.219-.67 6.788-4.009 5.07-5.607-.646-.599-5.055-.199-8.105 1.191-1.644.75-3.893-1.18-5.838-2.411-1.945-1.231-3.585-1.763-3.585-1.763z" fill="#3B435A"/><path d="M50.256 123.87c-1.037 6.012 6.183 27.501 4.12 32.578-.297.73 1.565.055 4.15 1.674.75.47 1.446 2.346 3.714 2.437 3.439.139 6.206.278 4.275-.761-.534-.288-5.843-1.783-6.502-3.456-1.369-3.472.932-40.226.932-40.226s-9.652 1.743-10.69 7.754z" fill="#FFD6D6"/><path d="M66.693 170.224c.105.829 1.205 2.191 1.205 3.264s-.333 2.7.047 2.857c.215.088.804-.026 1.028-.339.223-.313-.586-3.364.733-4.459 1.319-1.095-3.013-1.323-3.013-1.323z" fill="#3B435A"/><path d="M67.344 163.716s-2.243 3.436-1.237 6.118c1.005 2.683 3.423 3.037 4.776 2.305 1.352-.732 4.908 1.378 8.92.167 2.218-.67 6.787-4.009 5.068-5.607-.645-.6-5.054-.199-8.104 1.191-1.644.75-3.893-1.18-5.838-2.411-1.945-1.231-3.585-1.763-3.585-1.763z" fill="#3B435A"/><path d="M62.646 132.199c-1.037 6.012 6.183 27.501 4.12 32.578-.297.73 1.566.055 4.15 1.674.751.47 1.446 2.346 3.714 2.437 3.44.139 6.206.278 4.276-.761-.534-.288-5.844-1.783-6.503-3.456-1.369-3.472.932-40.226.932-40.226s-9.652 1.743-10.69 7.754z" fill="#FFD6D6"/><path d="M52.83 139.948c8.11 3.894 12.49 4.622 13.883 1.988 1.394-2.635 6.285.581 6.52-5.529.234-6.111.977-12.817.284-14.958-.693-2.141-.285.432-.285.432l-9.46 5.338-10.943 12.729z" fill="#3C4358"/><path d="M38.688 198.689a.83.83 0 01-.83-.83v-43.825a.83.83 0 111.66 0v43.825a.83.83 0 01-.83.83zm-22.06-11.319l-.04-.001a.83.83 0 01-.79-.869l1.807-43.774a.83.83 0 111.658.08l-1.806 43.774a.83.83 0 01-.829.79zm45.781 0a.83.83 0 01-.828-.79l-1.807-43.774a.83.83 0 111.658-.08L63.24 186.5a.83.83 0 01-.79.869l-.04.001zm-25.713-11.593a.83.83 0 01-.83-.83v-43.824a.83.83 0 111.66 0v43.824a.83.83 0 01-.83.83z" fill="#BBB4B4"/><path d="M35.066 153.881L17.76 143.89c-2.368-1.367-2.07-3.755.663-5.333l15.979-9.225c2.734-1.578 6.87-1.749 9.237-.382l17.306 9.99c2.368 1.367 2.07 3.755-.663 5.333l-15.979 9.225c-2.734 1.578-6.87 1.75-9.237.383z" fill="#BBB4B4"/><path d="M53.835 141.538c11.885-5.492 21.066-11.565 19.682-20.089-1.385-8.524-23.298-9.94-27.488-8.38-4.19 1.561-18.923 8.403-19.259 12.75-.335 4.346 19.375 19.273 27.065 15.719z" fill="#3C4358"/><path d="M73.694 113.873c-.54.82-.84 2.798.456 4.915 1.345 2.197 3.56 1.21 3.923.825 2.467-2.619 1.48-4.617.476-6.472-1.004-1.854-3.73-.974-4.855.732z" fill="#FFD3D4"/><path d="M51.783 124.076c2.476 4.023 25.458-3.829 25.027-6.395-.4-2.382-16.17-1.335-21.987 1.352-5.818 2.687-3.04 5.043-3.04 5.043zm61.953 35.316c2.447 4.04 25.584-6.828 24.829-10.487-.47-2.282-15.918 2.82-21.754 5.465-5.837 2.646-3.075 5.022-3.075 5.022z" fill="#FFD3D4"/><path d="M172.572 170.889v2.289l83.389-48.142v-2.289l-83.389 48.142z" fill="#B9CCE3"/><path d="M.039 71.283v2.288l172.533 99.607v-2.289L.039 71.283z" fill="#C4D2E3"/><path d="M172.572 170.889L.039 71.283 83.428 23.14l172.533 99.606-83.389 48.142z" fill="#CED7E3"/><path d="M176.143 118.279l-15.815-9.13-24.155 13.944 15.815 9.131 24.155-13.945z" fill="#EFEFEF"/><path d="M167.878 119.551l-10.408-6.009c-.131-.075-.131-.197 0-.272a.517.517 0 01.472 0l10.409 6.009c.13.075.13.197 0 .272a.52.52 0 01-.473 0zm-2.273 1.312l-10.408-6.008c-.131-.076-.131-.198 0-.273a.523.523 0 01.472 0l10.409 6.009c.13.075.13.197 0 .272a.52.52 0 01-.473 0zm-2.273 1.313l-10.408-6.009c-.131-.075-.131-.197 0-.273a.523.523 0 01.472 0l10.409 6.009c.13.075.13.197 0 .273a.525.525 0 01-.473 0zm-2.273 1.312l-10.408-6.009c-.13-.075-.13-.197 0-.273a.525.525 0 01.473 0l10.408 6.009c.13.075.13.197 0 .273a.525.525 0 01-.473 0zm-2.273 1.312l-10.408-6.009c-.13-.075-.13-.197 0-.273a.525.525 0 01.473 0l10.408 6.009c.13.076.13.198 0 .273a.525.525 0 01-.473 0zm-3.608 2.084l-5.204-3.005c-.131-.075-.131-.197 0-.273a.523.523 0 01.472 0l5.204 3.005c.131.075.131.197 0 .273a.523.523 0 01-.472 0z" fill="#C6C6C6"/><path opacity=".1" d="M147.514 119.421c-.19-.574-.834-1.002-1.437-.954a.87.87 0 00-.636.323l-.002-.002-3.83 4.541.002.002c-.157.207-.208.49-.106.796.19.574.834 1.001 1.437.954.311-.025.549-.172.682-.387l.001.001 3.76-4.442-.005-.003c.178-.21.241-.507.134-.829z" fill="#000"/><path d="M147.438 119.858c.292-.44.074-1.099-.488-1.472-.561-.372-1.253-.318-1.545.122-.292.44-.074 1.099.488 1.472.561.372 1.253.318 1.545-.122z" fill="#545456"/><path d="M145.439 118.463l-3.83 4.541 2.016 1.366 3.76-4.442-1.946-1.465z" fill="#545456"/><path d="M143.614 124.391c.292-.44.073-1.099-.488-1.472-.561-.372-1.253-.318-1.545.122-.292.44-.074 1.099.487 1.472.562.372 1.253.318 1.546-.122z" fill="#BF272D"/><path d="M47.387 60.452l-.02-1.031 17.778-7.209v.854l-17.758 7.386z" fill="#BDBDBD"/><path d="M57.692 59.65c4.846-2.283 8.133-5.497 7.34-7.178-.791-1.682-5.362-1.195-10.209 1.087-4.847 2.283-8.133 5.496-7.341 7.178.792 1.682 5.363 1.195 10.21-1.088z" fill="#3D4356"/><path d="M57.692 58.985c4.846-2.282 8.133-5.496 7.34-7.178-.791-1.681-5.362-1.194-10.209 1.088-4.847 2.283-8.133 5.496-7.341 7.178.792 1.682 5.363 1.195 10.21-1.088z" fill="#434856"/><path opacity=".05" d="M34.962 70.138l46.01-26.562-3.164-1.826L31.8 68.312l3.163 1.826z" fill="#000"/><path d="M54.244 57.6l4.026-2.324V40.999l-4.026 2.325V57.6z" fill="#434856"/><path d="M53.382 57.102l.862.498V43.324l-.862-.498v14.276z" fill="#3D4356"/><path d="M34.343 60.422L76.495 34.69c.794-.458 1.438-1.688 1.438-2.747l1.234-30.62c0-1.059-1.878-1.62-2.672-1.162L33.362 25.063c-.794.458-1.437 1.688-1.437 2.747v30.695c0 1.058 1.623 2.376 2.418 1.917z" fill="#3D4356"/><path d="M79.262 30.79v1.991c0 .917-.644 2.032-1.438 2.49L34.69 60.174c-.795.459-1.438.087-1.438-.83v-1.992L79.261 30.79z" fill="#434856"/><path d="M34.69 25.727l13.66-7.886L77.823.825c.794-.458 1.438-.087 1.438.83v29.217L48.349 48.718l-15.096 8.716V28.217c0-.917.643-2.032 1.438-2.49z" fill="#4D4D4D"/><path d="M34.69 26.723L47.2 19.5 77.824 1.82c.317-.183.575-.034.575.332v28.221l-31.2 18.012-13.084 7.554v-28.22c0-.366.258-.813.575-.996z" fill="#fff"/><path d="M65.097 25.525l2.542-1.468v7.018l-2.542 1.467v-7.017zm-4.972.702l2.541-1.468v9.186l-2.541 1.467v-9.185zm-4.973 3.891l2.542-1.467v8.165l-2.542 1.467v-8.165zm-4.972-.948l2.541-1.467v11.984l-2.541 1.467V29.17zm-4.973.948l2.541-1.467v13.906l-2.541 1.468V30.118z" fill="#4282B8"/><path d="M41.892 46.27a.332.332 0 01-.332-.331V26.844a.332.332 0 11.664 0v18.52l28.232-16.3a.332.332 0 11.332.576l-28.73 16.586a.332.332 0 01-.166.045z" fill="#CFCFCF"/><path d="M206.255 138.505l-15.815-9.131-24.155 13.945 15.816 9.131 24.154-13.945z" fill="#4282B8"/><path opacity=".3" d="M206.255 138.505l-15.815-9.131-24.155 13.945 15.816 9.131 24.154-13.945z" fill="#fff"/><path d="M208.843 139.003l-15.815-9.131-24.155 13.945 15.815 9.131 24.155-13.945z" fill="#4282B8"/><path opacity=".4" d="M208.843 139.003l-15.815-9.131-24.155 13.945 15.815 9.131 24.155-13.945z" fill="#fff"/><path d="M211.431 139.501l-15.815-9.131-24.155 13.945 15.815 9.131 24.155-13.945z" fill="#4282B8"/><path opacity=".5" d="M211.431 139.501l-15.815-9.131-24.155 13.945 15.815 9.131 24.155-13.945z" fill="#fff"/><path d="M194.622 144.615l-8.514-4.915 5.654-3.264 8.513 4.915-5.653 3.264zm-5.796 3.883l-9.444-5.453c-.319-.184-.319-.483 0-.667.32-.185.837-.185 1.157 0l9.444 5.452c.319.184.319.483 0 .668-.319.184-.837.184-1.157 0zm2.87-1.278l-10.1-5.831c-.16-.092-.16-.242 0-.334a.64.64 0 01.578 0l10.1 5.831c.16.092.16.241 0 .334a.64.64 0 01-.578 0z" fill="#EFF6FA"/><path d="M189.586 135.18l12.865 7.427-2.88-5.765-9.985-1.662z" fill="#EFF6FA"/><path d="M201.058 140.611l-1.776-1.026 2.691-1.554 1.777 1.026-2.692 1.554z" fill="#EFF6FA"/><path opacity=".05" d="M104.504 69.387l8.824-5.095-1.94-1.12-8.825 5.094 1.941 1.12z" fill="#000"/><path d="M113.149 62.79v1.605l-.179-.103v-1.606l.179.103zm-4.323 2.495v1.606l-.179-.103v-1.606l.179.103z" fill="#B9CCE3"/><path opacity=".05" d="M128.436 54.689l-14.125-8.155-28.84 16.65 14.126 8.154 28.839-16.65z" fill="#000"/><path d="M99.597 69.979l26.485-15.29-11.771-6.796-26.485 15.29 11.77 6.796z" fill="#EFEFEF"/><path d="M99.597 69.979l26.484-15.29V41.098l-26.484 15.29V69.98z" fill="#EFF6FA"/><path d="M120.306 54.584l2.942-1.7v-4.076l-2.942 1.698v4.078z" fill="#B9CCE3"/><path d="M104.504 67.577l8.824-5.095-1.94-1.12-8.825 5.094 1.941 1.12z" fill="#CED7E3"/><path d="M104.504 67.78v-.203l-1.941-1.12v.203l1.941 1.12z" fill="#B9CCE3"/><path d="M104.504 67.78l8.824-5.094v-.204l-8.824 5.095v.204z" fill="#C4D2E3"/><path d="M102.563 66.456l8.825-5.095v-7.385l-8.825 5.095v7.385z" fill="#B9CCE3"/><path d="M87.826 63.183l11.77 6.796V56.761l-5.885-10.687-5.21 3.446-.675.446v13.217z" fill="#DBEBF4"/><path d="M92.854 46.931l-6.56 4.338-.502-.29 7.062-4.67 7.063 12.824-.503-.29-6.56-11.912z" fill="#C4D2E3"/><path opacity=".1" d="M92.854 46.931l-6.56 4.338-.502-.29 7.062-4.67 7.063 12.824-.503-.29-6.56-11.912z" fill="#000"/><path d="M121.693 29.66l7.063 12.824-14.126-8.155 7.063-4.67z" fill="#4282B8"/><path d="M94.042 63.347l2.943 1.7v-4.078l-2.943-1.699v4.077zm-3.604-2.08l2.942 1.698v-4.077l-2.942-1.699v4.078z" fill="#B9CCE3"/><path d="M113.726 61.812l4.637-2.677v-8.88l-4.637 2.677v8.88z" fill="#C4D2E3"/><path d="M115.572 59.896l.945-.546v-7.165l-.945.545v7.166zm1.987-2.518v-.407a.136.136 0 01.131-.136c.16-.315.115-2.028-.063-2.198a.136.136 0 01-.068-.117v-.408a.136.136 0 01.272 0v.35c.13.162.206.559.225 1.183.015.48-.014 1.122-.144 1.348a.277.277 0 01-.081.09v.295a.136.136 0 01-.272 0z" fill="#B9CCE3"/><path d="M104.504 67.78v1.607l.179-.103v-1.607l-.179.104zm4.322-2.495v1.606l.18-.103v-1.606l-.18.103z" fill="#C4D2E3"/><path d="M104.504 67.78v1.607l-.18-.103v-1.607l.18.104z" fill="#B9CCE3"/><path d="M113.149 62.79v1.605l.18-.103v-1.606l-.18.103zm8.544-33.13l4.921 8.936 2.142 3.888-28.839 16.65-2.142-3.89-4.92-8.935 28.838-16.65z" fill="#C4D2E3"/><path d="M155.996 129.808l-.843.844 1.048-.246c.034-.395.24-.883.475-1.385-.474.235-.941.427-1.385.475l-.246 1.048.844-.843.107.107z" fill="#D3C2A8"/><path d="M155.153 130.652l.843-.844-.107-.107-.844.843-.033.14.141-.032z" fill="#4A4C56"/><path d="M155.961 129.913a.177.177 0 100-.355.177.177 0 000 .355z" fill="#4A4C56"/><path d="M167.575 118.938c.304-.304-.511-1.119-.815-.815l-.456.426.844.845.427-.456zm-8.432 6.394c-.096.096-.193.195-.291.296l1.217 1.217c.101-.098.2-.195.296-.291 1.138-1.138 5.107-5.37 6.619-6.985l-.856-.855c-1.614 1.511-5.847 5.48-6.985 6.618zm-3.003 3.385a.192.192 0 00.014.257l.284.284.285.285a.19.19 0 00.257.013 57.84 57.84 0 002.81-2.446l-1.203-1.203a58.593 58.593 0 00-2.447 2.81z" fill="#545456"/><path d="M158.587 125.907l1.203 1.203c.095-.088.188-.177.279-.265l-1.217-1.216c-.088.091-.177.184-.265.278zm7.717-7.358l-.176.165.856.855.164-.175-.844-.845z" fill="#C6AD91"/><path d="M166.319 118.632s-.095-.23-.303-.03c-.207.2-2.346 2.067-2.38 2.169-.034.102.034.238.238.306.207.069 2.445-2.445 2.445-2.445z" fill="#C6AD91"/><path d="M157.454 106.741l-15.815-9.13-24.155 13.945 15.815 9.13 24.155-13.945z" fill="#EFEFEF"/><path d="M149.189 108.014l-10.408-6.009c-.13-.075-.131-.198 0-.273a.525.525 0 01.473 0l10.408 6.009c.13.075.13.197 0 .273a.525.525 0 01-.473 0zm-2.273 1.312l-10.408-6.009c-.13-.075-.131-.197 0-.273a.523.523 0 01.472 0l10.409 6.009c.13.075.13.198 0 .273a.525.525 0 01-.473 0zm-11.308 7.919l-11.696-6.752c-.159-.092-.159-.24 0-.332l8.868-5.119a.633.633 0 01.575 0c.159.091.159.24 0 .332l-8.58 4.953 11.408 6.586c.159.092.159.241 0 .332a.633.633 0 01-.575 0z" fill="#C6C6C6"/><path d="M127.078 111.989l-1.15-.664 5.042-2.911 1.15.664-5.042 2.911zm2.432 1.404l-1.15-.664 6.178-3.567 1.15.664-6.178 3.567zm2.432 1.404l-1.15-.664 7.993-4.615 1.151.664-7.994 4.615zm2.432 1.404l-1.151-.664 5.042-2.911 1.15.664-5.041 2.911z" fill="#C6C6C6"/><path d="M175.846 80.317l-15.816-9.13-24.154 13.944 15.815 9.13 24.155-13.944z" fill="#EFEFEF"/><path d="M168.263 80.907l-10.409-6.009c-.13-.075-.13-.197 0-.272a.523.523 0 01.473 0l10.408 6.008c.13.076.131.198 0 .273a.521.521 0 01-.472 0zm-2.273 1.313l-10.409-6.01c-.13-.075-.13-.197 0-.272a.523.523 0 01.473 0l10.408 6.009c.13.075.131.197 0 .272a.521.521 0 01-.472 0zm-13.394 9.044l-12.055-6.96c-.159-.091-.159-.24 0-.331l11.768-6.794a.635.635 0 01.575 0l12.056 6.96c.158.091.159.24 0 .332l-11.768 6.793a.638.638 0 01-.576 0zm-11.193-7.125l11.481 6.627 11.193-6.461-11.48-6.628-11.194 6.462z" fill="#C6C6C6"/><path d="M143.974 86.287c-.159-.092-.159-.24 0-.332l11.768-6.794a.636.636 0 01.575 0c.159.091.159.24 0 .332l-11.768 6.794a.636.636 0 01-.575 0zm4.221 2.437c-.159-.092-.159-.24 0-.333l11.768-6.793a.635.635 0 01.575 0c.159.091.159.24 0 .332l-11.768 6.793a.635.635 0 01-.575 0z" fill="#C6C6C6"/><path d="M162.085 85.787l-12.056-6.96c-.158-.092-.159-.24 0-.332a.635.635 0 01.575 0l12.056 6.96c.159.091.159.24 0 .332a.635.635 0 01-.575 0zm-2.594 1.497l-12.055-6.96c-.159-.091-.159-.24 0-.332a.635.635 0 01.575 0l12.055 6.96c.159.092.159.24 0 .332a.636.636 0 01-.575 0zm-2.594 1.498l-12.056-6.96c-.158-.092-.158-.24 0-.332a.637.637 0 01.576 0l12.055 6.96c.159.091.159.24 0 .332a.635.635 0 01-.575 0z" fill="#C6C6C6"/><path d="M20.529 85.95c-1.381 4.052 5.721 30.834 9.46 30.213 3.738-.62.928-14.069.128-25.675-.82-11.903-8.207-8.59-9.588-4.538z" fill="#FFD3D4"/><path d="M29.267 78.292c-2.396.457-6.082 1.615-8.229 4.248-3.49 4.282.387 19.044.651 19.368.233.286 3.525 2.977 6.025 2.977 10.108.001 1.553-26.593 1.553-26.593z" fill="#4282B8"/><path opacity=".1" d="M32.78 87.116s-1.829 1.96-2.676 3.635c-2.235 4.413-3.96 10.891.55 12.846 4.51 1.954 2.126-16.481 2.126-16.481z" fill="#000"/><path d="M54.065 90.766c-.493-1.817-1.36-3.728-2.867-5.497-3.294-3.869-8.681-6.22-16.659-7.331-1.352-.189-5.955-.731-8.743 1.879-3.758 3.518-1.891 10.905-1.467 17.928.443 7.331 3.577 8.566 1.65 24.95-1.369 11.622 12.358 15.456 18.338 15.636 5.98.18 3.718-3.755 6.891-3.688 3.173.068 3.526-6.36 2.883-9.394a15.945 15.945 0 01-.278-1.918c-.046-.527 0-1.111.048-1.749.067-.882.137-1.872-.03-2.988-1.347-9.021-1.73-10.303 1.635-19.187.104-.277.2-.56.294-.845.839-2.545-1.137-5.741-1.695-7.796z" fill="#4282B8"/><path opacity=".1" d="M44.68 104.147c.464 5.246 6.166 14.422 9.181 17.435.067-.882.137-1.872-.03-2.988-1.347-9.021-1.73-10.303 1.635-19.187.104-.277.2-.56.294-.845-4.314-1.136-11.789-2.438-11.08 5.585z" fill="#000"/><path d="M32.99 145.42c-8.566-3.147-12.24-9.131-7.897-22.364.44-1.34.145-5.405.945-5.403.421.001 7.686 7.247 17.603 7.036 5.65-.121 10.004-2.903 10.22-2.688.214.215.525 5.042.525 5.042 1.869.498 8.566 5.848 4.237 11.294-3.283 4.131-15.816 10.689-25.632 7.083z" fill="#3C4358"/><path d="M26.687 112.52c.014.512-.847 2.558-.86 3.174-.013.615-.167 2.109.366 2.717.113.129 4.6 4.028 5.983 4.001.635-.013 13.363 4.486 14.091 1.742.337-1.273-19.19-10.908-19.256-11.23-.1-.483-.324-.404-.324-.404z" fill="#4282B8"/><path d="M56.284 91.972c2.16 3.88 1.595 33.156-2.193 33.277-3.787.122-4.777-14.594-6.303-26.672-1.564-12.388 6.336-10.484 8.496-6.605z" fill="#FFD3D4"/><path d="M44.884 99.065c.766 1.556.145 10.793 3.267 12.049 4.057 1.633 10.381-2.742 10.381-2.742s-.928-14.034-1.995-16.72c-.967-2.435-6.781-8.24-8.08-8.91-1.299-.671-5.907 11.575-3.573 16.323z" fill="#4282B8"/><path d="M32.758 77.815c-.232.056-.63.275-.533.614.097.339 1.881 2.036 4.197 2.217 1.626.128 6.498 1.045 6.838-.42.222-.96-9.007-2.775-10.502-2.411z" fill="#FCC"/><path d="M34.285 73.949c-.471 2.146-1.686 4.452-.04 5.2 1.648.749 6.63 1.23 6.742-.19.088-1.115.488-5.684 0-6.133-.488-.45-6.702 1.123-6.702 1.123z" fill="#FFC9CA"/><path d="M40.68 154.696L19.597 143.13c-1.23-.71-3.486-1.404-3.486-3.043-1.875-10.612-2.159-49.838 1.826-51.83 3.984-1.992 23.497 13.435 23.497 13.435 1.23.71 2.226 2.615 2.226 4.254-.568 11.292-.947 33.512 0 44.619 0 1.639-1.749 4.841-2.978 4.131z" fill="#BBB4B4"/><path d="M26.187 64.024s-2.96 4.577-3.016 6.38c-.056 1.803.618 3.705 2.168 4.663 0 0-1.292-3.296-1.264-4.676.017-.822 1.098-2.218 1.731-3.934.429-1.162.381-2.433.381-2.433z" fill="#434856"/><path d="M36.901 49.438c4.198-.588 13.648 2.81 13.521 14.84 0 0 4.498 9.152-.404 11.553 0 0-3.166 3.35-6.405 3.158 0 0-2.965 1.317-5.27.22 0 0 1.509.136 1.509-.385 0 0-2.882.165-3.898-.467 0 0 1.07 1.565 2.031 1.592 0 0-4.447-.549-4.913-1.043 0 0-4.118-1.015-4.338-1.647 0 0-4.202-2.087-4.478-4.258-.276-2.17.758-4.478.93-6.717.172-2.24-.827-15.09 11.715-16.846z" fill="#3B435A"/><path d="M38.682 52.527s3.598 1.127 4.564 5.903c1.193 5.899 2.076 10.741 2.937 12.533 1.001 2.086 1.547 3.907 1.392 5.694-.156 1.788-3.168 2.988-3.168 2.988s2.122-1.942 2.092-3.705c-.03-1.763-2.041-3.166-2.646-8.063-1.697-13.732-5.17-15.35-5.17-15.35zm-1.53 0c-.026.796-.804 14.26-1.141 16.159-.337 1.899-2.035 3.686-1.126 7.625.325 1.408 2.082 1.837 2.082 1.837s-2.861.889-2.984-3.49c-.122-4.38.913-4.105 1.135-6.29.213-2.102.297-7.675.852-10.676.555-3 1.182-5.165 1.182-5.165zm-1.175-1.039s-4.378.297-6.11 3.389c-1.73 3.092-1.868 9.924-2.92 11.939-1.092 2.094-1.433 8.936-.146 10.272 1.286 1.335 2.3 1.855 3.685 1.855 0 0-3.428-1.714-3.428-4.88s-.377-4.388 1.226-8.21c.57-1.359 1.473-9.65 2.702-11.108 1.655-1.963 4.991-3.257 4.991-3.257z" fill="#434856"/><path d="M40.59 51.832s3.949-.008 5.697 2.659c1.748 2.667 2.3 8.792 3.37 10.535 1.112 1.812 2.528 8.346 1.648 9.763-.858 1.38-2.352 1.982-3.596 2.069 0 0 3.305-1.145 3.106-3.988-.198-2.842-.74-5.294-2.418-8.625-.597-1.184-1.927-8.57-3.122-9.802-1.61-1.659-4.685-2.611-4.685-2.611z" fill="#434856"/><path d="M83.221 105.451c-3.01 3.265-7.695 32.136-2.4 33.83 3.609 1.154 4.52-14.51 8.835-25.894 4.426-11.675-3.425-11.201-6.435-7.936z" fill="#FFD3D4"/><path d="M85.012 139.882s-14.23-9.11-8.859-15.308c4.606-5.314.392-24.228 14.239-25.24 1.583-.115-.735 37.241-5.38 40.548z" fill="#4282B8"/><path opacity=".1" d="M82.026 137.742c-2.579.37-2.432-24.015.38-23.3 2.813.715.578 23.162-.38 23.3z" fill="#000"/><path d="M117.611 156.342c-.471-4.968-1.743-11.702-3.507-17.907-2.211-7.776 1.922-16.29 1.15-24.714-.013-.137-.023-.275-.038-.413-.952-8.559-10.936-10.574-10.936-10.574l-12.946-3.261s-7.573.024-8.872 4.757c-1.3 4.732-1.322 19.041-.752 24.962.57 5.921.556 33.045-.833 42.672-.488 3.382 19.862 9.575 25.133 9.16 5.271-.415 12.376-4.321 13.805-6.502.595-.908-1.868-14.636-2.204-18.18z" fill="#4282B8"/><path opacity=".1" d="M114.827 115.798c-4.769 2.243-9.937 6.369-9.642 13.679.384 9.541 6.208 22.517 12.264 29.095-.47-4.967-1.224-13.242-2.923-17.914-2.616-7.194.484-16.342.301-24.86z" fill="#000"/><path d="M109.135 123.769c-1.408 4.211 2.921 37.133 8.445 36.509 3.766-.424 2.814-20.171 2.089-32.324-.744-12.464-9.125-8.397-10.534-4.185z" fill="#FFD3D4"/><path d="M108.612 104.363c-.163-.445 9.697 5.162 11.64 8.667 1.682 3.031 5.44 13.461 5.987 22.541.257 4.269 2.053 5.941 1.826 8.465 0 0-10.23 9.037-19.846 5.048 0 0-.798-26.026-1.143-29.102 0 0 1.803-14.887 1.536-15.619z" fill="#4282B8"/><path d="M98.45 103.983c2.274.004 5.509-.511 6.866-.851a3.717 3.717 0 01-.044-.447c-.093-2.322 2.997-9.358-.414-11.547s-9.396-2.28-9.9 1.728c-.444 3.54-2.09 7.361-2.322 7.781.934 1.172 3.004 3.332 5.814 3.336z" fill="#FCC"/><path d="M111.519 78.24c.64.927-.297 4.829.191 6.822 1.54 6.298 1.237 14.797-9.398 15.131-10.39.327-10.86-4.858-11.189-11.49-.329-6.632-3.045-9.678 3.882-13.511 6.927-3.834 13.84-.818 16.514 3.049z" fill="#FFD2D2"/><path d="M113.229 79.014c.396-7.26-10.546-10.14-15.855-9.544-2.135.24-7.296 1.754-8.05 4.767-8.791 7.976 1.203 23.372 7.414 24.203 2.686.36 5.672-.14 7.173-1.758.212-.229 1.144-1.49.834-1.447-1.025.138-2.741-.92-2.557-4.532.293-5.78 2.642-2.959 3.198-1.942.557 1.017.8 3.042.8 3.042l.706 1.148.881-3.311c1.758-2.158 2.654-3.74 3.213-5.88.724-2.142 1.889-2.78 2.243-4.746z" fill="#3D4356"/><path d="M103.971 192.868l-21.085-11.565c-1.23-.71-3.486-1.404-3.486-3.044-1.876-10.611-2.159-49.837 1.826-51.829 3.984-1.992 23.497 13.435 23.497 13.435 1.23.71 2.226 2.614 2.226 4.254-.568 11.292-.947 33.512 0 44.618 0 1.64-1.749 4.841-2.978 4.131z" fill="#BBB4B4"/><path d="M180.162 52.252s.507 3.552-3.822 3.98c-4.329.426-6.139-1.248-5.509-2.63.629-1.382 8.151-3.686 9.331-1.35z" fill="#DBEBF4"/><path d="M167.626 44.006c-.279-2.65-2.065-9.59 1.454-9.582 3.519.008 8.39 5.566 8.39 8.033 0 2.468-1.141 6.702-3.311 7.068-2.169.366-6.165-2.011-6.533-5.519z" fill="#FFD4D4"/><path d="M186.272 83.603c5.706-1.243-3.679-37.3-9.67-36.002-5.99 1.297-6.638 1.513-6.638 4.43 0 2.919 10.785 32.775 16.308 31.572z" fill="#363E58"/><path d="M163.324 41.089l-1.11-15.104c0-.139.966-.754 1.328-.749l10.489 6.056c.12.07.218.238.218.377v15.727c0 .138-1.156.932-1.277.863l-9.43-6.793a.482.482 0 01-.218-.377z" fill="#4A4C56"/><path d="M162.197 41.8V26.073c0-.139.097-.195.217-.126l10.489 6.055c.12.07.218.239.218.377v15.727c0 .139-.098.195-.218.126l-10.489-6.056a.481.481 0 01-.217-.377z" fill="#545456"/><path d="M164.579 32.723l-1.523-.88a.48.48 0 01-.217-.376V30.21c0-.138.097-.195.217-.125l1.523.88a.48.48 0 01.218.376v1.256c0 .14-.097.195-.218.126z" fill="#B9CCE3"/><path d="M172.25 34.664l-9.194-5.308a.48.48 0 01-.217-.377v-1.855c0-.139.097-.195.217-.125l9.194 5.308a.48.48 0 01.218.376v1.855c0 .14-.097.195-.218.126z" fill="#E6E6E6"/><path d="M167.136 34.2l-1.523-.88a.48.48 0 01-.217-.377v-1.256c0-.14.097-.195.217-.126l1.523.88a.48.48 0 01.218.376v1.257c0 .138-.097.195-.218.125zm2.557 1.475l-1.523-.88a.48.48 0 01-.217-.376v-1.256c0-.139.097-.195.217-.126l1.523.88a.478.478 0 01.218.376v1.257c0 .139-.097.195-.218.125zm2.557 1.476l-1.523-.879a.48.48 0 01-.217-.377V34.64c0-.139.097-.195.217-.126l1.523.88a.48.48 0 01.218.377v1.256c0 .139-.097.195-.218.125zm-7.671-1.941l-1.523-.879a.481.481 0 01-.217-.377v-1.256c0-.139.097-.195.217-.126l1.523.88a.48.48 0 01.218.377v1.256c0 .139-.097.195-.218.126zm2.557 1.477l-1.523-.88a.48.48 0 01-.217-.377v-1.256c0-.139.097-.195.217-.126l1.523.88a.48.48 0 01.218.377v1.256c0 .139-.097.195-.218.126zm2.557 1.476l-1.523-.88a.48.48 0 01-.217-.376V35.65c0-.139.097-.195.217-.125l1.523.879a.48.48 0 01.218.377v1.256c0 .139-.097.195-.218.126zm2.557 1.476l-1.523-.88a.48.48 0 01-.217-.376v-1.257c0-.138.097-.194.217-.125l1.523.88a.48.48 0 01.218.376v1.256c0 .14-.097.195-.218.126zm-7.671-1.941l-1.523-.88a.48.48 0 01-.217-.376v-1.257c0-.138.097-.195.217-.125l1.523.88a.48.48 0 01.218.376v1.256c0 .139-.097.195-.218.126zm2.557 1.476l-1.523-.88a.48.48 0 01-.217-.376v-1.256c0-.14.097-.195.217-.126l1.523.88a.48.48 0 01.218.376v1.256c0 .14-.097.195-.218.126zm2.557 1.476l-1.523-.88a.48.48 0 01-.217-.376v-1.256c0-.139.097-.195.217-.126l1.523.88a.48.48 0 01.218.376v1.257c0 .138-.097.195-.218.125zm2.557 1.477l-1.523-.88a.48.48 0 01-.217-.377v-1.256c0-.139.097-.195.217-.126l1.523.88a.48.48 0 01.218.377V42c0 .139-.097.195-.218.126zm-7.671-1.942l-1.523-.879a.48.48 0 01-.217-.377v-1.256c0-.139.097-.195.217-.126l1.523.88a.48.48 0 01.218.377v1.256c0 .139-.097.195-.218.125zm2.557 1.477l-1.523-.88a.48.48 0 01-.217-.377V39.15c0-.139.097-.195.217-.126l1.523.88a.48.48 0 01.218.377v1.256c0 .139-.097.195-.218.126zm2.557 1.476l-1.523-.88a.48.48 0 01-.217-.377v-1.256c0-.139.097-.195.217-.125l1.523.879a.48.48 0 01.218.377v1.256c0 .139-.097.195-.218.126zm-5.114-.465l-1.523-.88a.481.481 0 01-.217-.376V40.16c0-.138.097-.195.217-.125l1.523.88a.48.48 0 01.218.376v1.256c0 .139-.097.195-.218.126zm2.557 1.476l-1.523-.88a.48.48 0 01-.217-.376v-1.257c0-.138.097-.195.217-.125l1.523.88a.477.477 0 01.218.376v1.256c0 .14-.097.195-.218.126zm2.557 1.476l-1.523-.88a.48.48 0 01-.217-.376v-1.256c0-.14.097-.195.217-.126l1.523.88a.478.478 0 01.218.376V45.5c0 .138-.097.195-.218.125zm2.557 1.476l-1.523-.879a.481.481 0 01-.217-.377v-3.744c0-.138.097-.195.217-.125l1.523.88a.477.477 0 01.218.376v3.744c0 .139-.097.195-.218.125z" fill="#B9CCE3"/><path d="M187.561 64.575c1.375 1.17 2.856 3.817 1.489 6.369-1.42 2.65-5.934.97-6.779.401-5.745-3.863-4.886-6.314-3.928-8.572.959-2.259 6.355-.632 9.218 1.802z" fill="#FFD3D4"/><path d="M219.757 87.99s-.12 5.584-3.472 5.649c-3.352.064-31.537-17.748-30.678-19.595.858-1.846 3.281-6.957 5.048-6.31 1.766.648 28.42 15.65 29.102 20.256z" fill="#363E58"/><path d="M186.799 65.972c-.277-3.893-.117-5.156 1.582-4.63 1.7.528.547 6.467.547 6.467l-2.129-1.837z" fill="#FFD3D4"/><path d="M175.445 43.807c-3.939-2.962-5.14-4.257-5.534-2.643-.449 1.84 3.686 6.213 4.707 5.804 2.356-.944.827-3.161.827-3.161z" fill="#FFD4D4"/></g><defs><clipPath id="clip0_28_932"><path fill="#fff" d="M0 0h256v252H0z"/></clipPath></defs></svg>