<svg width="161" height="213" fill="none" xmlns="http://www.w3.org/2000/svg"><g clip-path="url(#clip0_45_3)"><path d="M123.093 141.88a.76.76 0 01-.76-.759v-37.037a.76.76 0 011.52 0v37.037a.76.76 0 01-.76.759zm-20.203-10.35l-.038-.001a.758.758 0 01-.722-.795l1.654-36.99a.76.76 0 011.519.073l-1.655 36.991a.76.76 0 01-.758.722zm41.927 0a.76.76 0 01-.759-.722l-1.654-36.99a.76.76 0 01.722-.796.764.764 0 01.797.722l1.654 36.99a.76.76 0 01-.723.795l-.037.001zm-23.549-10.6a.76.76 0 01-.76-.759V83.134a.76.76 0 011.521 0v37.037a.76.76 0 01-.761.759z" fill="#BBB4B4"/><path d="M143.771 94.063l-18.934-13.55c-1.126-.649-3.569 1.691-3.569.192 1.12-10.559 2.82-35.767 1.53-45.842 0-1.499.913-2.188 2.039-1.539l19.623 11.312c1.127.649 2.039 2.39 2.039 3.89 1.675 9.489 1.234 30.804 0 41.76 0 1.499-1.601 4.426-2.728 3.777z" fill="#BBB4B4"/><path d="M119.775 103.944l-15.849-9.136c-2.168-1.25-1.896-3.433.608-4.876l14.633-8.435c2.504-1.443 6.292-1.6 8.46-.35l15.849 9.135c2.169 1.25 1.897 3.434-.607 4.877l-14.634 8.435c-2.504 1.443-6.291 1.6-8.46.35z" fill="#BBB4B4"/><path d="M96.064 157.934c-1.151.856-5.039 4.246-3.843 5.583 1.195 1.338 6.13.373 8.857-.682 2.729-1.054 5.189-8.638 5.189-8.638s-.257 3.307.21 3.627c.467.32.833-.379.833-.745s-.09-3.929.088-4.375c.178-.445.08-2.151-.461-2.657-.541-.507-1.268-1.281-2.924-1.257-1.655.024-5.356 7.218-7.95 9.144z" fill="#3C4358"/><path d="M105.595 137.071c2.171 3.333-1.225 9.596.98 12.58.731.989-1.62 5.871-3.063 7.569-.94 1.106-4.209 3.918-6.276 2.187-1.323-1.107 3.201-8.352 4.548-9.521.86-.746-1.237-10.675-1.63-11.628-.393-.953 4.502-2.627 5.441-1.187z" fill="#FFD3D4"/><path d="M84.215 152.153c-1.15.855-5.038 4.246-3.843 5.583 1.195 1.337 6.13.372 8.858-.682 2.728-1.054 5.188-8.638 5.188-8.638s-.257 3.307.21 3.627c.467.32.834-.379.834-.746 0-.366-.091-3.929.087-4.374.179-.446.08-2.151-.46-2.658-.541-.506-1.268-1.28-2.924-1.256-1.656.024-5.357 7.217-7.95 9.144z" fill="#3C4358"/><path d="M93.746 131.289c2.171 3.333-1.225 9.596.98 12.58.731.99-1.62 5.872-3.063 7.57-.94 1.106-4.209 3.918-6.276 2.187-1.322-1.108 3.201-8.352 4.548-9.521.86-.747-1.237-10.676-1.63-11.629-.393-.953 4.503-2.627 5.441-1.187z" fill="#FFD3D4"/><path d="M115.965 67.854c1.827.945 14.634 10.16 11.393 13.115-3.241 2.955-25.383 22.471-35.106 22.176 0 0-6.117-8.218-6.837-10.286-.72-2.068 14.565-17.257 28.442-18.765 0 0 .282-7.185 2.108-6.24z" fill="#3D4356"/><path d="M112.013 29.93c-2.05 3.338-2.786 30.02.679 30.217 3.464.197 5.354-13.729 6.975-24.242 1.662-10.783-5.605-9.311-7.654-5.974z" fill="#FFD3D4"/><path d="M119.434 25.132c-1.647-.01-6.977 1.431-8.148 3.88-1.061 2.22-.613 2.137-.371 2.433.213.262.905 4.143 1.974 4.589 1.069.446 6.545-10.902 6.545-10.902z" fill="#4282B8"/><path d="M139.874 41.84c-.243-2.673-.637-4.816-1.499-6.803-.685-1.58-1.722-3.195-3.32-4.6-3.492-3.069-6.158-5.61-13.535-5.571-1.25.007-6.487 1.178-8.672 3.904-2.946 3.676-2.387 10.558-1.465 16.925.923 6.367 7.283 11.574 7.252 21.855-.033 10.701 13.229 12.37 18.673 11.75 5.443-.62-.434-5.585 2.45-5.939 2.885-.354 2.363-6.218 1.382-8.878-.179-.488-.06-2.269 0-3.553.054-1.15.126-4.824 0-6.598-.272-3.83-1.158-11.301-1.266-12.491z" fill="#4282B8"/><path opacity=".05" d="M132.815 43.597c.158 10.884 3.062 15.031 8.309 17.368.026-1.147.142-4.859.016-6.634-.272-3.829-1.158-11.3-1.266-12.49-.243-2.674-.637-4.817-1.499-6.804-3.034 1.315-5.601 5.736-5.56 8.56z" fill="#000"/><path d="M113.776 79.789s0-10.993 1.947-13.511c.789-1.02.132-4.942.865-4.94.385 0 7.039 6.627 16.121 6.433 5.175-.11 9.162-2.654 9.359-2.457.197.196.481 4.61.481 4.61 1.712.455 5.564 18.117-7.342 25.435-6.143 3.483-21.431-15.57-21.431-15.57z" fill="#3C4358"/><path d="M120.859 22.54c-.432 1.963-1.509 4.176 0 4.86 1.508.686 4.939-.273 6.138-1.094 1.198-.822.446-4.381 0-4.792-.447-.41-6.138 1.027-6.138 1.027z" fill="#FFC9CA"/><path d="M113.107 11.833c.084 1.011.293 1.843.458 2.493.95 3.73.298 9.617-.049 10.54-.549 1.462 9.336-5.685 10.443-7.765.703-1.321.667-8.927-2.11-14.605 0 0-8.825 8.326-8.742 9.337z" fill="#3C4358"/><path d="M114.219 12.74c-.431 5.57 1.473 11.253 7.053 11.683 5.579.43 11.841-4.403 12.272-9.974.431-5.57-3.743-10.434-9.322-10.865-5.58-.43-9.572 3.585-10.003 9.156z" fill="#FFD3D4"/><path d="M119.514 25.807s.419-.655.568-.606c.149.048.124.958.865 1.176.741.218 6.657-1.455 6.84-1.322.182.134 2.101 2.195 1.688 2.39-.413.193-6.28 1.806-8.843.921-2.564-.885-1.118-2.559-1.118-2.559z" fill="#4282B8"/><path opacity=".05" d="M119.514 25.807s.419-.655.568-.606c.149.048.124.958.865 1.176.741.218 6.657-1.455 6.84-1.322.182.134 2.101 2.195 1.688 2.39-.413.193-6.28 1.806-8.843.921-2.564-.885-1.118-2.559-1.118-2.559z" fill="#000"/><path d="M112.702 12.936s4.354 3.449 11.101 2.062c4.248-.874 4.025 12.227 3.475 13.69-.549 1.461 9.184-5.495 10.29-7.576 1.107-2.08.386-19.753-9.999-20.924-14.911-1.681-14.867 12.748-14.867 12.748z" fill="#3C4358"/><path d="M116.481 57.202c.013.469-.739 1.781-.75 2.344-.012.563.51 1.928.999 2.484.103.118 2.653 2.92 3.921 2.895.581-.012 4.683 1.601 4.675 1.378-.043-1.203-8.488-8.437-8.548-8.73-.091-.443-.297-.371-.297-.371z" fill="#4282B8"/><path d="M142.383 77.892s1.522 7.59-.82 11.344c-3.321 5.326-25.522 21.119-39.541 20.271 0 0-4.248 2.12-5.522-7.634-.284-2.175 22.921-21.745 37.038-23.252 8.032-.858 8.845-.729 8.845-.729z" fill="#3D4356"/><path d="M99.737 89.881s-1.3 24.492-1.105 47.617c.01 1.311-4.995 2.822-6.408 2.886-1.727.078-6.293-1.486-6.158-3.921.772-13.964-5.228-39.872.44-45.14 6.907-6.42 13.231-1.442 13.231-1.442z" fill="#3C4358"/><path d="M109.534 94.7s-1.299 24.491-1.105 47.616c.011 1.311-4.995 2.822-6.407 2.886-1.728.078-6.294-1.486-6.159-3.921.772-13.964-5.228-39.872.44-45.14 6.907-6.42 13.231-1.442 13.231-1.442z" fill="#3C4358"/><path d="M139.395 38.447c2.026 3.52.887 30-2.58 30.157-3.467.158-3.573-12.99-5.119-24.014-1.585-11.307 5.673-9.664 7.699-6.143z" fill="#FFD3D4"/><path d="M130.54 44.772c.701 1.423 6.953-4.92 8.426-4.67 1.171.2 1.111 2.117 1.111 2.117s1.39-1.828.413-4.284c-.886-2.226-4.608-6.71-5.798-7.323-1.189-.614-6.29 9.819-4.152 14.16z" fill="#4282B8"/><path opacity=".05" d="M161 166.433l-83.691-46.21-40.625 23.416 83.691 46.211L161 166.433zm-35.421-21.802l-23.702-13.662 23.701-13.662 23.702 13.662-23.701 13.662z" fill="#333"/><path d="M44.151 145.603l2.226-1.283V79.15l-2.226 1.283v65.17z" fill="#B9CCE3"/><path d="M41.925 144.32l2.226 1.283v-65.17l-2.226-1.283v65.17z" fill="#C4D2E3"/><path d="M77.093 126.452l2.226-1.283v-65.17l-2.226 1.283v65.17z" fill="#B9CCE3"/><path d="M74.868 125.169l2.225 1.283v-65.17L74.868 60v65.17z" fill="#C4D2E3"/><path d="M154.537 168.543l2.226-1.283v-65.169l-2.226 1.283v65.169z" fill="#B9CCE3"/><path d="M152.311 167.26l2.226 1.283v-65.169l-2.226-1.283v65.169z" fill="#C4D2E3"/><path d="M121.297 187.694l2.226-1.283v-65.17l-2.226 1.283v65.17z" fill="#B9CCE3"/><path d="M119.071 186.411l2.226 1.283v-65.17l-2.226-1.283v65.17z" fill="#C4D2E3"/><path d="M117.852 125.384v2.093l40.625-23.417v-2.093l-40.625 23.417z" fill="#B9CCE3"/><path d="M34.158 79.193l83.691 46.21 40.625-23.417-83.691-46.21-40.625 23.417z" fill="#CED7E3"/><path d="M34.158 79.171v2.093l83.694 46.213v-2.093L34.158 79.171z" fill="#C4D2E3"/><path opacity=".1" d="M97.984 83.821c1.745 0 3.16-.816 3.16-1.822 0-1.005-1.415-1.821-3.16-1.821s-3.16.816-3.16 1.822c0 1.005 1.415 1.821 3.16 1.821z" fill="#000"/><path d="M94.537 76.07h6.754c0 2.523-.505 5.506-.505 5.506 0 .423-.28.847-.841 1.17-1.122.647-2.94.647-4.062 0-.561-.323-.842-.747-.842-1.17 0 0-.504-2.983-.504-5.506z" fill="#4282B8"/><path d="M95.526 77.446c1.319.76 3.457.76 4.776 0 .39-.225.662-.492.821-.776.003.03.008.059.008.088 0 .475-.314.949-.943 1.311-1.256.724-3.293.724-4.55 0-.666-.384-.975-.895-.934-1.398.16.283.431.55.822.775z" fill="#4282B8"/><path d="M97.914 78.016c1.865 0 3.377-.871 3.377-1.946s-1.512-1.947-3.377-1.947c-1.865 0-3.377.872-3.377 1.947 0 1.075 1.512 1.946 3.377 1.946z" fill="#CDCDCD"/><path d="M101.446 81v-.873c0-.678-.476-1.501-1.064-1.84l-.2-.116.459-.23.201.116c.587.34 1.064 1.163 1.064 1.84v.873c0 .53-.2.89-.516 1.037l.003.001a4.963 4.963 0 01-.507.25c.342-.133.56-.503.56-1.058z" fill="#4282B8"/><path d="M100.387 81.236l.053.03c.144.084.275.16.387.215a.566.566 0 01-.488.14h-.255l-.157-.155s.405-.11.46-.23z" fill="#4282B8"/><path opacity=".1" d="M101.446 81v-.873c0-.678-.476-1.501-1.064-1.84l-.2-.116.459-.23.201.116c.587.34 1.064 1.163 1.064 1.84v.873c0 .53-.2.89-.516 1.037l.003.001a4.963 4.963 0 01-.507.25c.342-.133.56-.503.56-1.058z" fill="#fff"/><path opacity=".1" d="M100.387 81.236l.053.03c.144.084.275.16.387.215a.566.566 0 01-.488.14h-.255l-.157-.155s.405-.11.46-.23z" fill="#fff"/><path d="M99.927 81.466l.027.015c.136.078.265.123.385.14a.566.566 0 00.488-.14c.138-.132.221-.346.221-.631v-1.032c0-.38-.267-.843-.597-1.033l-.285-.164c.006-.15.012-.3.016-.45l.2.116c.588.338 1.064 1.162 1.064 1.84V81c0 .555-.218.925-.56 1.058l-.015.005a.285.285 0 01-.039.011c-.263.08-.591.031-.947-.174l-.01-.006.052-.428z" fill="#4282B8"/><path opacity=".1" d="M99.927 81.466l.027.015c.136.078.265.123.385.14a.566.566 0 00.488-.14c.138-.132.221-.346.221-.631v-1.032c0-.38-.267-.843-.597-1.033l-.285-.164c.006-.15.012-.3.016-.45l.2.116c.588.338 1.064 1.162 1.064 1.84V81c0 .555-.218.925-.56 1.058l-.015.005a.285.285 0 01-.039.011c-.263.08-.591.031-.947-.174l-.01-.006.052-.428z" fill="#000"/><path d="M100.141 77.168c-.59.34-1.38.527-2.227.527s-1.638-.187-2.227-.527a2.03 2.03 0 01-.613-.513c.14-.25.381-.488.728-.687 1.166-.673 3.057-.673 4.224 0 .346.2.587.436.728.687-.141.186-.347.36-.613.513z" fill="#A47C52"/><path d="M95.526 77.446c1.319.76 3.457.76 4.776 0 1.318-.76 1.318-1.993 0-2.753-1.32-.76-3.457-.76-4.776 0s-1.32 1.993 0 2.753zm-.668-1.376c0-.4.294-.79.829-1.099.59-.34 1.38-.527 2.227-.527.846 0 1.637.188 2.227.527.534.308.828.698.828 1.099 0 .4-.294.79-.828 1.098-.59.34-1.38.527-2.227.527s-1.638-.187-2.227-.527c-.534-.308-.829-.698-.829-1.098z" fill="#E4E4E4"/><path opacity=".1" d="M87.34 104.769c1.746 0 3.16-.815 3.16-1.821s-1.414-1.822-3.16-1.822c-1.745 0-3.16.816-3.16 1.822 0 1.006 1.415 1.821 3.16 1.821z" fill="#000"/><path d="M83.893 97.018h6.754c0 2.523-.504 5.506-.504 5.506 0 .423-.28.847-.842 1.17-1.121.647-2.94.647-4.062 0-.56-.323-.84-.747-.84-1.17 0 0-.506-2.983-.506-5.506z" fill="#4282B8"/><path d="M84.882 98.394c1.32.76 3.457.76 4.776 0 .39-.225.663-.492.822-.775.002.029.007.058.007.087 0 .475-.314.95-.942 1.311-1.256.724-3.293.725-4.55 0-.666-.384-.975-.895-.934-1.398.159.283.43.55.821.775z" fill="#4282B8"/><path d="M87.27 98.965c1.866 0 3.377-.872 3.377-1.947 0-1.075-1.511-1.947-3.377-1.947-1.865 0-3.377.872-3.377 1.947 0 1.075 1.512 1.947 3.377 1.947z" fill="#CDCDCD"/><path d="M90.803 101.948v-.873c0-.677-.476-1.501-1.064-1.84l-.2-.115.46-.23.2.116c.587.338 1.064 1.162 1.064 1.84v.873c0 .529-.2.889-.516 1.036l.003.002a4.773 4.773 0 01-.507.249c.342-.133.56-.503.56-1.058z" fill="#4282B8"/><path d="M89.744 102.184l.052.031c.145.083.275.159.388.214a.566.566 0 01-.488.14h-.255l-.157-.155s.405-.11.46-.23z" fill="#4282B8"/><path opacity=".1" d="M90.803 101.948v-.873c0-.677-.476-1.501-1.064-1.84l-.2-.115.46-.23.2.116c.587.338 1.064 1.162 1.064 1.84v.873c0 .529-.2.889-.516 1.036l.003.002a4.773 4.773 0 01-.507.249c.342-.133.56-.503.56-1.058z" fill="#fff"/><path opacity=".1" d="M89.744 102.184l.052.031c.145.083.275.159.388.214a.566.566 0 01-.488.14h-.255l-.157-.155s.405-.11.46-.23z" fill="#fff"/><path d="M89.284 102.414l.026.015c.136.078.266.123.386.14a.566.566 0 00.488-.14c.138-.132.221-.346.221-.631v-1.032c0-.38-.267-.842-.597-1.032l-.286-.165c.007-.15.012-.3.017-.45l.2.116c.588.339 1.064 1.163 1.064 1.84v.873c0 .555-.218.925-.56 1.058l-.015.005c-.013.005-.027.008-.04.012-.263.08-.59.03-.947-.175l-.01-.006c.017-.131.035-.274.053-.428z" fill="#4282B8"/><path opacity=".1" d="M89.284 102.414l.026.015c.136.078.266.123.386.14a.566.566 0 00.488-.14c.138-.132.221-.346.221-.631v-1.032c0-.38-.267-.842-.597-1.032l-.286-.165c.007-.15.012-.3.017-.45l.2.116c.588.339 1.064 1.163 1.064 1.84v.873c0 .555-.218.925-.56 1.058l-.015.005c-.013.005-.027.008-.04.012-.263.08-.59.03-.947-.175l-.01-.006c.017-.131.035-.274.053-.428z" fill="#000"/><path d="M89.498 98.116c-.59.34-1.381.527-2.228.527-.846 0-1.637-.187-2.227-.527a2.03 2.03 0 01-.613-.512c.141-.252.382-.488.728-.688 1.167-.672 3.058-.672 4.225 0 .346.2.587.436.728.688-.14.185-.347.359-.613.512z" fill="#A47C52"/><path d="M84.882 98.394c1.32.76 3.457.76 4.776 0 1.32-.76 1.32-1.992 0-2.753-1.318-.76-3.457-.76-4.776 0-1.318.76-1.318 1.993 0 2.753zm-.667-1.376c0-.4.294-.79.828-1.098.59-.34 1.381-.527 2.227-.527.847 0 1.638.187 2.228.527.534.308.828.698.828 1.098 0 .4-.294.79-.828 1.098-.59.34-1.381.527-2.228.527-.846 0-1.637-.187-2.227-.527-.534-.308-.828-.698-.828-1.098z" fill="#E4E4E4"/><path d="M144.122 103.587l-14.484-8.349-22.122 12.752L122 116.338l22.122-12.751z" fill="#4282B8"/><path opacity=".3" d="M144.122 103.587l-14.484-8.349-22.122 12.752L122 116.338l22.122-12.751z" fill="#fff"/><path d="M146.492 104.042l-14.484-8.348-22.122 12.751 14.484 8.349 22.122-12.752z" fill="#4282B8"/><path opacity=".4" d="M146.492 104.042l-14.484-8.348-22.122 12.751 14.484 8.349 22.122-12.752z" fill="#fff"/><path d="M148.862 104.498l-14.484-8.349-22.122 12.751 14.484 8.349 22.122-12.751z" fill="#4282B8"/><path opacity=".5" d="M148.862 104.498l-14.484-8.349-22.122 12.751 14.484 8.349 22.122-12.751z" fill="#fff"/><path opacity=".05" d="M70.802 187.652c1.646-3.862-4.81-10.304-14.423-14.388-9.612-4.083-18.738-4.262-20.385-.399-1.646 3.862 4.811 10.304 14.423 14.388 9.612 4.083 18.738 4.262 20.385.399z" fill="#1A1A1A"/><path d="M48.754 169.259c-.005.004-.006.009-.008.014l-3.286.285 2.29.841c-4.155 6.859-7.869 1.381-8.362 1.539-.507.162-1.916 3.893-.767 6.954.25.664.22.747.64 1.156.023.238.069.491.16.711.266.636 2.15 1.646 3.965 1.646 1.813 0 5.227-2.992 5.227-2.992v-.678c1.608-1.053 3.213-2.021 3.93-2.061 1.411-.078 8.311-4.736 8.311-7.415 0-2.679-9.063-2.811-12.1 0z" fill="#4A4C56"/><path d="M48.058 170.362l-2.453-.798c.01-.326.016-.652.029-.971.092-2.29 1.066-5.93-1.05-5.979-2.117-.05-4.917-1.328-5.074 5.203 0 0-.095 4.073 0 4.663.095.59 1.047 1.785 4.517 1.785.829 0 1.9-.473 1.9-.473s2.364-.878 3.21-2.446l-1.08-.984z" fill="#FFD6D6"/><path d="M49.038 122.314c.996 3.599.515 20.277.71 43.401.01 1.312-5.004 5.562-6.42 5.625-1.73.078-6.304-1.486-6.17-3.92.774-13.965-5.325-27.336-5.682-39.437-.613-20.808 16.566-9.267 17.562-5.669z" fill="#3C4358"/><path d="M40.698 122.894c-2.84-.657-.3-6.119 2.93-6.09 3.23.03 3.648-.388 4.455.956.808 1.343-2.541 5.91-4.575 6.269-2.033.358-2.81-1.135-2.81-1.135z" fill="#FFD3D4"/><path d="M64.694 178.716c-.004.003-.006.009-.008.014l-3.286.285 2.29.841c-4.155 6.859-7.869 1.381-8.362 1.539-.507.162-1.916 3.893-.766 6.954.249.664.22.747.64 1.156.022.237.068.491.16.711.265.636 2.15 1.646 3.964 1.646 1.813 0 5.227-2.992 5.227-2.992v-.678c1.608-1.053 3.213-2.022 3.93-2.061 1.411-.078 8.311-4.736 8.311-7.415 0-2.679-9.063-2.811-12.1 0z" fill="#4A4C56"/><path d="M63.998 179.819l-2.453-.798c.01-.326.016-.652.03-.971.091-2.29 1.066-5.93-1.05-5.979-2.117-.05-4.918-1.328-5.075 5.203 0 0-.095 4.073 0 4.663.095.59 1.047 1.785 4.517 1.785.829 0 1.9-.474 1.9-.474s2.364-.877 3.21-2.445l-1.079-.984z" fill="#FFD6D6"/><path d="M64.748 131.111c1.427 3.491.515 21.358.71 44.482.01 1.312-5.004 4.306-6.42 4.37-1.73.078-6.304-1.487-6.17-3.921.774-13.964-5.138-29.831-4.87-41.934.209-9.419 15.323-6.487 16.75-2.997z" fill="#3C4358"/><path opacity=".05" d="M24.288 212.948L.587 199.286l23.7-13.661 23.702 13.662-23.7 13.661z" fill="#1A1A1A"/><path d="M23.672 209.596a.759.759 0 01-.76-.759v-40.073a.76.76 0 011.52 0v40.073c0 .42-.34.759-.76.759zm-20.203-10.35H3.43a.76.76 0 01-.722-.795l1.654-40.027a.763.763 0 01.796-.721.76.76 0 01.723.795l-1.654 40.026a.76.76 0 01-.76.722zm41.927 0a.76.76 0 01-.758-.722l-1.655-40.026a.759.759 0 01.723-.795.763.763 0 01.796.721l1.654 40.027a.759.759 0 01-.722.794l-.038.001zm-23.548-10.6a.76.76 0 01-.76-.759v-40.073a.76.76 0 011.52 0v40.073c0 .42-.34.759-.76.759z" fill="#BBB4B4"/><path d="M20.354 168.624l-15.848-9.135c-2.169-1.25-1.897-3.434.607-4.877l14.633-8.435c2.504-1.443 6.292-1.6 8.46-.35l15.85 9.136c2.168 1.25 1.896 3.433-.608 4.876l-14.633 8.435c-2.504 1.443-6.292 1.6-8.46.35z" fill="#BBB4B4"/><path d="M7.432 147.711s-6.38 6.068 11.358 12.998c20.983 8.197 46.544-25.832 46.544-25.832s.756-12.299-12.654-7.803c-11.006 3.689-45.248 20.637-45.248 20.637z" fill="#3C4358"/><path d="M8.173 118.308s-8.692 6.011-7.995-7.368c.335-6.422-3.047-23.405 9.468-25.65 1.43-.256 2.44 29.566-1.473 33.018z" fill="#363E58"/><path opacity=".1" d="M4.264 119.647c-2.374.247-3.074-20.235-.444-19.854 2.63.381 2.757 19.612.444 19.854z" fill="#000"/><path d="M37.915 136.444c-.43-4.543-1.596-10.7-3.212-16.375-2.025-7.11 1.761-14.895 1.053-22.598-.011-.126-.02-.252-.034-.378-.872-7.826-10.016-9.668-10.016-9.668L13.85 84.443s-6.935.022-8.125 4.35c-1.19 4.327-1.211 17.411-.69 22.825.522 5.414.51 30.216-.762 39.018-.447 3.094 15.306 12.551 20.133 12.172 4.827-.379 14.22-7.746 15.528-9.741.545-.83-1.711-13.383-2.019-16.623z" fill="#363E58"/><path opacity=".05" d="M33.742 138.474c-.117.931-.045 2.821.228 2.967.274.146 3.348-2.009 3.675-3.002.328-.994-.082-3.483-.331-3.413-.25.069-3.477 2.695-3.572 3.448z" fill="#fff"/><path opacity=".1" d="M35.365 99.37c-4.367 2.051-9.1 5.824-8.83 12.508.352 8.724 5.686 20.59 11.232 26.605-.43-4.543-1.121-12.109-2.677-16.381-2.396-6.578.443-14.943.275-22.732z" fill="#000"/><path d="M29.116 88.936c-.15-.408 7.355 2.325 10.66 7.924 1.612 2.73 1.496 12.309 1.997 20.611.235 3.904 2.622 9.344 1.472 11.579-1.15 2.235-6.946 6.84-9.753.575-2.808-6.265-4.023-24.288-5.783-26.408 0 0 1.65-13.612 1.407-14.281z" fill="#363E58"/><path d="M68.312 107.36c-1.178.93-2.489 3.084-1.428 5.243 1.102 2.242 4.906.982 5.625.535 4.893-3.037 5.765-6.534 5.02-8.431-1.331-3.394-6.764.718-9.217 2.653z" fill="#FFD6D6"/><path d="M67.281 108.481c-.357-.575-.197-6.035 1.62-5.607 1.818.429.62 5.613.065 6.267-.554.654-1.685-.66-1.685-.66z" fill="#FFD6D6"/><path d="M39.74 138.236c4.097 1.745 26.703-16.243 31.593-22.367 1.128-1.414-4.829-6.333-5.095-6.691-1.271-1.712-34.377 15.831-32.55 20.855 1.677 4.612 1.955 6.458 6.052 8.203z" fill="#363E58"/><path d="M66.475 118.948c.436.146 1.059-.036 1.389-.403.33-.369.244-.785-.193-.931-.436-.146-1.057.034-1.387.402-.33.368-.246.786.19.932zm2.378-1.857c.437.146 1.06-.036 1.39-.404.33-.368.244-.784-.193-.93-.436-.146-1.057.033-1.387.402-.33.368-.246.786.19.932z" fill="#000" opacity=".05"/><path d="M20.231 88.41c2.083.002 4.768.6 6.01.289a3.49 3.49 0 01-.039-.409c-.085-2.123 2.745-8.558-.38-10.559-3.123-2.001-8.605-2.084-9.066 1.58-.407 3.238-1.914 6.731-2.127 7.115.856 1.072 3.029 1.98 5.602 1.983z" fill="#FCC"/><path d="M32.336 64.822c.586.846-.272 4.414.175 6.237 1.41 5.758 1.133 13.53-8.607 13.836-9.516.299-9.946-4.442-10.247-10.507-.301-6.064-2.79-8.85 3.555-12.355 6.344-3.505 12.675-.747 15.124 2.789z" fill="#FFD2D2"/><path d="M33.902 65.529c.363-6.639-9.658-9.273-14.52-8.727-1.956.22-6.682 1.603-7.372 4.358-8.052 7.294 1.1 21.372 6.789 22.132 2.46.328 5.195-.13 6.57-1.608.194-.21 1.047-1.362.764-1.323-.94.126-2.511-.841-2.343-4.144.269-5.285 2.42-2.706 2.93-1.776.51.93.732 2.782.732 2.782l.647 1.05.806-3.028c1.61-1.973 2.431-3.42 2.943-5.376.663-1.96 1.73-2.542 2.054-4.34z" fill="#3D4356"/><path d="M27.92 88.368l-1.212-2.119s-5.49.034-8.386-1.341c-2.897-1.375-1.995-2.019-2.585-1.91-.59.11-2.583 1.61-2.583 1.61s-.229 2.005 2.523 3.044c2.124.802 7.422 2.232 9.706 2.156 2.435-.08 2.536-1.44 2.536-1.44z" fill="#363E58"/><path opacity=".05" d="M27.92 88.368l-1.212-2.119s-5.49.034-8.386-1.341c-2.897-1.375-1.995-2.019-2.585-1.91-.59.11-2.583 1.61-2.583 1.61s-.229 2.005 2.523 3.044c2.124.802 7.422 2.232 9.706 2.156 2.435-.08 2.536-1.44 2.536-1.44z" fill="#fff"/><path d="M25.497 169.37l-19.31-10.576c-1.126-.649-3.193-1.284-3.193-2.783-1.717-9.703-1.977-45.571 1.672-47.393 3.65-1.821 21.52 12.285 21.52 12.285 1.126.649 2.039 2.391 2.039 3.89-.52 10.326-.868 30.643 0 40.799 0 1.499-1.602 4.427-2.728 3.778z" fill="#BBB4B4"/><path opacity=".05" d="M76.187 83.41L56.7 72.179c-.727-.42-.636-1.152.204-1.636l14.076-8.114c.84-.483 2.11-.536 2.838-.117l19.488 11.233c.727.42.636 1.151-.204 1.636l-14.077 8.113c-.84.484-2.11.537-2.837.118z" fill="#000"/><path d="M72.344 61.08l20.793 11.696c.319 0 .302 1.287-.578 1.794l-11.995 6.914c-.88.508-2.212.563-2.975.123L57.16 69.832c-.762-.44-.683-1.83-.045-1.83l12.254-6.8c.88-.506 2.212-.561 2.975-.122z" fill="#3E5F94"/><path d="M72.344 60.443L92.773 72.22c.762.44.666 1.207-.214 1.714l-11.995 6.915c-.88.507-2.212.562-2.975.123L57.16 69.195c-.762-.44-.667-1.207.214-1.714l11.995-6.914c.88-.508 2.212-.563 2.975-.124z" fill="#697A94"/><path d="M79.807 79.706a.646.646 0 00.19-.012c.104-.021.13-.034.59-.3.468-.27.483-.28.518-.339.07-.124.084-.11-.546-.473-.539-.31-.558-.32-.636-.327-.147-.013-.155-.01-.751.334l-.553.319-.007.067-.004.066.559.328c.525.307.564.327.64.337zm-1.84-1.058c.172.03.193.021.781-.318.59-.34.61-.355.553-.449-.024-.044-.086-.083-.563-.358-.53-.305-.535-.308-.627-.319-.157-.017-.162-.016-.753.325-.516.297-.543.315-.563.361-.037.089-.013.108.566.442.475.274.53.302.606.316zm-1.878-1.068a.538.538 0 00.263.008c.03-.007.291-.15.582-.318.497-.286.53-.308.548-.353.04-.095.034-.1-.588-.453l-.563-.32-.105.002-.105-.001-.56.317c-.507.287-.56.32-.583.362-.048.093-.038.103.534.436.283.165.543.31.577.32zm-1.673-1.037h.126l.56-.324.562-.323v-.145l-.568-.327-.567-.327-.117-.004-.114-.003-.552.312c-.594.338-.61.349-.596.437l.008.052.566.326.566.326h.126zm-1.93-1.059c.024.007.088.01.14.007l.096-.005.552-.319c.552-.317.555-.32.573-.372.029-.086-.002-.11-.561-.432-.545-.316-.574-.329-.737-.324l-.085.002-.543.307c-.604.343-.629.36-.59.452.02.047.047.065.564.36.298.172.563.318.59.324zm-1.821-1.056c.04.008.107.013.15.01.08-.005.091-.011.642-.329.545-.314.561-.325.57-.368.02-.091.01-.099-.565-.43-.756-.437-.643-.437-1.392-.005-.564.325-.567.327-.56.426l.003.048.54.315c.428.25.554.32.612.333zm-1.852-1.061a.513.513 0 00.282-.003 7.21 7.21 0 00.563-.305c.548-.316.584-.344.546-.436-.019-.047-.046-.065-.564-.363-.593-.342-.606-.347-.758-.33-.071.007-.113.03-.629.326-.758.437-.756.371-.011.799.28.161.538.301.57.312zm-1.74-1.04c.154.022.19.007.755-.32.566-.325.592-.346.555-.434-.02-.047-.049-.066-.568-.365-.605-.348-.617-.354-.771-.327-.073.012-.134.044-.614.32-.48.278-.535.313-.556.355-.047.088-.038.096.567.444.519.3.551.316.632.327zm-1.827-1.053c.156.02.188.008.767-.326.738-.426.737-.361.017-.783-.577-.339-.62-.358-.774-.34-.092.01-.095.012-.648.33l-.555.32-.006.067-.005.066.56.328c.538.314.56.327.644.338zm-1.852-1.075a.612.612 0 00.137.001c.073-.008.112-.029.624-.324.6-.346.605-.35.568-.44-.018-.037-.194-.14-1.984-1.172l-1.964-1.132-.09-.006c-.18-.008-.193-.003-.746.316-.553.318-.563.326-.548.43l.01.052 1.965 1.133c1.572.903 1.98 1.135 2.028 1.142zm18.219 8.45c.038.01.121.01.18.003l.107-.014.513-.296c.503-.29.514-.298.54-.354.055-.117.124-.07-1.214-.841-1.15-.663-1.192-.685-1.273-.696-.117-.017-.364.081-.74.294a6.424 6.424 0 00-.554.333.165.165 0 00-.044.101l.002.057 1.204.698c1 .58 1.216.7 1.279.715zM63.819 68.401a.637.637 0 00.254-.008c.04-.01.249-.123.567-.306.563-.325.579-.338.542-.441l-.018-.053-1.279-.737c-1.44-.83-1.345-.785-1.55-.752-.097.014-.112.021-.61.308s-.509.295-.536.352c-.057.115-.133.064 1.306.891.702.404 1.298.74 1.324.746zm14.683 8.427c.154.021.188.007.759-.322.565-.326.582-.339.556-.437-.012-.044-.031-.057-.564-.365-.516-.297-.558-.32-.63-.327-.151-.017-.164-.011-.756.33-.596.344-.601.349-.564.437.018.036.089.081.567.357.52.299.552.316.632.327zM76.66 75.77c.163.032.189.02.779-.32.751-.433.75-.368.003-.799-.579-.333-.613-.347-.766-.326-.081.011-.112.027-.628.325-.591.34-.593.343-.562.434.018.053.022.056.553.361.477.275.544.31.62.325zm-1.895-1.07c.087.024.149.03.226.018.08-.01.115-.029.623-.321.507-.293.541-.314.559-.36.04-.092.03-.1-.564-.443-.506-.291-.543-.31-.623-.32-.16-.024-.173-.019-.764.322-.582.336-.594.344-.565.432.013.04.054.066.545.353.291.17.545.314.563.319zm-1.83-1.06c.089.03.166.037.252.022.065-.012.144-.053.624-.336l.551-.323-.005-.066-.006-.067-.553-.319c-.606-.35-.608-.35-.77-.332l-.092.01-.55.323-.549.322v.058a.17.17 0 00.05.102c.057.053.96.574 1.048.605zm-1.655-1.03h.126l.55-.317c.612-.352.621-.36.575-.448-.021-.042-.078-.079-.565-.36-.602-.347-.594-.344-.772-.318-.08.01-.118.031-.615.317-.585.337-.596.346-.556.438.018.046.052.067.576.369l.554.32h.126zm-1.93-1.058c.024.007.087.01.137.007.126-.006.223-.054.766-.375.642-.377.65-.324-.12-.76-.746-.423-.633-.423-1.383.009-.744.429-.744.363.017.8.293.17.555.313.582.32zm-1.81-1.058a.68.68 0 00.162.01c.076-.007.103-.02.592-.297.318-.18.53-.307.557-.334a.165.165 0 00.044-.102l-.002-.056-.572-.33-.572-.33-.099-.001a.65.65 0 00-.171.022 6.898 6.898 0 00-.58.322c-.705.413-.709.352.04.783.46.266.527.3.601.313zm-1.864-1.059a.59.59 0 00.122.02c.137.004.182-.016.72-.327.566-.326.592-.346.555-.435-.02-.046-.048-.065-.569-.365-.52-.3-.551-.316-.632-.327-.152-.02-.18-.008-.768.33-.74.427-.739.356-.011.78.287.168.55.314.583.324zm17.736 8.155a.753.753 0 00.296-.015c.047-.014.236-.115.551-.297.462-.268.478-.278.512-.338.068-.123.194-.04-1.61-1.08-1.511-.87-1.597-.918-1.676-.932-.171-.03-.194-.02-.773.313-.577.333-.59.344-.554.448l.017.054 1.596.917a70.18 70.18 0 001.64.93zm-3.892-2.3c.16.023.19.009.785-.34l.535-.314.001-.056a.166.166 0 00-.043-.102 6.592 6.592 0 00-.563-.337c-.477-.27-.523-.293-.593-.301-.152-.017-.165-.011-.765.334l-.55.317-.006.067-.005.066.56.328c.538.314.56.327.645.338zm-1.86-1.068a.68.68 0 00.162.009c.076-.006.103-.02.617-.311.597-.338.62-.355.579-.45-.018-.043-.053-.065-.585-.368l-.57-.323-.114.003-.116.004-.565.325-.564.325-.008.053a.127.127 0 00.034.096c.026.026.252.164.545.333.444.256.51.29.585.304zm-1.798-1.038c.17.023.152.031.77-.325.55-.316.56-.323.569-.369.02-.087-.008-.107-.574-.433-.747-.43-.635-.431-1.387.002s-.753.367.008.806c.496.286.538.308.614.319zM73.99 72.12a.485.485 0 00.293-.01c.099-.037.983-.547 1.044-.605a.17.17 0 00.05-.101v-.058l-.548-.321c-.596-.35-.615-.36-.764-.344-.086.008-.094.013-.639.327-.758.437-.756.37-.011.798.28.162.54.302.575.314zm-1.744-1.041c.154.021.19.006.749-.318.559-.322.59-.346.56-.431-.017-.054-.02-.055-.565-.37-.597-.343-.61-.349-.762-.332-.07.007-.113.03-.625.325-.513.295-.551.32-.564.36-.03.088-.02.096.575.439.519.299.551.316.632.327zm-1.826-1.053c.153.021.187.007.757-.322.566-.326.582-.339.557-.438-.012-.044-.031-.057-.566-.365-.615-.354-.606-.351-.778-.322-.07.012-.137.046-.53.267-.247.139-.493.282-.545.32-.082.058-.093.074-.092.137v.07l.555.32c.528.305.56.322.641.333zm-1.845-1.06c.168.032.192.022.78-.317.752-.434.75-.37.004-.8-.579-.334-.613-.348-.766-.326-.081.011-.112.027-.628.324-.591.341-.593.344-.562.434.018.053.022.056.553.362.477.275.544.31.619.323zm-1.811-1.047c.16.023.175.017.757-.319.603-.347.61-.354.551-.455-.035-.058-.056-.07-1.804-1.078-1.735-1-1.769-1.019-1.867-1.039a.586.586 0 00-.197-.003c-.096.016-.114.024-.61.31l-.51.294-.025.061c-.044.115-.183.025 1.822 1.18 1.756 1.013 1.802 1.038 1.883 1.049zm15.793 7.006a.59.59 0 00.14.003c.07-.008.117-.032.574-.29.275-.154.526-.303.561-.329.045-.035.06-.064.057-.11l-.002-.063-.756-.436c-.744-.429-.759-.437-.835-.442-.158-.01-.17-.005-.748.327-.527.304-.532.307-.55.36a.13.13 0 00.002.087c.03.055 1.466.878 1.557.893zm-2.17-1.265c.149.017.19-.001.749-.323.55-.316.577-.337.559-.424l-.01-.046-5.225-3.012-5.224-3.011-.078-.006c-.158-.011-.171-.005-.748.327-.527.304-.532.307-.55.36a.131.131 0 00.002.087c.016.027 1.094.654 5.226 3.036l5.207 3.002.092.01zm-11.138-6.42c.052.005.124 0 .166-.01.097-.029 1.045-.569 1.108-.633a.137.137 0 00.034-.096l-.008-.053-.755-.435c-.752-.434-.757-.437-.838-.442-.15-.01-.186.005-.74.324-.566.326-.592.347-.555.435.021.048.047.065.759.475l.737.424.092.01zm-2.157-1.273h.127l.554-.32c.522-.3.558-.323.572-.365.03-.089.067-.064-1.047-.708l-1.03-.594-.117-.004-.114-.002-.577.332-.578.333.005.066.007.067 1.036.597 1.036.598h.126zm18.263 10.521c.15.01.186-.005.74-.324.555-.32.58-.34.563-.427l-.01-.047-1.025-.59c-1.13-.652-1.088-.631-1.25-.603-.072.012-.133.043-.614.32-.48.277-.535.312-.556.354-.048.093-.084.07 1.046.72l1.025.591.081.006z" fill="#3D4356"/><path d="M72.168 66.394l3.94-2.271c.208-.12.522-.133.702-.03l9.84 5.672a.236.236 0 01.108.117c.032-.087-.001-.176-.108-.238l-9.84-5.671c-.18-.104-.494-.09-.701.029l-3.941 2.272c-.143.082-.196.192-.159.287a.342.342 0 01.159-.167z" fill="#BDBDBD"/><path d="M77.77 67.465c-.115-.817-.84-1.841-1.62-2.291L55.266 53.136c-.426-.246-.78-.27-.996-.107l-.555.42c.216-.163.57-.14.997.106l20.885 12.038c.78.45 1.504 1.474 1.619 2.29l1.862 13.3c.052.371-.03.635-.21.77l.554-.419c.18-.135.262-.4.21-.77l-1.862-13.3z" fill="#3E5F94"/><path d="M77.215 67.884c-.114-.817-.84-1.841-1.619-2.29L54.71 53.554c-.78-.45-1.32-.154-1.205.662l1.862 13.3c.114.816.84 1.843 1.62 2.293l20.885 12.038c.78.45 1.32.152 1.205-.665l-1.862-13.3z" fill="#536C92"/><path d="M66.032 65.849c.978.564 1.884 1.849 2.027 2.87.143 1.025-.53 1.396-1.509.833-.975-.563-1.884-1.847-2.027-2.87-.143-1.022.533-1.395 1.509-.833z" fill="#DDD"/><path d="M138.186 66.368c1.054 4.189-26.378 17.856-27.675 15.86-1.162-1.787 16.943-14.997 22.425-17.09 5.481-2.093 5.25 1.23 5.25 1.23z" fill="#FFD3D4"/><path d="M108.875 79.287c1.215-.735 3.56-1.183 5.126.47 1.627 1.716-.75 4.665-1.385 5.154-4.313 3.325-5.93 2.076-7.379.802-1.449-1.275 1.108-4.895 3.638-6.426zm4.414-19.322c-3.615 2.337-24.064-18.624-22.565-20.473 1.343-1.656 18.751 10.817 22.241 15.213 3.491 4.396.324 5.26.324 5.26z" fill="#FFD3D4"/><path d="M93.647 38.21c1.037.985 2.092 3.143.896 5.1-1.242 2.03-4.742.502-5.385.015-4.377-3.309-4.492-6.858-3.632-8.6.859-1.743 5.963 1.433 8.121 3.484z" fill="#FFD3D4"/><path d="M93.646 41.306C92.541 39.14 92.745 35 93.69 35c2.134.002 1.639 5.434 1.406 5.937-.233.504-1.449.37-1.449.37z" fill="#FFD3D4"/></g><defs><clipPath id="clip0_45_3"><path fill="#fff" d="M0 0h161v213H0z"/></clipPath></defs></svg>