<svg width="206" height="235" fill="none" xmlns="http://www.w3.org/2000/svg"><g clip-path="url(#clip0_28_542)"><path opacity=".05" d="M140.262 206.291c1.691-3.985-4.941-10.631-14.813-14.844-9.872-4.213-19.246-4.398-20.937-.412-1.691 3.985 4.941 10.63 14.813 14.843 9.872 4.213 19.246 4.398 20.937.413z" fill="#000"/><path d="M109.758 52.907c-2.746 3.141-8.327 28.306-4.816 28.508 3.511.2 10.562-15.137 12.205-25.839 1.684-10.976-4.909-5.504-7.389-2.669z" fill="#363E58"/><path opacity=".1" d="M113.79 62.58s-3.107-.5-2.449 7.731c.452 5.647.097 7.126.868 7.68.955.686 1.581-15.41 1.581-15.41z" fill="#000"/><path d="M137.883 97.367s4.802 3.258 1.902 15.304c-2.899 12.046-22.014-3.35-22.014-3.35l13.991-11.954h6.121z" fill="#3C4358"/><path d="M119.883 197.233s-.973-.213-1.075-.417c-.101-.203.723-.563.723-.563l.352.414v.566z" fill="#998E82"/><path d="M123.618 193.613c.387-1.613.425-3.295-.69-4.762-1.862-2.451-5.027-1.423-6.751-.493-1.723.93-2.251 2.772-6.993 5.53-1.199.698-7.318 3.781-5.431 6.224 1.358 1.758 5.55 1.205 9.58.385 3.443-.701 5.525-4.071 6.35-3.861.121.059-.033.488.2.597.511.238 3.83-1.521 3.902-2.212.062-.608.097-.815-.167-1.408z" fill="#4A4C57"/><path d="M121.069 178.041c1.97 3.037-.299 8.648 1.06 10.535 1.735 2.408-2.681 4.523-3.714 4.32-.242-.048.189-.717.323-1.244.151-.597-3.389-2.087-4.008-1.668-.353.24 1.032-.796 1.843-1.253.328-.185.732-.464.839-.593.666-.794-1.349-8.376-1.705-9.244-.357-.869 4.511-2.165 5.362-.853z" fill="#314058"/><path d="M125.826 139.877s-1.237 30.47-1.068 50.701c.01 1.147-4.358 2.469-5.59 2.524-1.507.069-5.491-1.3-5.374-3.43.674-12.216-2.053-40.431-2.364-51.017-.534-18.204 14.396 1.222 14.396 1.222z" fill="#3C4358"/><path d="M111.226 100.415c-.136 28.41-1.952 52.275 7.357 52.828 11.957.709 7.381-34.746 8.63-47.148 1.701-16.883-15.95-13.326-15.987-5.68z" fill="#3C4358"/><path d="M120.822 98.5c.137.045.247.184.248.314l.009 2.225c0 .127-.109.195-.246.151l-3.57-1.164c-.137-.044-.247-.183-.248-.31l-.009-2.226c0-.13.109-.197.246-.153l3.57 1.163z" fill="#BEBEBE"/><path d="M120.616 100.685l-.007-1.82-3.14-1.023.007 1.82 3.14 1.023z" fill="#4A4C57"/><path opacity=".1" d="M122.26 108.766c-.543.23-2.494.681-2.475 1.53.237 10.397 2.342 40.267 4.999 55.478l-2.524-57.008z" fill="#1A1A1A"/><path d="M133.583 205.088s-.974-.213-1.075-.416c-.102-.204.722-.563.722-.563l.353.413v.566z" fill="#998E82"/><path d="M137.318 201.468c.386-1.613.424-3.295-.69-4.761-1.862-2.451-5.028-1.424-6.751-.494-1.723.931-2.251 2.772-6.994 5.531-1.198.697-7.317 3.78-5.43 6.223 1.357 1.758 5.55 1.205 9.58.385 3.442-.701 5.524-4.071 6.35-3.861.12.059-.033.488.2.597.51.238 3.83-1.521 3.901-2.211.063-.609.098-.815-.166-1.409z" fill="#4A4C57"/><path d="M134.769 185.896c1.969 3.037-.299 8.648 1.06 10.535 1.734 2.409-2.682 4.523-3.714 4.32-.243-.048.188-.717.322-1.243.152-.598-3.389-2.087-4.007-1.668-.354.239 1.032-.797 1.843-1.254.327-.184.731-.464.839-.592.665-.794-1.349-8.377-1.706-9.245-.356-.868 4.512-2.165 5.363-.853z" fill="#314058"/><path d="M138.725 149.14s-1.146 28.886-.976 49.117c.009 1.147-4.358 2.469-5.591 2.525-1.507.068-5.491-1.301-5.374-3.43.674-12.217-2.838-33.967-3.075-44.555-.222-9.899 15.016-3.657 15.016-3.657z" fill="#3C4358"/><path d="M121.326 105.349c1.502 28.518 2.38 49.856 2.817 54.496.22 2.34 14.047-.375 14.307-2.955.886-8.759-.755-35.374.25-45.35 1.7-16.884-17.776-13.827-17.374-6.191z" fill="#3C4358"/><path d="M117.312 53.538l.147-.831-.147.83z" fill="#CDCDD5"/><path d="M139.47 66.695c.146-2.728.061-4.945-.514-7.072-.458-1.691-1.263-3.47-2.661-5.117-2.093-2.465-4.208-4.04-7.71-5.12l-.083-.727s-3.439-1.009-7.48-1.082l-.16.4c-1.428-.03-3.267.27-4.945 1.845-3.488 3.275-2.631 10.78-2.631 17.328 0 6.55 3.891 2.134 1.64 16.046-2.683 16.587 3.584 13.761 15.73 15.523 5.495.797 6.548 1.858 6.548-.775 0-2.954.181-3.75-.416-6.572a14.863 14.863 0 01-.258-1.786c-.102-1.167-.115-2.603.016-4.41.284-3.896 2.86-17.266 2.924-18.48z" fill="#ECF5FA"/><path d="M122.862 52.84c.357-.468.481-1.344.481-1.344l-.828-1.725-1.295 1.066s-.24 1.122.087 1.711a.84.84 0 00.248.275l-5.56 39.823 3.167 3.937 4.827-2.115-1.223-41.536a.46.46 0 00.096-.091z" fill="#4282B8"/><path d="M121.022 47.538l-1.056-.126-.555.33c-1.477.165-3.258 1.001-4.637 1.893 0 0-3.606 4.163-3.606 16.234 0 4.956 1.494 12.363 1.621 16.16.021.614-.183 2.798-.183 2.798l-.471 3.624-.241 1.714c-.129-.043-.234-.056-.296-.018-.378.227-1.207 2.534-.943 2.942.081.124.368.402.732.714-.762 5.5-1.834 8.087-1.848 9.109-.031 2.278 1.798 4.05 3.25 3.963 1.154-.069 5.266-10.204 6.741-17.94.382-2.002.883-4.585.902-6.06.026-1.96-.237-1.953-.856-2.739a7.265 7.265 0 01-.678-1.035c-1.772-3.225 1.271-31.704 2.124-31.563z" fill="#363E58"/><path opacity=".05" d="M121.023 47.538l-1.057-.126-.555.33-1.951 1.784.936 1.111-2.494.288s-2.388 27.883 3.674 29.212a7.265 7.265 0 01-.678-1.036c-1.772-3.225 1.271-31.704 2.125-31.563zm-8.439 46.84c.568-1.389.9-2.71.573-3.203-.327-.492-1.24-1.17-1.559-1.028-.403.179-1.249 2.565-.943 2.942.326.4 1.748 1.734 1.929 1.289z" fill="#fff"/><path d="M118.678 80.97c.383.16.692.642.691 1.074-.001.432-.312.652-.695.492-.383-.16-.692-.64-.691-1.072.001-.432.312-.655.695-.495zm-1.139 8.235c.383.16.692.642.691 1.075-.001.432-.312.652-.695.492-.383-.16-.692-.64-.691-1.072.001-.432.312-.655.695-.495z" fill="#000" opacity=".05"/><path d="M121.346 45.38c-.438 1.997-1.217 3.379.312 4.076 1.529.697 5.368 1.07 6.348.206.774-.682.012-4.91-.441-5.328-.452-.418-6.219 1.046-6.219 1.046z" fill="#FFC9CA"/><path d="M120.484 48.803l.318-1.39 1.713 2.358-2.268 1.868.237-2.836zm3.67 4.383l-1.639-3.415 5.801-2.142.186 1.03-.269 1.083-4.079 3.444z" fill="#ECF5FA"/><path opacity=".5" d="M120.484 48.803l.318-1.39 1.713 2.358-2.268 1.868.237-2.836zm3.67 4.383l-1.639-3.415 5.801-2.142.186 1.03-.269 1.083-4.079 3.444z" fill="#fff"/><path d="M139.949 94.857c-1.209-4.486-1.384-5.916-1.277-10.016.11-4.236.833-13.934 1.018-20.873.109-4.063.034-7.182-.456-7.704-2.607-2.778-6.959-5.931-8.37-6.275l-2.362-1.33s-4.637 27.71-8.885 31.53c0 0-.11 9.228-.096 9.94.144 7.237 3.66 21.137 6.311 22.782 2.651 1.644 15.794-4.729 15.619-8.561-.068-1.493-.73-6.628-1.502-9.493z" fill="#363E58"/><path opacity=".05" d="M128.404 66.486l4.002 1.014v-1.264l-3.53-.99c-.154.41-.312.825-.472 1.24z" fill="#fff"/><path opacity=".05" d="M132.406 54.715l-2.628-1.333 1.771-.675-.685-2.718-2.362-1.33s-4.637 27.71-8.885 31.53c5.433-.156 12.789-25.474 12.789-25.474zm-5.34 41.384c-.265.814-.097 2.468.526 2.596.622.129 7.609-1.75 8.352-2.619.743-.868-.196-3.046-.762-2.986-.566.06-7.901 2.35-8.116 3.009z" fill="#fff"/><path opacity=".1" d="M140.394 96.799c-1.209-4.487-1.829-7.859-1.722-11.958.11-4.236.833-13.934 1.018-20.873-2.448 2.823-6.644 8.545-6.533 14.505.142 7.7 1.961 16.04 7.237 18.326z" fill="#000"/><path d="M142.037 58.678c2.187 2.876 1.831 28.607-.715 33.923-.364.76-3.949.402-4.389.413-2.711.071-1.395-13.42-2.961-24.642-1.607-11.51 2.25-17.343 8.065-9.694z" fill="#363E58"/><path d="M123.512 53.35c-.584 1.332-2.586 2.835-4.805 2.135-2.305-.727-2.467-4.853-2.117-5.594 1.375-2.918 3.514-.977 5.44-.557 1.927.42 1.959 2.93 1.482 4.017z" fill="#FCC"/><path d="M104.146 80.639c1.072 2.468 2.563 3.494 4.972 2.33 2.408-1.165 13.813-26.15 12.537-27.159-1.276-1.007-4.842-3.78-5.866-2.68-1.023 1.101-12.716 25.041-11.643 27.509z" fill="#363E58"/><path opacity=".03" d="M104.146 80.639c1.072 2.468 2.563 3.494 4.972 2.33 2.408-1.165 13.813-26.15 12.537-27.159-1.276-1.007-4.842-3.78-5.866-2.68-1.023 1.101-12.716 25.041-11.643 27.509z" fill="#fff"/><path d="M116.208 59.128c.399-.04.83-.407.961-.818.131-.412-.086-.714-.485-.675-.399.04-.829.405-.96.816-.131.412.085.716.484.677zm1.23-2.332c.399-.039.829-.407.96-.818.131-.412-.086-.714-.485-.674-.399.039-.828.404-.96.816-.131.411.085.715.485.676z" fill="#000" opacity=".05"/><path d="M106.989 82.873c1.384.4 5.685-.543 5.529 1.768-.161 2.4-3.994 2.662-4.795 2.526-5.445-.923-5.134-3.973-5.18-5.935-.046-1.962 1.565.81 4.446 1.641z" fill="#FFD3D4"/><path d="M141.503 90.184s.735 3.077-1.68 4.228c-2.415 1.151-28.806-4.748-28.789-6.377.017-1.628.099-6.152 1.596-6.262 1.497-.11 26.864 5.278 28.873 8.41z" fill="#363E58"/><path opacity=".03" d="M141.503 90.184s.735 3.077-1.68 4.228c-2.415 1.151-28.806-4.748-28.789-6.377.017-1.628.099-6.152 1.596-6.262 1.497-.11 26.864 5.278 28.873 8.41z" fill="#fff"/><path d="M115.706 89.072c-.029-.4-.383-.842-.79-.985-.407-.142-.713.067-.685.468.028.401.38.842.787.984.407.143.716-.065.688-.467zm-2.291-1.295c-.029-.401-.383-.843-.79-.985-.407-.143-.714.066-.685.468.028.401.38.841.787.984.407.143.716-.066.688-.467z" fill="#000" opacity=".05"/><path d="M110.778 83.448c-1.242-1.624-4.261-2.732-4.602-2.032-.341.701.998 2.972 2.435 2.972 1.436 0 2.167-.94 2.167-.94z" fill="#FFD3D4"/><path d="M113.974 33.28s-.135 2.998.471 3.658l1.419-4.994-1.89 1.335z" fill="#434856"/><path d="M115.023 32.177c-1.77 2.496.13 8.344.13 8.344s-.378 7.072 6.051 8.983c5.111 1.52 9.239-4.006 9.239-4.006s6.972-13.617-2.534-16.834c-8.761-2.964-11.115 1.017-12.886 3.513z" fill="#FFD3D4"/><path d="M134.363 33.993c.822 4.957-3.92 11.505-3.92 11.505s-1.149-1.654-.232-1.539c1.16.146 2.599-3.675 1.317-5.055-1.282-1.38-2.314 1.726-2.314 1.726l-.867 1.374-.991-4.793s6.422-6.744 7.007-3.218z" fill="#434856"/><path d="M118.813 34.128c.575-.645 4.039-1.813 7.338 3.201 2.178 3.31 5.013.775 4.802.718-1.149-.315-1.399-1.703-1.399-1.703s4.389.985 3.809.448c-1.041-.962-.674-1.481-.674-1.481s2.936.465 2.768.065c-.879-2.1-2.208-4.672-2.691-6.198-.472-1.494-5.792-4.409-7.996-3.054 0 0-3.28-1.687-5.991-.774-1.886.635-4.528 1.513-4.964 5.098-.423 3.475-1.905 5.874-1.028 5.75.877-.123 2.363-2.871 3.751-2.99 1.389-.118 2.275.92 2.275.92z" fill="#3D4356"/><path opacity=".05" d="M72.035 211.051l-17.117-9.911-24.208 14.016 17.117 9.911 17.118 9.911 24.208-14.016-17.118-9.911z" fill="#1A1A1A"/><path d="M74.339 128.553l-5.278-3.057-23.027 14.698 4.099 2.374 11.196 5.098 23.01-13.323-10-5.79z" fill="#697A94"/><path opacity=".1" d="M69.06 125.496l-23.026 14.698 4.099 2.374 24.206-14.015-5.278-3.057z" fill="#000"/><path d="M30.771 129.974l23.01-13.323 15.28 8.846-23.027 14.697-15.263-10.22z" fill="#697A94"/><path d="M30.771 129.974v.617l15.263 10.221v-.618l-15.263-10.22zm19.362 12.594v.617l11.196 5.098v-.617l-11.196-5.098z" fill="#536C92"/><path d="M61.329 148.283v-.617l23.01-13.323v.617l-23.01 13.323z" fill="#3E5F94"/><path d="M50.133 142.568l-4.1-2.374v.618l4.1 2.373v-.617z" fill="#536C92"/><path d="M67.352 126.547v-2.122l-12.615-5.182-19.267 9.034v2.121l12.615 7.304 19.267-11.155z" fill="#CFCFCF"/><path d="M67.352 124.425c-4.275-3.266-8.51-6.054-12.615-7.303L35.47 128.277c4.364 1.465 8.562 3.939 12.615 7.304l19.267-11.156z" fill="#E6E6E6"/><path d="M79.965 133.847v-2.122l-12.615-5.182-19.267 9.034v2.121l12.615 7.304 19.267-11.155z" fill="#CFCFCF"/><path d="M79.965 131.725c-4.275-3.266-8.51-6.055-12.615-7.304l-19.267 11.156c4.364 1.465 8.562 3.939 12.615 7.303l19.267-11.155z" fill="#EFEFEF"/><path d="M73.372 132.743l-8.302-4.807c-.104-.06-.104-.158 0-.218a.417.417 0 01.377 0l8.302 4.807c.104.06.104.158 0 .218a.417.417 0 01-.377 0zm-1.812 1.05l-8.303-4.807c-.104-.06-.104-.158 0-.218a.41.41 0 01.377 0l8.302 4.807c.104.06.104.157 0 .218a.417.417 0 01-.377 0zm-1.814 1.049l-8.302-4.806c-.104-.061-.104-.158 0-.219a.417.417 0 01.377 0l8.302 4.807c.104.06.104.158 0 .218a.411.411 0 01-.377 0zm-1.813 1.05l-8.302-4.807c-.104-.06-.104-.158 0-.218a.417.417 0 01.377 0l8.302 4.807c.104.06.105.158 0 .218a.417.417 0 01-.377 0zm-1.813 1.05l-8.302-4.807c-.104-.06-.104-.158 0-.218a.414.414 0 01.377 0l8.302 4.807c.104.06.105.158 0 .218a.417.417 0 01-.376 0zm-2.878 1.667l-4.151-2.404c-.104-.06-.104-.158 0-.218a.417.417 0 01.377 0l4.15 2.403c.105.061.105.158 0 .219a.417.417 0 01-.376 0zm-5.887-15.826a72.295 72.295 0 014.071 2.538c.087.058.075.146-.025.195a.371.371 0 01-.337-.014 75.991 75.991 0 00-8.405-4.866c-.102-.05-.111-.138-.025-.196a.371.371 0 01.338-.014 80.374 80.374 0 014.383 2.357zm-1.553.859a72.295 72.295 0 014.071 2.538c.087.058.075.146-.025.196a.374.374 0 01-.338-.015 75.991 75.991 0 00-8.404-4.866c-.102-.05-.111-.137-.025-.195a.368.368 0 01.338-.015 80.374 80.374 0 014.383 2.357zm-1.553.859a72.295 72.295 0 014.07 2.538c.087.058.076.146-.024.196a.374.374 0 01-.338-.015 75.991 75.991 0 00-8.404-4.866c-.102-.05-.112-.137-.025-.195a.371.371 0 01.337-.015 80.374 80.374 0 014.384 2.357zm-1.553.859a72.295 72.295 0 014.07 2.538c.087.058.076.146-.024.196a.374.374 0 01-.338-.015A75.991 75.991 0 0048 123.213c-.102-.05-.112-.137-.025-.195a.371.371 0 01.337-.015 81.068 81.068 0 014.384 2.357zm-1.554.859a72.295 72.295 0 014.072 2.538c.086.058.075.146-.026.196a.374.374 0 01-.337-.015 75.991 75.991 0 00-8.404-4.866c-.102-.05-.112-.137-.026-.195a.371.371 0 01.338-.015 81.068 81.068 0 014.383 2.357zm-1.552.859a72.295 72.295 0 014.07 2.538c.087.058.076.146-.025.196a.377.377 0 01-.337-.014 75.837 75.837 0 00-8.405-4.867c-.102-.05-.111-.137-.025-.195a.371.371 0 01.338-.015 81.068 81.068 0 014.383 2.357zm-1 5.321a.204.204 0 00-.017-.01c-2.389-1.629-5.073-3.183-7.98-4.62-.058-.03-.097-.075-.1-.121-.004-.047.027-.093.084-.126l2.589-1.499a.456.456 0 01.389-.011c2.937 1.393 5.646 2.962 8.052 4.663.095.066.086.164-.019.225L49 132.399a.425.425 0 01-.217.049.426.426 0 01-.194-.049zm-5.2-6.03l-2.18 1.262c2.755 1.375 5.31 2.854 7.601 4.401l2.18-1.262c-2.284-1.599-4.84-3.079-7.601-4.401z" fill="#C6C6C6"/><path d="M54.811 130.568c-.268-.155-.235-.427.075-.606l4.806-2.783c.31-.179.778-.199 1.047-.043.268.155.235.427-.075.606l-4.806 2.782c-.31.18-.779.199-1.047.044z" fill="#4F5056"/><path d="M166.477 40.91V21.09l24.209 14.016v19.821L166.477 40.91z" fill="#EFEFEF"/><path d="M187.586 41.381l-18.009-10.427a.507.507 0 01-.229-.398v-2.533c0-.147.102-.206.229-.133l18.009 10.427a.507.507 0 01.229.399v2.532c0 .147-.102.207-.229.133zm-17.779-10.825l17.55 10.161v-2.001l-17.55-10.162v2.002z" fill="#C6C6C6"/><path d="M187.586 43.914l-18.009-10.427a.507.507 0 01-.229-.398v-2.533c0-.147.102-.206.229-.133l18.009 10.427a.508.508 0 01.229.398v2.534c0 .146-.102.206-.229.132zM169.807 33.09l17.55 10.161v-2.002l-17.55-10.16v2.001z" fill="#C6C6C6"/><path d="M187.586 46.447L169.577 36.02a.507.507 0 01-.229-.398v-2.533c0-.147.102-.206.229-.133l18.009 10.427a.507.507 0 01.229.398v2.533c0 .147-.102.206-.229.133zm-17.779-10.825l17.55 10.161v-2.002l-17.55-10.16v2z" fill="#C6C6C6"/><path d="M187.586 48.98l-6.82-3.949a.507.507 0 01-.229-.398V42.1c0-.147.102-.206.229-.133l6.82 3.949a.507.507 0 01.229.398v2.533c0 .147-.102.206-.229.133zm-6.591-4.347l6.362 3.683v-2.002l-6.362-3.683v2.002z" fill="#C6C6C6"/><path d="M180.766 45.031l-11.189-6.478a.507.507 0 01-.229-.398v-2.533c0-.147.102-.206.229-.133l11.189 6.478a.507.507 0 01.229.398v2.533c0 .147-.102.207-.229.133zm-10.959-6.876l10.73 6.212v-2.002l-10.73-6.212v2.002zm15.495 11.739l-4.352-2.52a.508.508 0 01-.23-.398c0-.147.103-.207.23-.133l4.352 2.52a.51.51 0 01.229.398c0 .147-.103.206-.229.133zm-4.544-17.236l-4.352-2.52a.508.508 0 01-.23-.398c0-.147.103-.206.23-.133l4.352 2.52a.51.51 0 01.229.399c0 .146-.103.206-.229.132z" fill="#C6C6C6"/><path d="M187.957 52.356l-1.599-.925a.51.51 0 01-.229-.398v-1.85c0-.148.103-.207.229-.134l1.599.926a.51.51 0 01.229.398v1.85c0 .147-.103.207-.229.133zm-1.369-1.323l1.139.66v-1.32l-1.139-.66v1.32zm-134.65 69.622l.092-1.071-.87.154.45.975.328-.058z" fill="#BF272D"/><path opacity=".1" d="M51.938 120.655l.092-1.071-.87.154.45.975.328-.058z" fill="#fff"/><path d="M49.058 107.889c-.06-.339.845-.499.905-.16l.103.488-.938.166-.07-.494zm2.583 8.059c.02.106.037.216.055.327l-1.352.239a17.39 17.39 0 01-.06-.326c-.223-1.268-.88-5.863-1.13-7.614l.951-.168c.364 1.731 1.313 6.273 1.536 7.542zm.413 3.595a.152.152 0 01-.126.162l-.316.056-.317.056a.152.152 0 01-.174-.109 47.24 47.24 0 01-.716-2.892l1.337-.237c.175 1.211.281 2.539.313 2.964z" fill="#BF272D"/><path d="M51.742 116.579l-1.337.237a24.82 24.82 0 01-.06-.302l1.35-.239c.017.1.032.202.047.304zm-1.676-8.362l.04.188-.951.168-.027-.19.938-.166zm.017.028s.158-.122.221.1c.063.221.796 2.37.779 2.454-.017.084-.118.151-.286.117-.17-.035-.714-2.671-.714-2.671z" fill="#C6AD91"/><path d="M51.557 120.59l.059.336a.198.198 0 10.39-.068l-.06-.337-.39.069z" fill="#BF272D"/><path d="M84.714 37.965l-17.117-9.91V.022l17.117 9.91v28.033z" fill="#EFEFEF"/><path d="M78.756 10.855l-5.201-3.01a.508.508 0 01-.23-.4c0-.146.103-.205.23-.132l5.2 3.011a.51.51 0 01.23.399c0 .146-.103.206-.23.132zm3.107 6.084l-11.416-6.61a.508.508 0 01-.229-.399c0-.146.103-.206.23-.132l11.415 6.61c.127.073.23.251.23.398 0 .147-.103.206-.23.133zm0 3.262l-11.416-6.61a.508.508 0 01-.229-.398c0-.147.103-.206.23-.133l11.415 6.61c.127.073.23.252.23.398 0 .147-.103.207-.23.133zm0 3.263l-11.416-6.61a.508.508 0 01-.229-.398c0-.147.103-.206.23-.133l11.415 6.61c.127.073.23.251.23.398 0 .147-.103.206-.23.133zm0 3.263l-11.416-6.61a.508.508 0 01-.229-.399c0-.146.103-.206.23-.133l11.415 6.61a.51.51 0 01.23.399c0 .146-.103.206-.23.133zm0 3.263l-11.416-6.61a.508.508 0 01-.229-.4c0-.146.103-.205.23-.132l11.415 6.61c.127.073.23.252.23.398 0 .147-.103.206-.23.133zm0 3.262l-11.416-6.61a.508.508 0 01-.229-.398c0-.147.103-.207.23-.133l11.415 6.61c.127.073.23.251.23.398 0 .147-.103.206-.23.133z" fill="#C6C6C6"/><path d="M69.86 20.59a.263.263 0 01-.04-.029.396.396 0 01-.115-.183l-.439-1.517c-.034-.12.007-.208.093-.198.085.01.183.114.218.233l.352 1.218 2.376-.952c.071-.028.177.043.237.16.06.116.05.233-.02.261l-2.553 1.024c-.03.012-.07.006-.108-.017zm0 2.637a.27.27 0 01-.04-.03.396.396 0 01-.115-.182l-.439-1.517c-.034-.12.007-.209.093-.199.085.01.183.114.218.234l.352 1.218 2.376-.952c.071-.029.177.043.237.159s.05.234-.02.262l-2.553 1.023c-.03.013-.07.006-.108-.016zm0 2.636a.27.27 0 01-.04-.029.396.396 0 01-.115-.182l-.439-1.518c-.034-.119.007-.208.093-.198.085.01.183.114.218.233l.352 1.218 2.376-.952c.071-.028.177.043.237.16.06.116.05.233-.02.262l-2.553 1.023c-.03.012-.07.006-.108-.017z" fill="#BF272D"/><path d="M174.076 137.27l-17.117-9.911V99.327l17.117 9.911v28.032z" fill="#EFEFEF"/><path d="M171.302 130.842l-11.568-6.697a.51.51 0 01-.229-.399v-13.075c0-.147.102-.207.229-.133l11.568 6.697a.512.512 0 01.229.399v13.075c0 .147-.103.206-.229.133zm-11.339-7.096l11.109 6.432v-12.544l-11.109-6.432v12.544z" fill="#C6C6C6"/><path d="M163.028 126.052a.51.51 0 01-.229-.398v-13.076c0-.147.103-.206.229-.133a.51.51 0 01.23.399v13.075c0 .147-.103.206-.23.133zm4.05 2.345a.51.51 0 01-.229-.398v-13.076c0-.147.103-.206.229-.133a.51.51 0 01.23.399v13.075c0 .147-.103.206-.23.133z" fill="#C6C6C6"/><path d="M171.302 120.3l-11.568-6.698a.507.507 0 01-.229-.398c0-.147.102-.207.229-.133l11.568 6.697a.512.512 0 01.229.399c0 .147-.103.206-.229.133zm0 2.882l-11.568-6.698a.506.506 0 01-.229-.398c0-.147.102-.206.229-.133l11.568 6.697a.512.512 0 01.229.399c0 .147-.103.206-.229.133zm0 2.882l-11.568-6.698a.506.506 0 01-.229-.398c0-.147.102-.206.229-.133l11.568 6.698a.508.508 0 01.229.398c0 .147-.103.206-.229.133zm-3.184-15.904l-5.201-3.011a.51.51 0 01-.229-.398c0-.147.103-.207.229-.133l5.201 3.011c.127.073.23.252.23.398 0 .147-.103.207-.23.133z" fill="#C6C6C6"/><path d="M170.892 128.043l-10.306-5.968a.508.508 0 01-.23-.398c0-.147.103-.207.23-.133l10.306 5.967a.51.51 0 01.23.399c0 .147-.103.206-.23.133zm-9.357-8.108l-1.277-.739a.764.764 0 01-.344-.598c0-.22.154-.309.344-.199l1.277.74c.19.11.344.377.344.597 0 .22-.154.309-.344.199zm2.986 1.729l-1.277-.739a.764.764 0 01-.344-.598c0-.22.154-.309.344-.199l1.277.74c.19.11.344.377.344.597 0 .22-.154.309-.344.199zm2.986 1.73l-1.277-.74a.765.765 0 01-.344-.597c0-.221.155-.31.344-.2l1.277.74c.19.11.344.377.344.597 0 .22-.154.309-.344.2zm2.987 1.729l-1.277-.74a.762.762 0 01-.344-.597c0-.22.154-.309.344-.2l1.277.74c.19.11.344.377.344.597 0 .221-.154.31-.344.2z" fill="#BF272D"/><path d="M73.65 95.91L56.535 86V57.967l17.117 9.91v28.034z" fill="#EFEFEF"/><path d="M67.693 68.8l-5.201-3.01a.508.508 0 01-.23-.399c0-.147.103-.206.23-.133l5.2 3.011c.128.074.23.252.23.399 0 .147-.102.206-.23.133zm2.968 11.631l-11.138-6.448a.508.508 0 01-.229-.399v-2.533c0-.147.103-.206.23-.133l11.137 6.45c.127.073.23.25.23.398v2.532c0 .147-.103.207-.23.133zm-10.908-6.847l10.679 6.183v-2.001l-10.68-6.184v2.002z" fill="#C6C6C6"/><path d="M70.661 77.898L59.523 71.45a.508.508 0 01-.229-.399v-2.533c0-.146.103-.206.23-.132l11.137 6.448a.51.51 0 01.23.399v2.532c0 .147-.103.207-.23.133zm-10.908-6.847l10.679 6.183v-2.001l-10.68-6.183v2.001zm10.908 11.913l-11.138-6.449a.508.508 0 01-.229-.398v-2.533c0-.147.103-.206.23-.133l11.137 6.45c.127.073.23.25.23.398v2.532c0 .147-.103.206-.23.133zm-10.908-6.847L70.432 82.3v-2.001l-10.68-6.184v2.002z" fill="#C6C6C6"/><path d="M70.661 85.497l-11.138-6.449a.508.508 0 01-.229-.398v-2.533c0-.147.103-.206.23-.133l11.137 6.449c.127.073.23.251.23.398v2.533c0 .147-.103.206-.23.133zM59.753 78.65l10.679 6.183v-2.002l-10.68-6.183v2.002z" fill="#C6C6C6"/><path d="M70.661 88.03l-4.218-2.442a.508.508 0 01-.23-.399v-2.533c0-.147.103-.206.23-.133l4.218 2.443c.127.073.23.251.23.398v2.533c0 .147-.103.206-.23.133zm-3.989-2.84l3.76 2.176v-2.002l-3.76-2.176v2.001z" fill="#C6C6C6"/><path d="M66.443 85.588l-6.92-4.007a.508.508 0 01-.229-.398V78.65c0-.147.103-.206.23-.133l6.92 4.007a.507.507 0 01.228.398v2.533c0 .147-.102.206-.229.133zm-6.69-4.405l6.46 3.74v-2.001l-6.46-3.74v2z" fill="#C6C6C6"/><path d="M58.366 73.527a.367.367 0 01-.055-.04.54.54 0 01-.157-.25l-.601-2.077c-.048-.164.01-.285.127-.272.116.013.25.156.298.32l.483 1.667 3.253-1.303c.097-.04.241.059.323.218.082.16.07.32-.027.358l-3.495 1.401c-.042.017-.095.009-.149-.022zm10.33 9.383l-7.959-4.608a.393.393 0 01-.177-.307c0-.114.08-.16.177-.103l7.959 4.608a.392.392 0 01.177.308c0 .113-.08.159-.177.102zm-7.226-6.26l-.986-.57a.59.59 0 01-.265-.462c0-.17.119-.239.265-.154l.986.57a.59.59 0 01.266.462c0 .17-.119.24-.266.154zm2.306 1.335l-.986-.57a.59.59 0 01-.265-.462c0-.17.119-.239.265-.154l.986.571a.59.59 0 01.266.461c0 .17-.12.24-.266.154zm2.306 1.335l-.986-.57a.59.59 0 01-.266-.462c0-.17.12-.239.266-.154l.986.571a.59.59 0 01.266.462c0 .17-.12.238-.266.153zm2.306 1.336l-.986-.571a.59.59 0 01-.266-.462c0-.17.12-.239.266-.154l.986.571a.59.59 0 01.266.462c0 .17-.12.239-.266.154zm-8.334 45.318a.13.13 0 01-.079-.026c-2.729-2.03-5.526-3.649-8.313-4.812a.132.132 0 01.102-.245c2.807 1.171 5.623 2.8 8.369 4.844a.133.133 0 01.027.186.131.131 0 01-.106.053zm-4.473 2.547a.136.136 0 01-.079-.026c-2.729-2.031-5.525-3.65-8.312-4.812a.133.133 0 01-.072-.174.132.132 0 01.174-.071c2.806 1.17 5.622 2.8 8.368 4.843a.133.133 0 01-.079.24z" fill="#BF272D"/><path d="M140.426 152.16c1.387-.803 1.387-3.408 0-5.818-1.388-2.41-3.637-3.712-5.025-2.909-1.387.803-1.387 3.408.001 5.818 1.387 2.41 3.636 3.712 5.024 2.909z" fill="#4282B8"/><path d="M137.39 149.509a1.172 1.172 0 01-.402-.425l-1.297-2.253c-.222-.386-.222-.803 0-.931.222-.129.582.08.804.465l.895 1.555 1.943-1.125c.222-.128.582.08.804.466.222.385.222.802 0 .93l-2.345 1.358c-.106.062-.251.047-.402-.04z" fill="#fff"/><path d="M205.112 187.732l-61.211-35.441c-.491-.284-.888-.974-.888-1.542 0-.569.397-.799.888-.515l61.211 35.441c.49.284.888.975.888 1.543s-.398.798-.888.514z" fill="#BFBFBF"/><path d="M24.875 17.721c1.388-.803 1.388-3.408 0-5.818-1.387-2.41-3.637-3.712-5.024-2.909-1.387.804-1.387 3.408 0 5.818 1.388 2.41 3.637 3.713 5.024 2.91z" fill="#4282B8"/><path d="M21.84 15.07a1.166 1.166 0 01-.402-.425l-1.297-2.253c-.223-.386-.223-.803 0-.931.222-.129.582.08.803.465l.895 1.555 1.943-1.125c.222-.128.582.08.804.466.222.385.222.802 0 .93l-2.345 1.358c-.106.062-.25.048-.402-.04z" fill="#fff"/><path d="M89.56 53.293l-61.21-35.44c-.49-.285-.888-.975-.888-1.543s.397-.799.888-.515l61.21 35.441c.491.284.889.975.889 1.543s-.398.798-.888.514z" fill="#BFBFBF"/><path d="M84.714 14.805c-2.724-1.578-4.94-5.427-4.94-8.581 0-3.155 2.216-4.438 4.94-2.86 2.724 1.577 4.94 5.426 4.94 8.58 0 3.155-2.216 4.438-4.94 2.86zm0-9.93c-2.005-1.161-3.635-.217-3.635 2.104s1.63 5.154 3.635 6.315c2.005 1.16 3.635.216 3.635-2.105s-1.63-5.154-3.635-6.314zm81.1 43.483c-2.432-1.408-4.41-4.845-4.41-7.661 0-2.817 1.978-3.962 4.41-2.554 2.433 1.408 4.411 4.845 4.411 7.661s-1.978 3.962-4.411 2.554zm0-8.866c-1.789-1.036-3.245-.193-3.245 1.88 0 2.071 1.456 4.6 3.245 5.637 1.79 1.036 3.246.193 3.246-1.88 0-2.072-1.456-4.6-3.246-5.637z" fill="#4282B8"/><path d="M181.805 102.55l-.626-1.088-2.598 1.504-2.597-4.512-.626.363 2.597 4.511-2.597 1.504.626 1.088 2.597-1.504 2.598 4.511.626-.362-2.597-4.512 2.597-1.503zM83.101 73.615l-.626-1.088-2.597 1.504-2.597-4.512-.627.363 2.598 4.511-2.598 1.504.627 1.087 2.597-1.503 2.597 4.511.626-.362-2.597-4.512 2.597-1.503z" fill="#E4E4E4"/><path d="M1.404 73.443l20.776-12.03c.775-.448 2.005.14 2.005 1.037l-.601 14.305v.101c0 .898-.629 1.99-1.404 2.438L1.816 91.71C1.04 92.16 0 91.41 0 90.511v-14.63c0-.898.629-1.99 1.404-2.438z" fill="#E6E6E6"/><path d="M.648 76.206c0-.898.629-1.99 1.404-2.438l20.776-12.03c.776-.448 1.404-.084 1.404.813V77.08L.648 90.735V76.206z" fill="#4A4C56"/><path d="M2.052 74.418l20.776-12.03c.465-.268.843-.05.843.489v13.878L1.21 89.76V75.88c0-.538.378-1.194.842-1.463z" fill="#fff"/><path d="M24.232 77.08v.101c0 .898-.628 1.99-1.404 2.439L2.052 91.648c-.775.449-1.404.085-1.404-.813v-.101L24.232 77.08z" fill="#CFCFCF"/><path d="M17.553 101.279l20.777-12.03c.775-.448.678-1.897-.218-2.415l-12.199-6.399c-.895-.518-2.25-.575-3.025-.126L2.14 91.613c-.775.449-.706 1.959.19 2.477l12.199 7.063c.895.519 2.25.575 3.024.126z" fill="#DFDFDF"/><path d="M17.553 100.508L38.33 88.479c.775-.449.678-1.233-.218-1.751l-12.199-7.064c-.895-.518-2.25-.574-3.025-.125L2.112 91.568c-.775.449-.678 1.233.217 1.751l12.2 7.064c.895.518 2.25.574 3.024.125z" fill="#E6E6E6"/><path d="M25.144 80.895c.044-.006.13 0 .192.013.107.022.133.035.602.306.475.275.49.286.526.347.07.126.085.112-.556.483-.547.317-.567.327-.646.335-.15.012-.158.009-.764-.342l-.563-.326-.006-.068-.005-.068.569-.335c.534-.313.573-.334.65-.345zm-1.871 1.082c.174-.03.195-.022.794.324.6.348.62.363.562.46-.025.044-.087.084-.572.365-.54.312-.544.315-.638.325-.16.018-.164.017-.766-.331-.524-.304-.552-.322-.572-.37-.038-.09-.013-.11.575-.45.484-.28.54-.309.617-.323zm-1.911 1.091a.547.547 0 01.268-.009c.03.008.296.154.592.326.505.292.54.314.557.36.042.097.035.102-.598.463l-.572.326-.107-.001h-.107l-.569-.323c-.516-.293-.57-.326-.593-.37-.05-.096-.04-.105.543-.446.287-.168.552-.316.586-.326zm-1.702 1.059h.129l.57.33.571.33v.149l-.577.334-.577.335-.119.003-.116.003-.56-.319c-.606-.344-.622-.356-.607-.446l.008-.053.575-.333.576-.333h.128zm-1.962 1.082a.57.57 0 01.143-.007l.097.005.562.325c.56.325.564.327.582.38.03.088-.002.112-.57.442-.555.322-.584.336-.75.33l-.086-.001-.552-.314c-.615-.35-.64-.368-.6-.462.02-.047.048-.066.574-.368.302-.175.572-.324.6-.33zm-1.851 1.079a.671.671 0 01.152-.01c.081.004.093.01.653.335.554.321.57.333.58.377.02.093.01.1-.575.44-.77.445-.654.445-1.415.004-.574-.332-.578-.334-.57-.435l.002-.05.55-.321c.435-.256.563-.327.623-.34zm-1.884 1.083a.519.519 0 01.287.003c.043.013.294.151.572.312.558.323.594.351.556.446-.02.047-.048.065-.574.37-.603.35-.616.355-.77.338-.073-.008-.116-.03-.64-.334-.771-.447-.77-.379-.012-.816.285-.165.548-.307.58-.319zm-1.769 1.062c.156-.021.192-.006.767.327.576.333.602.354.564.444-.02.048-.05.067-.577.373-.615.356-.628.362-.784.334-.074-.013-.137-.045-.625-.328-.488-.282-.544-.319-.565-.361-.048-.09-.038-.098.577-.454.527-.306.56-.323.643-.335zm-1.858 1.077c.158-.022.19-.008.779.332.751.435.75.37.018.8-.587.346-.631.366-.787.348-.094-.01-.097-.012-.66-.338l-.564-.326-.006-.069-.005-.067.569-.335c.547-.321.57-.334.656-.346zm-1.884 1.098a.61.61 0 01.14-.001c.073.008.113.03.634.331.61.353.615.358.577.448-.018.04-.197.145-2.017 1.199L5.788 93.74l-.092.006c-.182.009-.195.003-.758-.323-.562-.325-.572-.333-.557-.438l.01-.054 1.999-1.157c1.598-.924 2.014-1.16 2.062-1.167zm18.528-8.632c.04-.01.123-.01.183-.003l.11.014.52.302c.512.296.524.305.55.362.056.12.127.071-1.235.86-1.169.676-1.212.699-1.294.71-.12.017-.37-.083-.753-.3a6.55 6.55 0 01-.564-.34.17.17 0 01-.044-.104l.002-.058 1.225-.713c1.017-.593 1.236-.716 1.3-.73zM8.884 92.444a.646.646 0 01.258.008c.041.01.253.126.577.314.572.33.589.344.55.45l-.017.054-1.3.753c-1.465.848-1.368.802-1.577.768-.099-.015-.114-.022-.62-.315s-.518-.302-.546-.36c-.057-.117-.135-.064 1.329-.91a43.02 43.02 0 011.346-.762zm14.933-8.608c.156-.022.19-.008.77.328.576.333.593.347.566.448-.011.044-.03.058-.573.372-.525.303-.567.326-.64.334-.154.017-.168.011-.77-.337-.606-.351-.61-.356-.573-.447.018-.037.09-.082.577-.364.528-.306.56-.323.643-.334zm-1.874 1.081c.166-.033.192-.022.792.326.765.442.763.377.003.817-.588.34-.623.355-.779.333-.082-.012-.113-.028-.638-.332-.602-.348-.603-.35-.572-.443.018-.054.023-.057.562-.37.485-.28.554-.317.632-.33zm-1.927 1.093a.51.51 0 01.23-.02c.08.011.117.03.633.33.516.298.55.32.569.367.04.094.031.102-.574.452-.515.298-.552.318-.633.328-.163.024-.176.018-.778-.33-.591-.343-.603-.351-.573-.44.013-.043.054-.068.554-.362.296-.173.554-.32.572-.325zm-1.861 1.083a.483.483 0 01.256-.023c.066.012.147.055.635.343l.56.33-.005.068-.006.068-.562.326c-.617.357-.619.358-.783.339l-.094-.01-.559-.33-.559-.33v-.058a.175.175 0 01.051-.104c.058-.054.977-.586 1.066-.619zm-1.684 1.051h.128l.561.325c.622.36.631.367.584.458-.022.042-.08.08-.574.366-.613.355-.605.352-.786.326-.08-.01-.12-.032-.625-.324-.595-.345-.606-.353-.565-.447.018-.047.052-.069.585-.377l.564-.327h.128zm-1.963 1.081c.025-.006.09-.009.14-.006.128.006.227.055.78.383.652.385.66.33-.122.776-.76.432-.645.432-1.408-.01-.756-.437-.756-.37.018-.817a8.73 8.73 0 01.592-.326zm-1.839 1.081a.693.693 0 01.164-.01c.077.007.105.021.602.303.323.184.539.314.567.342a.17.17 0 01.044.104l-.001.058-.582.337-.582.337h-.1a.66.66 0 01-.175-.022 7.053 7.053 0 01-.59-.329c-.717-.422-.72-.36.041-.8.468-.272.536-.307.612-.32zm-1.896 1.082a.596.596 0 01.123-.02c.14-.005.186.016.733.333.576.334.602.354.564.445-.02.047-.049.067-.578.373-.53.306-.56.323-.643.334-.155.021-.183.009-.781-.338-.753-.436-.751-.362-.011-.796.292-.172.559-.32.593-.33zm18.037-8.33a.76.76 0 01.3.014c.048.015.24.118.561.304.47.274.487.284.521.346.07.125.198.04-1.637 1.102-1.537.89-1.624.938-1.705.953-.174.03-.197.02-.786-.32-.587-.34-.6-.351-.564-.458l.018-.054 1.623-.938a65.05 65.05 0 011.669-.949zm-3.957 2.348c.16-.022.192-.008.797.348l.544.32.002.059a.17.17 0 01-.045.103 6.673 6.673 0 01-.572.345c-.485.275-.532.299-.603.307-.155.018-.168.012-.778-.341l-.559-.324-.006-.068-.005-.068.569-.335c.547-.32.57-.334.656-.346zm-1.893 1.092a.687.687 0 01.165-.01c.077.007.105.022.628.319.606.345.63.362.588.459-.018.044-.054.067-.595.376l-.579.33-.116-.003-.119-.004-.573-.332-.574-.332-.009-.055a.138.138 0 01.035-.098c.026-.026.257-.167.554-.34.452-.261.52-.296.595-.31zm-1.828 1.061c.173-.024.155-.033.783.331.559.324.57.33.578.377.02.09-.008.11-.583.443-.76.44-.646.44-1.41-.002-.765-.443-.767-.375.007-.824.505-.292.548-.315.625-.325zm-1.904 1.087a.491.491 0 01.298.01c.1.037 1 .558 1.062.617.028.026.05.072.05.104v.059l-.557.328c-.606.357-.626.367-.777.352-.087-.01-.095-.014-.65-.335-.77-.446-.769-.379-.011-.815a8.47 8.47 0 01.585-.32zm-1.774 1.063c.156-.022.193-.007.761.325.57.329.6.353.571.44-.018.055-.021.056-.575.377-.607.352-.62.357-.775.34-.072-.008-.115-.03-.636-.332-.521-.302-.56-.327-.574-.368-.03-.09-.02-.098.585-.448.528-.305.561-.323.643-.334zm-1.857 1.076c.156-.022.19-.008.77.328.576.333.592.347.566.447-.011.045-.031.058-.575.374-.625.361-.617.358-.791.328-.072-.011-.14-.047-.54-.272a11.192 11.192 0 01-.553-.327c-.084-.06-.096-.076-.094-.14v-.072l.564-.326c.537-.312.57-.329.653-.34zm-1.877 1.082c.172-.032.196-.022.795.325.764.442.763.377.003.816-.588.341-.623.355-.78.333-.081-.011-.113-.027-.637-.33-.602-.35-.604-.352-.572-.444.018-.055.023-.057.562-.37.485-.28.554-.317.63-.33zm-1.84 1.07c.162-.024.177-.017.769.325.613.356.621.362.56.466-.036.059-.057.071-1.834 1.1-1.764 1.022-1.799 1.042-1.9 1.062a.595.595 0 01-.2.004c-.097-.017-.115-.025-.62-.318l-.52-.3-.024-.062c-.044-.117-.185-.026 1.853-1.206 1.785-1.034 1.833-1.06 1.915-1.071zm16.06-7.157a.64.64 0 01.143-.003c.07.008.118.032.584.296.28.158.534.31.57.336.046.036.061.065.058.113l-.002.064-.77.445c-.756.438-.77.447-.848.451-.16.012-.174.006-.76-.334-.537-.31-.542-.313-.56-.367a.134.134 0 01.002-.089c.031-.056 1.49-.897 1.583-.912zm-2.206 1.292c.151-.017.192.001.76.33.561.323.588.344.57.433l-.01.047-5.314 3.077-5.313 3.076-.08.006c-.16.011-.174.006-.76-.334-.536-.31-.541-.313-.56-.367a.134.134 0 01.002-.089c.017-.029 1.113-.67 5.316-3.102l5.295-3.066.094-.01zM14.406 93.63a.543.543 0 01.17.011c.098.029 1.062.58 1.126.647.023.024.04.068.034.098l-.008.054-.768.444c-.764.443-.77.446-.851.452-.153.01-.19-.005-.753-.332-.576-.333-.602-.354-.564-.444.021-.049.047-.066.77-.485l.75-.434.094-.01zm-2.193 1.301h.128l.564.327c.531.307.567.33.582.373.031.09.068.065-1.065.723l-1.047.607-.119.003-.117.003-.586-.34-.587-.34.005-.067.006-.069 1.054-.61 1.054-.61h.128zm18.573-10.748c.153-.01.189.005.753.331.564.327.59.348.572.436l-.01.048-1.042.603c-1.15.666-1.107.645-1.271.616-.074-.012-.137-.044-.625-.327-.488-.283-.544-.319-.565-.362-.05-.095-.086-.07 1.063-.736l1.043-.603.082-.006z" fill="#BFBFBF"/><path d="M22.096 96.838l10.006-5.794c.183-.106.16-.29-.05-.413l-4.009-2.32c-.21-.123-.53-.136-.713-.03l-10.007 5.794c-.183.105-.16.29.051.413l4.009 2.32c.21.122.53.136.713.03z" fill="#697A94"/><path d="M22.096 96.903l10.006-5.794c.183-.106.16-.29-.05-.413l-4.009-2.32c-.21-.123-.53-.136-.713-.03L17.323 94.14c-.183.106-.16.29.051.413l4.009 2.32c.21.123.53.136.713.03z" fill="#BFBFBF"/><path d="M25.144 80.83c.044-.006.13 0 .192.013.107.022.133.035.602.306.475.275.49.286.526.347.07.126.085.112-.556.483-.547.317-.567.327-.646.335-.15.012-.158.009-.764-.342l-.563-.326-.006-.068-.005-.068.569-.335c.534-.313.573-.334.65-.345zm-1.871 1.082c.174-.03.195-.022.794.324.6.348.62.363.562.46-.025.044-.087.084-.572.365-.54.312-.544.315-.638.325-.16.018-.164.017-.766-.331-.524-.304-.552-.322-.572-.37-.038-.09-.013-.11.575-.45.484-.28.54-.309.617-.323zm-1.911 1.091a.544.544 0 01.268-.009c.03.008.296.154.592.326.505.292.54.314.557.36.042.096.035.102-.598.463l-.572.326-.107-.001h-.107l-.569-.323c-.516-.293-.57-.327-.593-.37-.05-.096-.04-.105.543-.446.287-.168.552-.316.586-.326zm-1.702 1.059h.129l.57.33.571.33v.149l-.577.334-.577.334-.119.004-.116.003-.56-.319c-.606-.344-.622-.356-.607-.446l.008-.053.575-.333.576-.333h.128zm-1.962 1.082a.57.57 0 01.143-.007l.097.005.562.325c.56.325.564.327.582.38.03.088-.002.112-.57.442-.555.322-.584.336-.75.33l-.086-.001-.552-.314c-.615-.35-.64-.368-.6-.462.02-.047.048-.066.574-.368.302-.175.572-.324.6-.33zm-1.851 1.079a.671.671 0 01.152-.01c.081.004.093.01.653.336.554.32.57.332.58.375.02.094.01.101-.575.44-.77.446-.654.446-1.415.005-.574-.332-.578-.334-.57-.435l.002-.05.55-.321c.435-.256.563-.327.623-.34zm-1.884 1.083a.52.52 0 01.287.003c.043.013.294.151.572.312.558.323.594.352.556.446-.02.047-.048.065-.574.37-.603.35-.616.355-.77.338-.073-.008-.116-.03-.64-.334-.771-.447-.77-.38-.012-.816.285-.165.548-.307.58-.319zm-1.769 1.062c.156-.021.192-.006.767.327.576.333.602.354.564.445-.02.047-.05.066-.577.372-.615.356-.628.361-.784.334-.074-.013-.137-.045-.625-.328-.488-.282-.544-.319-.565-.361-.048-.09-.038-.098.577-.454.527-.306.56-.323.643-.335zm-1.858 1.076c.158-.02.19-.008.779.333.751.435.75.37.018.8-.587.346-.631.366-.787.348-.094-.01-.097-.012-.66-.338l-.564-.326-.006-.069-.005-.067.569-.335c.547-.321.57-.334.656-.346zm-1.884 1.099a.615.615 0 01.14-.001c.073.008.113.03.634.331.61.353.615.358.577.448-.018.04-.197.145-2.017 1.199l-1.998 1.156-.092.006c-.182.009-.195.003-.758-.323-.562-.325-.572-.333-.557-.438l.01-.054L6.39 91.71c1.598-.924 2.014-1.16 2.062-1.167zM26.98 81.91a.647.647 0 01.183-.002l.11.014.52.302c.512.296.524.305.55.362.056.12.127.071-1.235.86-1.169.676-1.212.699-1.294.71-.12.017-.37-.083-.753-.3a6.521 6.521 0 01-.564-.34.17.17 0 01-.044-.104l.002-.058 1.225-.713c1.017-.593 1.236-.716 1.3-.73zM8.884 92.379a.646.646 0 01.258.008c.041.01.253.126.577.314.572.33.589.344.55.45l-.017.054-1.3.753c-1.465.848-1.368.802-1.577.768-.099-.015-.114-.022-.62-.315s-.518-.302-.546-.36c-.057-.117-.135-.064 1.329-.91.713-.413 1.32-.757 1.346-.762zm14.933-8.609c.156-.021.19-.007.77.33.576.332.593.346.566.447-.011.044-.03.058-.573.372-.525.303-.567.326-.64.334-.154.017-.168.011-.77-.337-.606-.351-.61-.356-.573-.447.018-.037.09-.082.577-.364.528-.306.56-.323.643-.334zm-1.874 1.082c.166-.033.192-.022.792.326.765.442.763.377.003.816-.588.341-.623.356-.779.334-.082-.012-.113-.028-.638-.332-.602-.348-.603-.35-.572-.443.018-.054.023-.057.562-.37.485-.28.554-.317.632-.33zm-1.927 1.093a.512.512 0 01.23-.02c.08.011.117.03.633.33.516.298.55.32.569.367.04.094.031.102-.574.452-.515.298-.552.318-.633.328-.163.024-.176.018-.778-.33-.591-.343-.603-.351-.573-.44.013-.043.054-.068.554-.362.296-.173.554-.32.572-.325zm-1.861 1.083a.478.478 0 01.256-.023c.066.012.147.055.635.343l.56.33-.005.068-.006.069-.562.325c-.617.357-.619.358-.783.339l-.094-.01-.559-.33-.559-.33v-.058a.175.175 0 01.051-.104c.058-.054.977-.586 1.066-.619zm-1.684 1.052h.128l.561.324c.622.36.631.367.584.458-.022.042-.08.08-.574.366-.613.355-.605.352-.786.326-.08-.01-.12-.032-.625-.324-.595-.345-.606-.353-.565-.447.018-.047.052-.069.585-.377l.564-.327h.128zm-1.963 1.08a.584.584 0 01.14-.006c.128.005.227.055.78.382.652.386.66.332-.122.777-.76.432-.645.432-1.408-.01-.756-.437-.756-.37.018-.817.298-.172.564-.319.592-.326zm-1.839 1.08a.688.688 0 01.164-.009c.077.007.105.021.602.303.323.184.539.314.567.342a.17.17 0 01.044.103l-.001.059-.582.337-.582.337h-.1a.66.66 0 01-.175-.022 7.003 7.003 0 01-.59-.329c-.717-.422-.72-.36.041-.8.468-.272.536-.307.612-.32zm-1.896 1.083a.596.596 0 01.123-.02c.14-.005.186.016.733.333.576.334.602.354.564.445-.02.047-.049.066-.578.373-.53.306-.56.323-.643.334-.155.021-.183.009-.781-.338-.753-.436-.751-.362-.011-.797.292-.17.559-.32.593-.33zm18.037-8.33a.759.759 0 01.3.014c.048.015.24.118.561.304.47.274.487.284.521.345.07.126.198.04-1.637 1.103-1.537.89-1.624.938-1.705.953-.174.03-.197.02-.786-.32-.587-.34-.6-.351-.564-.458l.018-.054 1.623-.938a64.697 64.697 0 011.669-.949zm-3.957 2.348c.16-.022.192-.008.797.348l.544.32.002.059a.17.17 0 01-.045.103 6.673 6.673 0 01-.572.345c-.485.275-.532.299-.603.307-.155.018-.168.012-.778-.341l-.559-.324-.006-.068-.005-.068.569-.335c.547-.32.57-.334.656-.346zm-1.893 1.092a.693.693 0 01.165-.01c.077.007.105.022.628.319.606.345.63.362.588.458-.018.045-.054.068-.595.377l-.579.33-.116-.003-.119-.004-.573-.332-.574-.332-.009-.055a.138.138 0 01.035-.098c.026-.026.257-.167.554-.34.452-.261.52-.296.595-.31zm-1.828 1.061c.173-.024.155-.033.783.33.559.325.57.331.578.378.02.09-.008.11-.583.442-.76.44-.646.441-1.41-.001-.765-.443-.767-.376.007-.824.505-.292.548-.315.625-.325zm-1.904 1.086a.491.491 0 01.298.011c.1.037 1 .558 1.062.617.028.026.05.072.05.104v.059l-.557.328c-.606.357-.626.367-.777.351-.087-.008-.095-.013-.65-.334-.77-.446-.769-.378-.011-.815a8.47 8.47 0 01.585-.32zm-1.774 1.064c.156-.022.193-.007.761.325.57.329.6.353.571.44-.018.055-.021.056-.575.377-.607.352-.62.357-.775.34-.072-.008-.115-.03-.636-.332-.521-.302-.56-.327-.574-.368-.03-.09-.02-.098.585-.448.528-.305.561-.323.643-.334zm-1.857 1.076c.156-.022.19-.008.77.328.576.333.592.346.566.447-.011.045-.031.058-.575.374-.625.361-.617.358-.791.328-.072-.011-.14-.047-.54-.272a11.027 11.027 0 01-.553-.327c-.084-.06-.096-.076-.094-.14v-.072l.564-.326c.537-.312.57-.329.653-.34zm-1.877 1.082c.172-.032.196-.022.795.324.764.443.763.377.003.817-.588.341-.623.355-.78.333-.081-.011-.113-.027-.637-.33-.602-.35-.604-.352-.572-.444.018-.055.023-.057.562-.37.485-.28.554-.317.63-.33zm-1.84 1.07c.162-.024.177-.017.769.325.613.355.621.362.56.466-.036.059-.057.071-1.834 1.1-1.764 1.022-1.799 1.042-1.9 1.062a.593.593 0 01-.2.003c-.097-.016-.115-.024-.62-.317l-.52-.3-.024-.062c-.044-.117-.185-.026 1.853-1.206 1.785-1.034 1.833-1.06 1.915-1.071zm16.06-7.157a.645.645 0 01.143-.003c.07.008.118.032.584.296.28.158.534.31.57.336.046.036.061.065.058.113l-.002.064-.77.445c-.756.438-.77.447-.848.452-.16.01-.174.005-.76-.335-.537-.31-.542-.313-.56-.367a.134.134 0 01.002-.089c.031-.056 1.49-.897 1.583-.912zm-2.206 1.292c.151-.017.192.001.76.33.561.323.588.344.57.433l-.01.047-5.314 3.077-5.313 3.076-.08.006c-.16.011-.174.006-.76-.334-.536-.31-.541-.313-.56-.367a.134.134 0 01.002-.089c.017-.029 1.113-.67 5.316-3.102l5.295-3.066.094-.01zm-11.328 6.559a.546.546 0 01.17.01c.098.029 1.062.58 1.126.647.023.024.04.068.034.098l-.008.054-.768.444c-.764.443-.77.446-.851.452-.153.01-.19-.005-.753-.332-.576-.333-.602-.354-.564-.444.021-.049.047-.066.77-.485l.75-.434.094-.01zm-2.193 1.3h.128l.564.326c.531.308.567.33.582.374.031.09.068.065-1.065.723l-1.047.606-.119.004-.117.003-.586-.34-.587-.34.005-.067.006-.069 1.054-.61 1.054-.61h.128zm18.573-10.748c.153-.01.189.005.753.331.564.327.59.348.572.436l-.01.048-1.042.603c-1.15.666-1.107.645-1.271.616-.074-.012-.137-.044-.625-.327-.488-.283-.544-.319-.565-.362-.05-.095-.086-.07 1.063-.736l1.043-.603.082-.006z" fill="#697A94"/><path opacity=".05" d="M2.33 93.32c-.896-.52-.993-1.303-.218-1.752l20.776-12.03c.776-.448 2.13-.392 3.025.126l.589.341L2.918 93.66l-.589-.34z" fill="#000"/><path d="M6.16 76.269a.207.207 0 01-.045.02c-.059.017-.107-.004-.13-.056l-.311-.716c-.04-.09.008-.244.105-.345.097-.102.207-.11.246-.021l.213.49L7.85 73.13c.08-.125.2-.182.267-.129.067.053.057.197-.023.322l-1.811 2.823a.376.376 0 01-.122.123z" fill="#4282B8"/><path d="M18.993 68.198L8.728 74.14c-.104.06-.189.012-.189-.11a.42.42 0 01.19-.328l10.264-5.943c.105-.06.19-.012.19.11a.42.42 0 01-.19.328z" fill="#BFBFBF"/><path d="M6.16 80.18a.212.212 0 01-.045.02c-.059.018-.107-.003-.13-.055l-.311-.716c-.04-.09.008-.244.105-.345.097-.102.207-.11.246-.022l.213.492 1.612-2.512c.08-.125.2-.182.267-.129.067.053.057.197-.023.322l-1.811 2.823a.376.376 0 01-.122.123z" fill="#4282B8"/><path d="M18.993 72.11L8.728 78.053c-.104.06-.189.012-.189-.11a.42.42 0 01.19-.328l10.264-5.943c.105-.06.19-.012.19.11a.42.42 0 01-.19.328z" fill="#BFBFBF"/><path d="M6.16 84.093a.212.212 0 01-.045.02c-.059.017-.107-.004-.13-.056l-.311-.716c-.04-.09.008-.244.105-.345.097-.102.207-.111.246-.022l.213.492 1.612-2.512c.08-.125.2-.182.267-.129.067.053.057.197-.023.322L6.283 83.97a.376.376 0 01-.122.123z" fill="#4282B8"/><path d="M18.993 76.022L8.728 81.965c-.104.06-.189.012-.189-.11a.42.42 0 01.19-.328l10.264-5.943c.105-.06.19-.012.19.11a.42.42 0 01-.19.328z" fill="#BFBFBF"/><path opacity=".05" d="M1.416 155.189l21.207-12.279c.792-.458 2.075-.458 2.866 0l12.807 7.415.09.052c.79.458.79 1.201 0 1.659l-21.208 12.28c-.791.458-2.075.458-2.866 0l-.09-.052-12.806-7.415c-.792-.458-.792-1.201 0-1.66z" fill="#333"/></g><defs><clipPath id="clip0_28_542"><path fill="#fff" d="M0 0h206v235H0z"/></clipPath></defs></svg>