<svg width="98" height="59" fill="none" xmlns="http://www.w3.org/2000/svg"><mask id="a" style="mask-type:luminance" maskUnits="userSpaceOnUse" x="32" y="0" width="34" height="39"><path d="M32.419.608h33.124v38.308H32.419V.608z" fill="#fff"/></mask><g mask="url(#a)"><path d="M48.986 38.916V36.79L32.419 26.197v2.126l16.567 10.593zm0-14.94v2.14l6.56-4.2-1.663-1.063-4.897 3.123zM49.012.608v2.128L65.58 13.328v-2.126L49.012.608zm0 14.942v-2.14l-6.573 4.199 1.677 1.063 4.896-3.122z" fill="#4282B8"/></g><mask id="b" style="mask-type:luminance" maskUnits="userSpaceOnUse" x="32" y="4" width="34" height="31"><path d="M32.419 4.781h33.124v29.882H32.419V4.78z" fill="#fff"/></mask><g mask="url(#b)"><path d="M48.986 34.65v-2.14L32.419 21.915v2.14l16.567 10.593zm0-4.267l9.9-6.34-1.664-1.064-8.236 5.277v2.127zm.026-25.507v2.14L65.58 17.608v-2.141L49.012 4.876zm0 4.266l-9.912 6.34 1.676 1.064 8.236-5.277V9.142z" fill="#000"/><path d="M48.986 30.383v-2.14L32.419 17.65v2.14l16.567 10.593zm0 4.266l13.253-8.466-1.676-1.077-11.577 7.417v2.126zm.026-25.507v2.14L65.58 21.877v-2.14L49.012 9.142zm0-4.266L35.76 13.343l1.664 1.076 11.59-7.417V4.876z" fill="#4A4C4E"/></g><mask id="c" style="mask-type:luminance" maskUnits="userSpaceOnUse" x="32" y="0" width="34" height="39"><path d="M32.419.608h33.124v38.308H32.419V.608z" fill="#fff"/></mask><g mask="url(#c)"><path d="M48.986 26.116v-2.14L32.419 13.383v2.14l16.567 10.593zm0 12.8L65.579 28.31l-1.676-1.063-14.917 9.543v2.126zm.026-25.507v2.141L65.58 26.142v-2.14L49.012 13.41zm0-12.8L32.42 11.214l1.664 1.063 14.93-9.542V.608z" fill="#B1C6DC"/></g><path d="M16.498 48.643v-.489h4.16v.49h-4.16zm4.16-1.784v.467h-4.16v-.467h4.16zm1.281-.903h-6.7v5.163h1.26v-1.657h4.16v.413c0 .16-.054.202-.244.213-.16.01-.847.01-1.366-.021.16.287.328.7.392 1.009.847 0 1.482-.01 1.916-.159.434-.16.582-.425.582-1.02v-3.94zm-2.763-1.412v-.5h3.06v-.892h-3.06v-.479h3.526v-.944h-3.526v-.542h-1.28v.542h-3.367v.944h3.367v.479H14.92v.892h2.975v.5h-4.013v.944h9.359v-.944h-4.066z" fill="#4379A6"/><path d="M30.101 46.095c-.37.085-.74.158-1.111.243v-1.88h1.08v-1.2h-1.08v-2.06h-1.218v2.06h-.487c.074-.446.138-.892.19-1.338l-1.058-.18c-.116 1.242-.339 2.549-.73 3.388.243.138.709.435.9.595.17-.362.317-.787.444-1.264h.74v2.134c-.76.16-1.47.297-2.032.394l.297 1.242c.519-.117 1.112-.255 1.736-.393v3.283h1.218v-3.58c.423-.095.826-.202 1.238-.308l-.127-1.136zm3.303 3.367v-3.889h2.012v-1.22h-2.012v-3.156h-1.27v3.155h-1.97v1.221h1.97v3.889h-2.435v1.252h5.991v-1.252h-2.286zm8.119-5.683c.624.53 1.45 1.274 1.81 1.752l.953-.797c-.413-.467-1.239-1.179-1.874-1.657l-.889.702zm-.668 1.933V42.8h4.246v2.91h-4.245zm6.829 0H46.37v-4.08h-6.785v4.08h-1.44v1.21H39.5c-.148 1.18-.54 2.401-1.588 3.304.275.17.762.627.953.882 1.248-1.073 1.735-2.687 1.905-4.186h4.33v2.698c0 .224-.084.298-.318.309-.243 0-1.07.01-1.779-.042.181.339.382.88.434 1.232 1.091 0 1.821-.011 2.287-.213.477-.202.646-.542.646-1.264v-2.72h1.313v-1.21zM55.77 49.1v-5.491h3.557V42.29H50.87v1.318h3.461v5.49h-4.033v1.276h9.622V49.1h-4.15zm13.794-1.996c.042-.309.073-.627.105-.946h-1.26c-.02.329-.053.637-.105.946h-1.546v1.05h1.28c-.327.83-.942 1.51-2.212 1.976.265.234.594.68.731.978 1.672-.659 2.424-1.69 2.784-2.953h1.228c-.116.988-.254 1.445-.402 1.582-.106.096-.19.118-.339.118-.17 0-.53-.011-.91-.053.19.318.328.817.338 1.167.487.022.921.012 1.186-.02.317-.043.54-.128.772-.372.308-.34.499-1.158.668-2.996.02-.149.042-.477.042-.477h-2.36zm.465-3.804c-.18.34-.413.649-.7.904a4.161 4.161 0 01-.877-.904h1.577zm2.011 0v-1.05h-3.123c.148-.245.276-.49.392-.744l-1.174-.319c-.414.977-1.197 1.933-2.023 2.528.296.17.783.51 1.027.711.158-.137.318-.287.477-.456.221.319.476.616.751.881a6.37 6.37 0 01-1.291.489l.042-.244-.762-.255-.17.053h-.508l.519-.542a5.871 5.871 0 00-.773-.467c.593-.51 1.185-1.158 1.546-1.752l-.805-.51-.19.041h-3.42v1.063h2.542a6.766 6.766 0 01-.668.67 14.71 14.71 0 00-.836-.34l-.794.807c.656.265 1.45.669 2.043 1.03h-2.424v1.104h1.323c-.37.84-.921 1.668-1.503 2.188.19.34.466.86.572 1.222.507-.467.952-1.179 1.323-1.964v2.273c0 .127-.043.148-.17.158-.137 0-.561 0-.952-.01.158.34.328.85.36 1.2.656 0 1.132-.02 1.492-.223.37-.191.455-.531.455-1.105v-3.739h.561a13.801 13.801 0 01-.338 1.466l.847.394c.19-.479.37-1.116.518-1.775.127.17.233.33.296.447.805-.223 1.536-.51 2.16-.892.636.392 1.355.71 2.16.913.17-.32.518-.818.794-1.073a8.198 8.198 0 01-1.948-.627 5.227 5.227 0 001.059-1.55h.613zm10.173 6.31h-3.758v-1.444h3.758v1.444zm-1.387-5.831h-1.28v3.271h-2.32v4.058h1.229v-.394h3.758v.383h1.29V47.05h-2.677v-1.157h3.303v-1.116h-3.303v-.998zm-.413-1.36v-1.222H79.1v1.222h-3.769v2.677c0 1.53-.074 3.76-.942 5.28.296.137.857.498 1.09.71.953-1.656 1.112-4.28 1.112-5.99v-1.477h7.674v-1.2h-3.853z" fill="#000"/><path d="M37.832 56.861l.588.006-.006.59-.588-.006m1.182-.576l.588.006-.006.59-.588-.006m1.182-.577l.588.006-.006.59-.588-.006m1.182-.577l.588.006-.006.59-.588-.006m1.182-.577l.588.007-.006.59-.588-.007m1.182-.576l.588.006-.006.59-.588-.006m1.182-.577l.588.006-.007.59-.588-.006m1.183-.577l.588.007-.007.59-.588-.007m1.183-.576l.588.006-.007.59-.588-.006m1.183-.577l.588.006-.007.59-.588-.006m1.183-.577l.588.007-.007.59-.588-.007m1.183-.576l.588.007-.007.589-.588-.006m1.183-.577l.588.007-.007.59-.588-.007m1.182-.577l.588.008-.006.59-.588-.008m1.182-.576l.588.007-.006.59-.588-.007m1.182-.577l.588.007-.006.59-.588-.007m1.182-.577l.588.008-.006.59-.588-.008m1.182-.576l.588.007-.006.59-.588-.007m1.182-.577l.588.007-.006.59-.588-.007" fill="#4282B8"/></svg>